<?xml version="1.0" standalone="no"?>
<svg width="567.429" height="409.002" viewBox="0 0 567.429 409.002" xmlns="http://www.w3.org/2000/svg" shape-rendering="crispEdges">
<title>
hist_jetpt_mu.svg
</title>
<desc>
Creator: ROOT Version 6.18/04
CreationDate: Wed Oct  7 00:29:28 2020</desc>
<defs>
</defs>
<rect x="0.5" y="0" width="566.929" height="408.502" fill="white"/>
<rect x="57.1929" y="40.8502" width="453.543" height="326.801" fill="white"/>
<rect x="57.1929" y="40.8502" width="453.543" height="326.801" fill="none" stroke="black"/>
<rect x="184.185" y="351.311" width="9.07087" height="16.3401" fill="#263da8"/>
<rect x="193.256" y="351.311" width="9.07087" height="16.3401" fill="#263da8"/>
<rect x="202.327" y="351.311" width="9.07087" height="16.3401" fill="#263da8"/>
<rect x="211.398" y="351.311" width="9.07087" height="16.3401" fill="#263da8"/>
<rect x="220.469" y="351.311" width="9.07087" height="16.3401" fill="#263da8"/>
<rect x="229.539" y="351.311" width="9.07087" height="16.3401" fill="#263da8"/>
<rect x="238.61" y="351.311" width="9.07087" height="16.3401" fill="#263da8"/>
<rect x="247.681" y="351.311" width="9.07087" height="16.3401" fill="#263da8"/>
<rect x="256.752" y="351.311" width="9.07087" height="16.3401" fill="#263da8"/>
<rect x="265.823" y="351.311" width="9.07087" height="16.3401" fill="#263da8"/>
<rect x="274.894" y="351.311" width="9.07087" height="16.3401" fill="#263da8"/>
<rect x="283.965" y="351.311" width="9.07087" height="16.3401" fill="#263da8"/>
<rect x="302.106" y="351.311" width="9.07087" height="16.3401" fill="#263da8"/>
<rect x="311.177" y="351.311" width="9.07087" height="16.3401" fill="#263da8"/>
<rect x="320.248" y="351.311" width="9.07087" height="16.3401" fill="#263da8"/>
<rect x="329.319" y="351.311" width="9.07087" height="16.3401" fill="#263da8"/>
<rect x="338.39" y="351.311" width="9.07087" height="16.3401" fill="#263da8"/>
<rect x="347.461" y="351.311" width="9.07087" height="16.3401" fill="#263da8"/>
<rect x="356.531" y="351.311" width="9.07087" height="16.3401" fill="#263da8"/>
<rect x="365.602" y="351.311" width="9.07087" height="16.3401" fill="#263da8"/>
<rect x="374.673" y="351.311" width="9.07087" height="16.3401" fill="#263da8"/>
<rect x="383.744" y="351.311" width="9.07087" height="16.3401" fill="#263da8"/>
<rect x="392.815" y="351.311" width="9.07087" height="16.3401" fill="#263da8"/>
<rect x="401.886" y="351.311" width="9.07087" height="16.3401" fill="#263da8"/>
<rect x="410.957" y="351.311" width="9.07087" height="16.3401" fill="#263da8"/>
<rect x="420.028" y="351.311" width="9.07087" height="16.3401" fill="#263da8"/>
<rect x="429.098" y="351.311" width="9.07087" height="16.3401" fill="#263da8"/>
<rect x="438.169" y="351.311" width="9.07087" height="16.3401" fill="#263da8"/>
<rect x="447.24" y="351.311" width="9.07087" height="16.3401" fill="#263da8"/>
<rect x="456.311" y="351.311" width="9.07087" height="16.3401" fill="#263da8"/>
<rect x="465.382" y="351.311" width="9.07087" height="16.3401" fill="#263da8"/>
<rect x="474.453" y="351.311" width="9.07087" height="16.3401" fill="#263da8"/>
<rect x="483.524" y="351.311" width="9.07087" height="16.3401" fill="#263da8"/>
<rect x="492.594" y="351.311" width="9.07087" height="16.3401" fill="#263da8"/>
<rect x="501.665" y="351.311" width="9.07087" height="16.3401" fill="#263da8"/>
<rect x="184.185" y="334.971" width="9.07087" height="16.3401" fill="#263da8"/>
<rect x="193.256" y="334.971" width="9.07087" height="16.3401" fill="#263da8"/>
<rect x="202.327" y="334.971" width="9.07087" height="16.3401" fill="#263da8"/>
<rect x="211.398" y="334.971" width="9.07087" height="16.3401" fill="#263da8"/>
<rect x="220.469" y="334.971" width="9.07087" height="16.3401" fill="#263da8"/>
<rect x="229.539" y="334.971" width="9.07087" height="16.3401" fill="#263da8"/>
<rect x="238.61" y="334.971" width="9.07087" height="16.3401" fill="#263da8"/>
<rect x="247.681" y="334.971" width="9.07087" height="16.3401" fill="#263da8"/>
<rect x="256.752" y="334.971" width="9.07087" height="16.3401" fill="#263da8"/>
<rect x="265.823" y="334.971" width="9.07087" height="16.3401" fill="#263da8"/>
<rect x="274.894" y="334.971" width="9.07087" height="16.3401" fill="#263da8"/>
<rect x="283.965" y="334.971" width="9.07087" height="16.3401" fill="#263da8"/>
<rect x="293.035" y="334.971" width="9.07087" height="16.3401" fill="#263da8"/>
<rect x="302.106" y="334.971" width="9.07087" height="16.3401" fill="#263da8"/>
<rect x="311.177" y="334.971" width="9.07087" height="16.3401" fill="#263da8"/>
<rect x="320.248" y="334.971" width="9.07087" height="16.3401" fill="#263da8"/>
<rect x="329.319" y="334.971" width="9.07087" height="16.3401" fill="#263da8"/>
<rect x="338.39" y="334.971" width="9.07087" height="16.3401" fill="#263da8"/>
<rect x="347.461" y="334.971" width="9.07087" height="16.3401" fill="#263da8"/>
<rect x="356.531" y="334.971" width="9.07087" height="16.3401" fill="#263da8"/>
<rect x="365.602" y="334.971" width="9.07087" height="16.3401" fill="#263da8"/>
<rect x="374.673" y="334.971" width="9.07087" height="16.3401" fill="#263da8"/>
<rect x="383.744" y="334.971" width="9.07087" height="16.3401" fill="#263da8"/>
<rect x="392.815" y="334.971" width="9.07087" height="16.3401" fill="#263da8"/>
<rect x="401.886" y="334.971" width="9.07087" height="16.3401" fill="#263da8"/>
<rect x="410.957" y="334.971" width="9.07087" height="16.3401" fill="#263da8"/>
<rect x="420.028" y="334.971" width="9.07087" height="16.3401" fill="#263da8"/>
<rect x="429.098" y="334.971" width="9.07087" height="16.3401" fill="#263da8"/>
<rect x="438.169" y="334.971" width="9.07087" height="16.3401" fill="#263da8"/>
<rect x="447.24" y="334.971" width="9.07087" height="16.3401" fill="#263da8"/>
<rect x="456.311" y="334.971" width="9.07087" height="16.3401" fill="#263da8"/>
<rect x="465.382" y="334.971" width="9.07087" height="16.3401" fill="#263da8"/>
<rect x="474.453" y="334.971" width="9.07087" height="16.3401" fill="#263da8"/>
<rect x="483.524" y="334.971" width="9.07087" height="16.3401" fill="#263da8"/>
<rect x="492.594" y="334.971" width="9.07087" height="16.3401" fill="#263da8"/>
<rect x="501.665" y="334.971" width="9.07087" height="16.3401" fill="#263da8"/>
<rect x="184.185" y="318.631" width="9.07087" height="16.3401" fill="#0da7c2"/>
<rect x="193.256" y="318.631" width="9.07087" height="16.3401" fill="#0da7c2"/>
<rect x="202.327" y="318.631" width="9.07087" height="16.3401" fill="#0da7c2"/>
<rect x="211.398" y="318.631" width="9.07087" height="16.3401" fill="#0e8ed0"/>
<rect x="220.469" y="318.631" width="9.07087" height="16.3401" fill="#0e8ed0"/>
<rect x="229.539" y="318.631" width="9.07087" height="16.3401" fill="#1380d5"/>
<rect x="238.61" y="318.631" width="9.07087" height="16.3401" fill="#1171d8"/>
<rect x="247.681" y="318.631" width="9.07087" height="16.3401" fill="#1063db"/>
<rect x="256.752" y="318.631" width="9.07087" height="16.3401" fill="#1063db"/>
<rect x="265.823" y="318.631" width="9.07087" height="16.3401" fill="#1652cc"/>
<rect x="274.894" y="318.631" width="9.07087" height="16.3401" fill="#1652cc"/>
<rect x="283.965" y="318.631" width="9.07087" height="16.3401" fill="#1652cc"/>
<rect x="293.035" y="318.631" width="9.07087" height="16.3401" fill="#263da8"/>
<rect x="302.106" y="318.631" width="9.07087" height="16.3401" fill="#263da8"/>
<rect x="311.177" y="318.631" width="9.07087" height="16.3401" fill="#263da8"/>
<rect x="320.248" y="318.631" width="9.07087" height="16.3401" fill="#263da8"/>
<rect x="329.319" y="318.631" width="9.07087" height="16.3401" fill="#263da8"/>
<rect x="338.39" y="318.631" width="9.07087" height="16.3401" fill="#263da8"/>
<rect x="347.461" y="318.631" width="9.07087" height="16.3401" fill="#263da8"/>
<rect x="356.531" y="318.631" width="9.07087" height="16.3401" fill="#263da8"/>
<rect x="365.602" y="318.631" width="9.07087" height="16.3401" fill="#263da8"/>
<rect x="374.673" y="318.631" width="9.07087" height="16.3401" fill="#263da8"/>
<rect x="383.744" y="318.631" width="9.07087" height="16.3401" fill="#263da8"/>
<rect x="392.815" y="318.631" width="9.07087" height="16.3401" fill="#263da8"/>
<rect x="401.886" y="318.631" width="9.07087" height="16.3401" fill="#263da8"/>
<rect x="410.957" y="318.631" width="9.07087" height="16.3401" fill="#263da8"/>
<rect x="420.028" y="318.631" width="9.07087" height="16.3401" fill="#263da8"/>
<rect x="429.098" y="318.631" width="9.07087" height="16.3401" fill="#263da8"/>
<rect x="438.169" y="318.631" width="9.07087" height="16.3401" fill="#263da8"/>
<rect x="447.24" y="318.631" width="9.07087" height="16.3401" fill="#263da8"/>
<rect x="456.311" y="318.631" width="9.07087" height="16.3401" fill="#263da8"/>
<rect x="465.382" y="318.631" width="9.07087" height="16.3401" fill="#263da8"/>
<rect x="474.453" y="318.631" width="9.07087" height="16.3401" fill="#263da8"/>
<rect x="483.524" y="318.631" width="9.07087" height="16.3401" fill="#263da8"/>
<rect x="492.594" y="318.631" width="9.07087" height="16.3401" fill="#263da8"/>
<rect x="501.665" y="318.631" width="9.07087" height="16.3401" fill="#263da8"/>
<rect x="184.185" y="302.291" width="9.07087" height="16.3401" fill="#fcd12b"/>
<rect x="193.256" y="302.291" width="9.07087" height="16.3401" fill="#f9f90e"/>
<rect x="202.327" y="302.291" width="9.07087" height="16.3401" fill="#e1bf4a"/>
<rect x="211.398" y="302.291" width="9.07087" height="16.3401" fill="#d0ba59"/>
<rect x="220.469" y="302.291" width="9.07087" height="16.3401" fill="#b2bc65"/>
<rect x="229.539" y="302.291" width="9.07087" height="16.3401" fill="#52ba91"/>
<rect x="238.61" y="302.291" width="9.07087" height="16.3401" fill="#2db7a3"/>
<rect x="247.681" y="302.291" width="9.07087" height="16.3401" fill="#0da7c2"/>
<rect x="256.752" y="302.291" width="9.07087" height="16.3401" fill="#089dcc"/>
<rect x="265.823" y="302.291" width="9.07087" height="16.3401" fill="#0e8ed0"/>
<rect x="274.894" y="302.291" width="9.07087" height="16.3401" fill="#1380d5"/>
<rect x="283.965" y="302.291" width="9.07087" height="16.3401" fill="#1171d8"/>
<rect x="293.035" y="302.291" width="9.07087" height="16.3401" fill="#1171d8"/>
<rect x="302.106" y="302.291" width="9.07087" height="16.3401" fill="#1063db"/>
<rect x="311.177" y="302.291" width="9.07087" height="16.3401" fill="#1652cc"/>
<rect x="320.248" y="302.291" width="9.07087" height="16.3401" fill="#1652cc"/>
<rect x="329.319" y="302.291" width="9.07087" height="16.3401" fill="#1652cc"/>
<rect x="338.39" y="302.291" width="9.07087" height="16.3401" fill="#1652cc"/>
<rect x="347.461" y="302.291" width="9.07087" height="16.3401" fill="#263da8"/>
<rect x="356.531" y="302.291" width="9.07087" height="16.3401" fill="#1652cc"/>
<rect x="365.602" y="302.291" width="9.07087" height="16.3401" fill="#263da8"/>
<rect x="374.673" y="302.291" width="9.07087" height="16.3401" fill="#263da8"/>
<rect x="383.744" y="302.291" width="9.07087" height="16.3401" fill="#263da8"/>
<rect x="392.815" y="302.291" width="9.07087" height="16.3401" fill="#263da8"/>
<rect x="401.886" y="302.291" width="9.07087" height="16.3401" fill="#263da8"/>
<rect x="410.957" y="302.291" width="9.07087" height="16.3401" fill="#263da8"/>
<rect x="420.028" y="302.291" width="9.07087" height="16.3401" fill="#263da8"/>
<rect x="429.098" y="302.291" width="9.07087" height="16.3401" fill="#263da8"/>
<rect x="438.169" y="302.291" width="9.07087" height="16.3401" fill="#263da8"/>
<rect x="447.24" y="302.291" width="9.07087" height="16.3401" fill="#263da8"/>
<rect x="456.311" y="302.291" width="9.07087" height="16.3401" fill="#263da8"/>
<rect x="465.382" y="302.291" width="9.07087" height="16.3401" fill="#263da8"/>
<rect x="474.453" y="302.291" width="9.07087" height="16.3401" fill="#263da8"/>
<rect x="483.524" y="302.291" width="9.07087" height="16.3401" fill="#263da8"/>
<rect x="492.594" y="302.291" width="9.07087" height="16.3401" fill="#263da8"/>
<rect x="501.665" y="302.291" width="9.07087" height="16.3401" fill="#263da8"/>
<rect x="184.185" y="285.951" width="9.07087" height="16.3401" fill="#e1bf4a"/>
<rect x="193.256" y="285.951" width="9.07087" height="16.3401" fill="#f9f90e"/>
<rect x="202.327" y="285.951" width="9.07087" height="16.3401" fill="#fcd12b"/>
<rect x="211.398" y="285.951" width="9.07087" height="16.3401" fill="#e1bf4a"/>
<rect x="220.469" y="285.951" width="9.07087" height="16.3401" fill="#b2bc65"/>
<rect x="229.539" y="285.951" width="9.07087" height="16.3401" fill="#73bd80"/>
<rect x="238.61" y="285.951" width="9.07087" height="16.3401" fill="#1dafb3"/>
<rect x="247.681" y="285.951" width="9.07087" height="16.3401" fill="#0da7c2"/>
<rect x="256.752" y="285.951" width="9.07087" height="16.3401" fill="#0da7c2"/>
<rect x="265.823" y="285.951" width="9.07087" height="16.3401" fill="#089dcc"/>
<rect x="274.894" y="285.951" width="9.07087" height="16.3401" fill="#1380d5"/>
<rect x="283.965" y="285.951" width="9.07087" height="16.3401" fill="#1380d5"/>
<rect x="293.035" y="285.951" width="9.07087" height="16.3401" fill="#1171d8"/>
<rect x="302.106" y="285.951" width="9.07087" height="16.3401" fill="#1171d8"/>
<rect x="311.177" y="285.951" width="9.07087" height="16.3401" fill="#1171d8"/>
<rect x="320.248" y="285.951" width="9.07087" height="16.3401" fill="#1063db"/>
<rect x="329.319" y="285.951" width="9.07087" height="16.3401" fill="#1063db"/>
<rect x="338.39" y="285.951" width="9.07087" height="16.3401" fill="#1652cc"/>
<rect x="347.461" y="285.951" width="9.07087" height="16.3401" fill="#1652cc"/>
<rect x="356.531" y="285.951" width="9.07087" height="16.3401" fill="#1652cc"/>
<rect x="365.602" y="285.951" width="9.07087" height="16.3401" fill="#1652cc"/>
<rect x="374.673" y="285.951" width="9.07087" height="16.3401" fill="#263da8"/>
<rect x="383.744" y="285.951" width="9.07087" height="16.3401" fill="#263da8"/>
<rect x="392.815" y="285.951" width="9.07087" height="16.3401" fill="#263da8"/>
<rect x="401.886" y="285.951" width="9.07087" height="16.3401" fill="#263da8"/>
<rect x="410.957" y="285.951" width="9.07087" height="16.3401" fill="#263da8"/>
<rect x="420.028" y="285.951" width="9.07087" height="16.3401" fill="#263da8"/>
<rect x="429.098" y="285.951" width="9.07087" height="16.3401" fill="#263da8"/>
<rect x="438.169" y="285.951" width="9.07087" height="16.3401" fill="#263da8"/>
<rect x="447.24" y="285.951" width="9.07087" height="16.3401" fill="#263da8"/>
<rect x="456.311" y="285.951" width="9.07087" height="16.3401" fill="#263da8"/>
<rect x="465.382" y="285.951" width="9.07087" height="16.3401" fill="#263da8"/>
<rect x="474.453" y="285.951" width="9.07087" height="16.3401" fill="#263da8"/>
<rect x="483.524" y="285.951" width="9.07087" height="16.3401" fill="#263da8"/>
<rect x="492.594" y="285.951" width="9.07087" height="16.3401" fill="#263da8"/>
<rect x="501.665" y="285.951" width="9.07087" height="16.3401" fill="#263da8"/>
<rect x="184.185" y="269.611" width="9.07087" height="16.3401" fill="#73bd80"/>
<rect x="193.256" y="269.611" width="9.07087" height="16.3401" fill="#f4c53a"/>
<rect x="202.327" y="269.611" width="9.07087" height="16.3401" fill="#d0ba59"/>
<rect x="211.398" y="269.611" width="9.07087" height="16.3401" fill="#94be71"/>
<rect x="220.469" y="269.611" width="9.07087" height="16.3401" fill="#73bd80"/>
<rect x="229.539" y="269.611" width="9.07087" height="16.3401" fill="#52ba91"/>
<rect x="238.61" y="269.611" width="9.07087" height="16.3401" fill="#2db7a3"/>
<rect x="247.681" y="269.611" width="9.07087" height="16.3401" fill="#1dafb3"/>
<rect x="256.752" y="269.611" width="9.07087" height="16.3401" fill="#0da7c2"/>
<rect x="265.823" y="269.611" width="9.07087" height="16.3401" fill="#089dcc"/>
<rect x="274.894" y="269.611" width="9.07087" height="16.3401" fill="#0e8ed0"/>
<rect x="283.965" y="269.611" width="9.07087" height="16.3401" fill="#0e8ed0"/>
<rect x="293.035" y="269.611" width="9.07087" height="16.3401" fill="#1380d5"/>
<rect x="302.106" y="269.611" width="9.07087" height="16.3401" fill="#1380d5"/>
<rect x="311.177" y="269.611" width="9.07087" height="16.3401" fill="#1171d8"/>
<rect x="320.248" y="269.611" width="9.07087" height="16.3401" fill="#1063db"/>
<rect x="329.319" y="269.611" width="9.07087" height="16.3401" fill="#1063db"/>
<rect x="338.39" y="269.611" width="9.07087" height="16.3401" fill="#1652cc"/>
<rect x="347.461" y="269.611" width="9.07087" height="16.3401" fill="#1652cc"/>
<rect x="356.531" y="269.611" width="9.07087" height="16.3401" fill="#1652cc"/>
<rect x="365.602" y="269.611" width="9.07087" height="16.3401" fill="#1652cc"/>
<rect x="374.673" y="269.611" width="9.07087" height="16.3401" fill="#263da8"/>
<rect x="383.744" y="269.611" width="9.07087" height="16.3401" fill="#263da8"/>
<rect x="392.815" y="269.611" width="9.07087" height="16.3401" fill="#263da8"/>
<rect x="401.886" y="269.611" width="9.07087" height="16.3401" fill="#263da8"/>
<rect x="410.957" y="269.611" width="9.07087" height="16.3401" fill="#263da8"/>
<rect x="420.028" y="269.611" width="9.07087" height="16.3401" fill="#263da8"/>
<rect x="429.098" y="269.611" width="9.07087" height="16.3401" fill="#263da8"/>
<rect x="438.169" y="269.611" width="9.07087" height="16.3401" fill="#263da8"/>
<rect x="447.24" y="269.611" width="9.07087" height="16.3401" fill="#263da8"/>
<rect x="456.311" y="269.611" width="9.07087" height="16.3401" fill="#263da8"/>
<rect x="465.382" y="269.611" width="9.07087" height="16.3401" fill="#263da8"/>
<rect x="474.453" y="269.611" width="9.07087" height="16.3401" fill="#263da8"/>
<rect x="483.524" y="269.611" width="9.07087" height="16.3401" fill="#263da8"/>
<rect x="492.594" y="269.611" width="9.07087" height="16.3401" fill="#263da8"/>
<rect x="501.665" y="269.611" width="9.07087" height="16.3401" fill="#263da8"/>
<rect x="184.185" y="253.271" width="9.07087" height="16.3401" fill="#1380d5"/>
<rect x="193.256" y="253.271" width="9.07087" height="16.3401" fill="#089dcc"/>
<rect x="202.327" y="253.271" width="9.07087" height="16.3401" fill="#089dcc"/>
<rect x="211.398" y="253.271" width="9.07087" height="16.3401" fill="#0e8ed0"/>
<rect x="220.469" y="253.271" width="9.07087" height="16.3401" fill="#0e8ed0"/>
<rect x="229.539" y="253.271" width="9.07087" height="16.3401" fill="#1380d5"/>
<rect x="238.61" y="253.271" width="9.07087" height="16.3401" fill="#1380d5"/>
<rect x="247.681" y="253.271" width="9.07087" height="16.3401" fill="#1171d8"/>
<rect x="256.752" y="253.271" width="9.07087" height="16.3401" fill="#1171d8"/>
<rect x="265.823" y="253.271" width="9.07087" height="16.3401" fill="#1063db"/>
<rect x="274.894" y="253.271" width="9.07087" height="16.3401" fill="#1063db"/>
<rect x="283.965" y="253.271" width="9.07087" height="16.3401" fill="#1063db"/>
<rect x="293.035" y="253.271" width="9.07087" height="16.3401" fill="#1063db"/>
<rect x="302.106" y="253.271" width="9.07087" height="16.3401" fill="#1652cc"/>
<rect x="311.177" y="253.271" width="9.07087" height="16.3401" fill="#1652cc"/>
<rect x="320.248" y="253.271" width="9.07087" height="16.3401" fill="#1652cc"/>
<rect x="329.319" y="253.271" width="9.07087" height="16.3401" fill="#1652cc"/>
<rect x="338.39" y="253.271" width="9.07087" height="16.3401" fill="#263da8"/>
<rect x="347.461" y="253.271" width="9.07087" height="16.3401" fill="#263da8"/>
<rect x="356.531" y="253.271" width="9.07087" height="16.3401" fill="#1652cc"/>
<rect x="365.602" y="253.271" width="9.07087" height="16.3401" fill="#263da8"/>
<rect x="374.673" y="253.271" width="9.07087" height="16.3401" fill="#263da8"/>
<rect x="383.744" y="253.271" width="9.07087" height="16.3401" fill="#263da8"/>
<rect x="392.815" y="253.271" width="9.07087" height="16.3401" fill="#263da8"/>
<rect x="401.886" y="253.271" width="9.07087" height="16.3401" fill="#263da8"/>
<rect x="410.957" y="253.271" width="9.07087" height="16.3401" fill="#263da8"/>
<rect x="420.028" y="253.271" width="9.07087" height="16.3401" fill="#263da8"/>
<rect x="429.098" y="253.271" width="9.07087" height="16.3401" fill="#263da8"/>
<rect x="438.169" y="253.271" width="9.07087" height="16.3401" fill="#263da8"/>
<rect x="447.24" y="253.271" width="9.07087" height="16.3401" fill="#263da8"/>
<rect x="456.311" y="253.271" width="9.07087" height="16.3401" fill="#263da8"/>
<rect x="465.382" y="253.271" width="9.07087" height="16.3401" fill="#263da8"/>
<rect x="474.453" y="253.271" width="9.07087" height="16.3401" fill="#263da8"/>
<rect x="483.524" y="253.271" width="9.07087" height="16.3401" fill="#263da8"/>
<rect x="492.594" y="253.271" width="9.07087" height="16.3401" fill="#263da8"/>
<rect x="501.665" y="253.271" width="9.07087" height="16.3401" fill="#263da8"/>
<rect x="184.185" y="236.931" width="9.07087" height="16.3401" fill="#263da8"/>
<rect x="193.256" y="236.931" width="9.07087" height="16.3401" fill="#263da8"/>
<rect x="202.327" y="236.931" width="9.07087" height="16.3401" fill="#263da8"/>
<rect x="211.398" y="236.931" width="9.07087" height="16.3401" fill="#263da8"/>
<rect x="220.469" y="236.931" width="9.07087" height="16.3401" fill="#263da8"/>
<rect x="229.539" y="236.931" width="9.07087" height="16.3401" fill="#263da8"/>
<rect x="238.61" y="236.931" width="9.07087" height="16.3401" fill="#263da8"/>
<rect x="247.681" y="236.931" width="9.07087" height="16.3401" fill="#263da8"/>
<rect x="256.752" y="236.931" width="9.07087" height="16.3401" fill="#263da8"/>
<rect x="265.823" y="236.931" width="9.07087" height="16.3401" fill="#263da8"/>
<rect x="274.894" y="236.931" width="9.07087" height="16.3401" fill="#263da8"/>
<rect x="283.965" y="236.931" width="9.07087" height="16.3401" fill="#263da8"/>
<rect x="293.035" y="236.931" width="9.07087" height="16.3401" fill="#263da8"/>
<rect x="302.106" y="236.931" width="9.07087" height="16.3401" fill="#263da8"/>
<rect x="311.177" y="236.931" width="9.07087" height="16.3401" fill="#263da8"/>
<rect x="320.248" y="236.931" width="9.07087" height="16.3401" fill="#263da8"/>
<rect x="329.319" y="236.931" width="9.07087" height="16.3401" fill="#263da8"/>
<rect x="338.39" y="236.931" width="9.07087" height="16.3401" fill="#263da8"/>
<rect x="347.461" y="236.931" width="9.07087" height="16.3401" fill="#263da8"/>
<rect x="356.531" y="236.931" width="9.07087" height="16.3401" fill="#263da8"/>
<rect x="365.602" y="236.931" width="9.07087" height="16.3401" fill="#263da8"/>
<rect x="374.673" y="236.931" width="9.07087" height="16.3401" fill="#263da8"/>
<rect x="383.744" y="236.931" width="9.07087" height="16.3401" fill="#263da8"/>
<rect x="392.815" y="236.931" width="9.07087" height="16.3401" fill="#263da8"/>
<rect x="401.886" y="236.931" width="9.07087" height="16.3401" fill="#263da8"/>
<rect x="410.957" y="236.931" width="9.07087" height="16.3401" fill="#263da8"/>
<rect x="420.028" y="236.931" width="9.07087" height="16.3401" fill="#263da8"/>
<rect x="429.098" y="236.931" width="9.07087" height="16.3401" fill="#263da8"/>
<rect x="438.169" y="236.931" width="9.07087" height="16.3401" fill="#263da8"/>
<rect x="447.24" y="236.931" width="9.07087" height="16.3401" fill="#263da8"/>
<rect x="456.311" y="236.931" width="9.07087" height="16.3401" fill="#263da8"/>
<rect x="465.382" y="236.931" width="9.07087" height="16.3401" fill="#263da8"/>
<rect x="474.453" y="236.931" width="9.07087" height="16.3401" fill="#263da8"/>
<rect x="483.524" y="236.931" width="9.07087" height="16.3401" fill="#263da8"/>
<rect x="492.594" y="236.931" width="9.07087" height="16.3401" fill="#263da8"/>
<rect x="501.665" y="236.931" width="9.07087" height="16.3401" fill="#263da8"/>
<rect x="184.185" y="220.591" width="9.07087" height="16.3401" fill="#263da8"/>
<rect x="193.256" y="220.591" width="9.07087" height="16.3401" fill="#263da8"/>
<rect x="202.327" y="220.591" width="9.07087" height="16.3401" fill="#263da8"/>
<rect x="211.398" y="220.591" width="9.07087" height="16.3401" fill="#263da8"/>
<rect x="220.469" y="220.591" width="9.07087" height="16.3401" fill="#263da8"/>
<rect x="229.539" y="220.591" width="9.07087" height="16.3401" fill="#263da8"/>
<rect x="238.61" y="220.591" width="9.07087" height="16.3401" fill="#263da8"/>
<rect x="247.681" y="220.591" width="9.07087" height="16.3401" fill="#263da8"/>
<rect x="256.752" y="220.591" width="9.07087" height="16.3401" fill="#263da8"/>
<rect x="265.823" y="220.591" width="9.07087" height="16.3401" fill="#263da8"/>
<rect x="274.894" y="220.591" width="9.07087" height="16.3401" fill="#263da8"/>
<rect x="283.965" y="220.591" width="9.07087" height="16.3401" fill="#263da8"/>
<rect x="293.035" y="220.591" width="9.07087" height="16.3401" fill="#263da8"/>
<rect x="302.106" y="220.591" width="9.07087" height="16.3401" fill="#263da8"/>
<rect x="311.177" y="220.591" width="9.07087" height="16.3401" fill="#263da8"/>
<rect x="320.248" y="220.591" width="9.07087" height="16.3401" fill="#263da8"/>
<rect x="329.319" y="220.591" width="9.07087" height="16.3401" fill="#263da8"/>
<rect x="338.39" y="220.591" width="9.07087" height="16.3401" fill="#263da8"/>
<rect x="347.461" y="220.591" width="9.07087" height="16.3401" fill="#263da8"/>
<rect x="356.531" y="220.591" width="9.07087" height="16.3401" fill="#263da8"/>
<rect x="365.602" y="220.591" width="9.07087" height="16.3401" fill="#263da8"/>
<rect x="374.673" y="220.591" width="9.07087" height="16.3401" fill="#263da8"/>
<rect x="383.744" y="220.591" width="9.07087" height="16.3401" fill="#263da8"/>
<rect x="392.815" y="220.591" width="9.07087" height="16.3401" fill="#263da8"/>
<rect x="401.886" y="220.591" width="9.07087" height="16.3401" fill="#263da8"/>
<rect x="410.957" y="220.591" width="9.07087" height="16.3401" fill="#263da8"/>
<rect x="420.028" y="220.591" width="9.07087" height="16.3401" fill="#263da8"/>
<rect x="429.098" y="220.591" width="9.07087" height="16.3401" fill="#263da8"/>
<rect x="438.169" y="220.591" width="9.07087" height="16.3401" fill="#263da8"/>
<rect x="447.24" y="220.591" width="9.07087" height="16.3401" fill="#263da8"/>
<rect x="456.311" y="220.591" width="9.07087" height="16.3401" fill="#263da8"/>
<rect x="465.382" y="220.591" width="9.07087" height="16.3401" fill="#263da8"/>
<rect x="474.453" y="220.591" width="9.07087" height="16.3401" fill="#263da8"/>
<rect x="483.524" y="220.591" width="9.07087" height="16.3401" fill="#263da8"/>
<rect x="492.594" y="220.591" width="9.07087" height="16.3401" fill="#263da8"/>
<rect x="501.665" y="220.591" width="9.07087" height="16.3401" fill="#263da8"/>
<rect x="513.571" y="351.311" width="25.5118" height="16.3401" fill="#263da8"/>
<rect x="513.571" y="334.971" width="25.5118" height="16.3401" fill="#1652cc"/>
<rect x="513.571" y="318.631" width="25.5118" height="16.3401" fill="#1063db"/>
<rect x="513.571" y="302.291" width="25.5118" height="16.3401" fill="#1171d8"/>
<rect x="513.571" y="285.951" width="25.5118" height="16.3401" fill="#1380d5"/>
<rect x="513.571" y="269.611" width="25.5118" height="16.3401" fill="#0e8ed0"/>
<rect x="513.571" y="253.271" width="25.5118" height="16.3401" fill="#089dcc"/>
<rect x="513.571" y="236.931" width="25.5118" height="16.3401" fill="#0da7c2"/>
<rect x="513.571" y="220.591" width="25.5118" height="16.3401" fill="#1dafb3"/>
<rect x="513.571" y="204.251" width="25.5118" height="16.3401" fill="#2db7a3"/>
<rect x="513.571" y="187.911" width="25.5118" height="16.3401" fill="#52ba91"/>
<rect x="513.571" y="171.571" width="25.5118" height="16.3401" fill="#73bd80"/>
<rect x="513.571" y="155.231" width="25.5118" height="16.3401" fill="#94be71"/>
<rect x="513.571" y="138.891" width="25.5118" height="16.3401" fill="#b2bc65"/>
<rect x="513.571" y="122.55" width="25.5118" height="16.3401" fill="#d0ba59"/>
<rect x="513.571" y="106.21" width="25.5118" height="16.3401" fill="#e1bf4a"/>
<rect x="513.571" y="89.8703" width="25.5118" height="16.3401" fill="#f4c53a"/>
<rect x="513.571" y="73.5303" width="25.5118" height="16.3401" fill="#fcd12b"/>
<rect x="513.571" y="57.1902" width="25.5118" height="16.3401" fill="#fae61c"/>
<rect x="513.571" y="40.8502" width="25.5118" height="16.3401" fill="#f9f90e"/>
<path d="M539.083,367.651v -326.801" fill="none" stroke="black"/>
<path d="M525.476,367.651h 13.6063" fill="none" stroke="black"/>
<path d="M525.476,304.141h 13.6063" fill="none" stroke="black"/>
<path d="M525.476,240.632h 13.6063" fill="none" stroke="black"/>
<path d="M525.476,177.122h 13.6063" fill="none" stroke="black"/>
<path d="M525.476,113.612h 13.6063" fill="none" stroke="black"/>
<path d="M525.476,50.1017h 13.6063" fill="none" stroke="black"/>
<path d="M525.476,50.1017h 13.6063" fill="none" stroke="black"/>
<text xml:space="preserve" x="541.853" y="372.269" fill="black" font-size="13.617" font-family="Helvetica">0</text>
<text xml:space="preserve" x="541.853" y="309.04" fill="black" font-size="13.617" font-family="Helvetica">2000</text>
<text xml:space="preserve" x="541.853" y="245.101" fill="black" font-size="13.617" font-family="Helvetica">4000</text>
<text xml:space="preserve" x="541.853" y="181.872" fill="black" font-size="13.617" font-family="Helvetica">6000</text>
<text xml:space="preserve" x="541.853" y="117.933" fill="black" font-size="13.617" font-family="Helvetica">8000</text>
<text xml:space="preserve" x="541.853" y="54.7037" fill="black" font-size="13.617" font-family="Helvetica">10000</text>
<text xml:space="preserve" x="561.746" y="31.9697" fill="black" font-size="9.24468" font-family="Helvetica">6</text>
<text xml:space="preserve" x="546.826" y="39.0741" fill="black" font-size="13.617" font-family="Helvetica">10</text>
<text xml:space="preserve" x="539.012" y="39.0741" fill="black" font-size="13.617" font-family="Times">&#0215;</text>
<text xml:space="preserve" x="156.086" y="19.8923" fill="black" font-size="19.7796" font-family="Helvetica">Reco-Jet pT vs. mu_average</text>
<path d="M57.1929,367.651h 453.543" fill="none" stroke="black"/>
<path d="M94.2169,357.847v 9.80404" fill="none" stroke="black"/>
<path d="M103.473,362.749v 4.90202" fill="none" stroke="black"/>
<path d="M112.729,362.749v 4.90202" fill="none" stroke="black"/>
<path d="M121.985,362.749v 4.90202" fill="none" stroke="black"/>
<path d="M131.241,362.749v 4.90202" fill="none" stroke="black"/>
<path d="M140.497,357.847v 9.80404" fill="none" stroke="black"/>
<path d="M149.753,362.749v 4.90202" fill="none" stroke="black"/>
<path d="M159.009,362.749v 4.90202" fill="none" stroke="black"/>
<path d="M168.265,362.749v 4.90202" fill="none" stroke="black"/>
<path d="M177.521,362.749v 4.90202" fill="none" stroke="black"/>
<path d="M186.777,357.847v 9.80404" fill="none" stroke="black"/>
<path d="M196.033,362.749v 4.90202" fill="none" stroke="black"/>
<path d="M205.289,362.749v 4.90202" fill="none" stroke="black"/>
<path d="M214.545,362.749v 4.90202" fill="none" stroke="black"/>
<path d="M223.801,362.749v 4.90202" fill="none" stroke="black"/>
<path d="M233.057,357.847v 9.80404" fill="none" stroke="black"/>
<path d="M242.313,362.749v 4.90202" fill="none" stroke="black"/>
<path d="M251.569,362.749v 4.90202" fill="none" stroke="black"/>
<path d="M260.825,362.749v 4.90202" fill="none" stroke="black"/>
<path d="M270.081,362.749v 4.90202" fill="none" stroke="black"/>
<path d="M279.337,357.847v 9.80404" fill="none" stroke="black"/>
<path d="M288.593,362.749v 4.90202" fill="none" stroke="black"/>
<path d="M297.849,362.749v 4.90202" fill="none" stroke="black"/>
<path d="M307.105,362.749v 4.90202" fill="none" stroke="black"/>
<path d="M316.361,362.749v 4.90202" fill="none" stroke="black"/>
<path d="M325.617,357.847v 9.80404" fill="none" stroke="black"/>
<path d="M334.872,362.749v 4.90202" fill="none" stroke="black"/>
<path d="M344.128,362.749v 4.90202" fill="none" stroke="black"/>
<path d="M353.384,362.749v 4.90202" fill="none" stroke="black"/>
<path d="M362.64,362.749v 4.90202" fill="none" stroke="black"/>
<path d="M371.896,357.847v 9.80404" fill="none" stroke="black"/>
<path d="M381.152,362.749v 4.90202" fill="none" stroke="black"/>
<path d="M390.408,362.749v 4.90202" fill="none" stroke="black"/>
<path d="M399.664,362.749v 4.90202" fill="none" stroke="black"/>
<path d="M408.92,362.749v 4.90202" fill="none" stroke="black"/>
<path d="M418.176,357.847v 9.80404" fill="none" stroke="black"/>
<path d="M427.432,362.749v 4.90202" fill="none" stroke="black"/>
<path d="M436.688,362.749v 4.90202" fill="none" stroke="black"/>
<path d="M445.944,362.749v 4.90202" fill="none" stroke="black"/>
<path d="M455.2,362.749v 4.90202" fill="none" stroke="black"/>
<path d="M464.456,357.847v 9.80404" fill="none" stroke="black"/>
<path d="M473.712,362.749v 4.90202" fill="none" stroke="black"/>
<path d="M482.968,362.749v 4.90202" fill="none" stroke="black"/>
<path d="M492.224,362.749v 4.90202" fill="none" stroke="black"/>
<path d="M501.48,362.749v 4.90202" fill="none" stroke="black"/>
<path d="M510.736,357.847v 9.80404" fill="none" stroke="black"/>
<path d="M94.2169,357.847v 9.80404" fill="none" stroke="black"/>
<path d="M84.9609,362.749v 4.90202" fill="none" stroke="black"/>
<path d="M75.7049,362.749v 4.90202" fill="none" stroke="black"/>
<path d="M66.4489,362.749v 4.90202" fill="none" stroke="black"/>
<path d="M510.736,357.847v 9.80404" fill="none" stroke="black"/>
<text xml:space="preserve" x="90.0151" y="380.795" fill="black" font-size="13.617" font-family="Helvetica">5</text>
<text xml:space="preserve" x="132.641" y="380.795" fill="black" font-size="13.617" font-family="Helvetica">10</text>
<text xml:space="preserve" x="178.82" y="380.795" fill="black" font-size="13.617" font-family="Helvetica">15</text>
<text xml:space="preserve" x="224.998" y="380.795" fill="black" font-size="13.617" font-family="Helvetica">20</text>
<text xml:space="preserve" x="271.177" y="380.795" fill="black" font-size="13.617" font-family="Helvetica">25</text>
<text xml:space="preserve" x="317.355" y="380.795" fill="black" font-size="13.617" font-family="Helvetica">30</text>
<text xml:space="preserve" x="363.534" y="380.795" fill="black" font-size="13.617" font-family="Helvetica">35</text>
<text xml:space="preserve" x="409.712" y="380.795" fill="black" font-size="13.617" font-family="Helvetica">40</text>
<text xml:space="preserve" x="456.601" y="380.795" fill="black" font-size="13.617" font-family="Helvetica">45</text>
<text xml:space="preserve" x="502.779" y="380.795" fill="black" font-size="13.617" font-family="Helvetica">50</text>
<text xml:space="preserve" x="435.998" y="392.872" fill="black" font-size="13.617" font-family="Helvetica">mu_average</text>
<path d="M57.1929,367.651v -326.801" fill="none" stroke="black"/>
<path d="M70.7992,367.651h -13.6063" fill="none" stroke="black"/>
<path d="M63.9961,359.481h -6.80315" fill="none" stroke="black"/>
<path d="M63.9961,351.311h -6.80315" fill="none" stroke="black"/>
<path d="M63.9961,343.141h -6.80315" fill="none" stroke="black"/>
<path d="M70.7992,334.971h -13.6063" fill="none" stroke="black"/>
<path d="M63.9961,326.801h -6.80315" fill="none" stroke="black"/>
<path d="M63.9961,318.631h -6.80315" fill="none" stroke="black"/>
<path d="M63.9961,310.461h -6.80315" fill="none" stroke="black"/>
<path d="M70.7992,302.291h -13.6063" fill="none" stroke="black"/>
<path d="M63.9961,294.121h -6.80315" fill="none" stroke="black"/>
<path d="M63.9961,285.951h -6.80315" fill="none" stroke="black"/>
<path d="M63.9961,277.781h -6.80315" fill="none" stroke="black"/>
<path d="M70.7992,269.611h -13.6063" fill="none" stroke="black"/>
<path d="M63.9961,261.441h -6.80315" fill="none" stroke="black"/>
<path d="M63.9961,253.271h -6.80315" fill="none" stroke="black"/>
<path d="M63.9961,245.101h -6.80315" fill="none" stroke="black"/>
<path d="M70.7992,236.931h -13.6063" fill="none" stroke="black"/>
<path d="M63.9961,228.761h -6.80315" fill="none" stroke="black"/>
<path d="M63.9961,220.591h -6.80315" fill="none" stroke="black"/>
<path d="M63.9961,212.421h -6.80315" fill="none" stroke="black"/>
<path d="M70.7992,204.251h -13.6063" fill="none" stroke="black"/>
<path d="M63.9961,196.081h -6.80315" fill="none" stroke="black"/>
<path d="M63.9961,187.911h -6.80315" fill="none" stroke="black"/>
<path d="M63.9961,179.741h -6.80315" fill="none" stroke="black"/>
<path d="M70.7992,171.571h -13.6063" fill="none" stroke="black"/>
<path d="M63.9961,163.401h -6.80315" fill="none" stroke="black"/>
<path d="M63.9961,155.231h -6.80315" fill="none" stroke="black"/>
<path d="M63.9961,147.061h -6.80315" fill="none" stroke="black"/>
<path d="M70.7992,138.891h -13.6063" fill="none" stroke="black"/>
<path d="M63.9961,130.721h -6.80315" fill="none" stroke="black"/>
<path d="M63.9961,122.55h -6.80315" fill="none" stroke="black"/>
<path d="M63.9961,114.38h -6.80315" fill="none" stroke="black"/>
<path d="M70.7992,106.21h -13.6063" fill="none" stroke="black"/>
<path d="M63.9961,98.0404h -6.80315" fill="none" stroke="black"/>
<path d="M63.9961,89.8703h -6.80315" fill="none" stroke="black"/>
<path d="M63.9961,81.7003h -6.80315" fill="none" stroke="black"/>
<path d="M70.7992,73.5303h -13.6063" fill="none" stroke="black"/>
<path d="M63.9961,65.3603h -6.80315" fill="none" stroke="black"/>
<path d="M63.9961,57.1902h -6.80315" fill="none" stroke="black"/>
<path d="M63.9961,49.0202h -6.80315" fill="none" stroke="black"/>
<path d="M70.7992,40.8502h -13.6063" fill="none" stroke="black"/>
<text xml:space="preserve" x="46.6784" y="372.269" fill="black" font-size="13.617" font-family="Helvetica">0</text>
<text xml:space="preserve" x="38.8636" y="339.589" fill="black" font-size="13.617" font-family="Helvetica">20</text>
<text xml:space="preserve" x="38.8636" y="306.909" fill="black" font-size="13.617" font-family="Helvetica">40</text>
<text xml:space="preserve" x="38.8636" y="274.229" fill="black" font-size="13.617" font-family="Helvetica">60</text>
<text xml:space="preserve" x="38.8636" y="241.549" fill="black" font-size="13.617" font-family="Helvetica">80</text>
<text xml:space="preserve" x="31.7593" y="208.869" fill="black" font-size="13.617" font-family="Helvetica">100</text>
<text xml:space="preserve" x="31.7593" y="176.189" fill="black" font-size="13.617" font-family="Helvetica">120</text>
<text xml:space="preserve" x="31.7593" y="143.508" fill="black" font-size="13.617" font-family="Helvetica">140</text>
<text xml:space="preserve" x="31.7593" y="110.828" fill="black" font-size="13.617" font-family="Helvetica">160</text>
<text xml:space="preserve" x="31.7593" y="78.1481" fill="black" font-size="13.617" font-family="Helvetica">180</text>
<text xml:space="preserve" x="31.7593" y="45.468" fill="black" font-size="13.617" font-family="Helvetica">200</text>
<g transform="rotate(-90,18.2609,75.3064)">
<text xml:space="preserve" x="18.2609" y="75.3064" fill="black" font-size="13.617" font-family="Helvetica">jet pT</text>
</g>
<rect x="442.705" y="26.5526" width="113.386" height="98.0404" fill="white"/>
<path d="M442.705,124.593h 113.386" fill="none" stroke="black"/>
<path d="M556.091,124.593v -98.0404" fill="none" stroke="black"/>
<path d="M556.091,26.5526h -113.386" fill="none" stroke="black"/>
<path d="M442.705,26.5526v 98.0404" fill="none" stroke="black"/>
<text xml:space="preserve" x="450.207" y="37.6532" fill="black" font-size="11.9157" font-family="Helvetica">Reco-Jet pT vs. mu</text>
<path d="M442.705,42.8927h 113.386" fill="none" stroke="black"/>
<text xml:space="preserve" x="448.076" y="54.7037" fill="black" font-size="11.6791" font-family="Helvetica">Entries </text>
<text xml:space="preserve" x="503.49" y="54.7037" fill="black" font-size="11.6791" font-family="Helvetica"> 1736560</text>
<text xml:space="preserve" x="448.076" y="71.0438" fill="black" font-size="11.6791" font-family="Helvetica">Mean x </text>
<text xml:space="preserve" x="515.567" y="71.7542" fill="black" font-size="11.6791" font-family="Helvetica">  21.24</text>
<text xml:space="preserve" x="448.076" y="86.6734" fill="black" font-size="11.6791" font-family="Helvetica">Mean y </text>
<text xml:space="preserve" x="515.567" y="87.3838" fill="black" font-size="11.6791" font-family="Helvetica">  45.69</text>
<text xml:space="preserve" x="448.076" y="103.724" fill="black" font-size="11.6791" font-family="Helvetica">Std Dev x </text>
<text xml:space="preserve" x="515.567" y="103.724" fill="black" font-size="11.6791" font-family="Helvetica">  5.725</text>
<text xml:space="preserve" x="448.076" y="119.354" fill="black" font-size="11.6791" font-family="Helvetica">Std Dev y </text>
<text xml:space="preserve" x="515.567" y="120.774" fill="black" font-size="11.6791" font-family="Helvetica">  12.22</text>
<text xml:space="preserve" x="156.086" y="19.8923" fill="black" font-size="19.7796" font-family="Helvetica">Reco-Jet pT vs. mu_average</text></svg>
