<?xml version="1.0" standalone="no"?>
<svg width="567.429" height="409.002" viewBox="0 0 567.429 409.002" xmlns="http://www.w3.org/2000/svg" shape-rendering="crispEdges">
<title>
Leadreco_R10_AndTrimmed.svg
</title>
<desc>
Creator: ROOT Version 6.18/04
CreationDate: Fri Oct  9 01:19:42 2020</desc>
<defs>
</defs>
<rect x="0.5" y="0" width="566.929" height="408.502" fill="white"/>
<rect x="57.1929" y="40.8502" width="453.543" height="326.801" fill="white"/>
<rect x="57.1929" y="40.8502" width="453.543" height="326.801" fill="none" stroke="black"/>
<path d="M388.28,330.553v -132.745" fill="none" stroke="#000099"/>
<path d="M388.28,192.124v -32.0889" fill="none" stroke="#000099"/>
<path d="M383.744,194.966h 1.69368" fill="none" stroke="#000099"/>
<path d="M391.121,194.966h 1.69368" fill="none" stroke="#000099"/>
<g stroke="#ff0000" stroke-width="1" fill="#ff0000">
<circle cx="388.28" cy="194.966" r="2.84175"/>
</g>
<path d="M397.35,107.683v -15.2213" fill="none" stroke="#000099"/>
<path d="M397.35,86.7779v -10.6393" fill="none" stroke="#000099"/>
<path d="M392.815,89.6196h 1.69368" fill="none" stroke="#000099"/>
<path d="M400.192,89.6196h 1.69368" fill="none" stroke="#000099"/>
<g stroke="#ff0000" stroke-width="1" fill="#ff0000">
<circle cx="397.35" cy="89.6196" r="2.84175"/>
</g>
<path d="M406.421,107.37v -15.7182" fill="none" stroke="#000099"/>
<path d="M406.421,85.968v -10.9129" fill="none" stroke="#000099"/>
<path d="M401.886,88.8098h 1.69368" fill="none" stroke="#000099"/>
<path d="M409.263,88.8098h 1.69368" fill="none" stroke="#000099"/>
<g stroke="#ff0000" stroke-width="1" fill="#ff0000">
<circle cx="406.421" cy="88.8098" r="2.84175"/>
</g>
<path d="M415.492,172.371v -32.1867" fill="none" stroke="#000099"/>
<path d="M415.492,134.501v -18.1513" fill="none" stroke="#000099"/>
<path d="M410.957,137.343h 1.69368" fill="none" stroke="#000099"/>
<path d="M418.334,137.343h 1.69368" fill="none" stroke="#000099"/>
<g stroke="#ff0000" stroke-width="1" fill="#ff0000">
<circle cx="415.492" cy="137.343" r="2.84175"/>
</g>
<path d="M424.563,173.152v -27.4334" fill="none" stroke="#000099"/>
<path d="M424.563,140.035v -16.377" fill="none" stroke="#000099"/>
<path d="M420.028,142.877h 1.69368" fill="none" stroke="#000099"/>
<path d="M427.405,142.877h 1.69368" fill="none" stroke="#000099"/>
<g stroke="#ff0000" stroke-width="1" fill="#ff0000">
<circle cx="424.563" cy="142.877" r="2.84175"/>
</g>
<path d="M433.634,207.256v -40.5423" fill="none" stroke="#000099"/>
<path d="M433.634,161.03v -20.8007" fill="none" stroke="#000099"/>
<path d="M429.098,163.872h 1.69368" fill="none" stroke="#000099"/>
<path d="M436.476,163.872h 1.69368" fill="none" stroke="#000099"/>
<g stroke="#ff0000" stroke-width="1" fill="#ff0000">
<circle cx="433.634" cy="163.872" r="2.84175"/>
</g>
<path d="M442.705,177.49v -34.7012" fill="none" stroke="#000099"/>
<path d="M442.705,137.106v -19.0069" fill="none" stroke="#000099"/>
<path d="M438.169,139.947h 1.69368" fill="none" stroke="#000099"/>
<path d="M445.546,139.947h 1.69368" fill="none" stroke="#000099"/>
<g stroke="#ff0000" stroke-width="1" fill="#ff0000">
<circle cx="442.705" cy="139.947" r="2.84175"/>
</g>
<path d="M451.776,220.389v -41.1702" fill="none" stroke="#000099"/>
<path d="M451.776,173.535v -20.9789" fill="none" stroke="#000099"/>
<path d="M447.24,176.377h 1.69368" fill="none" stroke="#000099"/>
<path d="M454.617,176.377h 1.69368" fill="none" stroke="#000099"/>
<g stroke="#ff0000" stroke-width="1" fill="#ff0000">
<circle cx="451.776" cy="176.377" r="2.84175"/>
</g>
<path d="M460.846,174.847v -31.3321" fill="none" stroke="#000099"/>
<path d="M460.846,137.831v -17.848" fill="none" stroke="#000099"/>
<path d="M456.311,140.673h 1.69368" fill="none" stroke="#000099"/>
<path d="M463.688,140.673h 1.69368" fill="none" stroke="#000099"/>
<g stroke="#ff0000" stroke-width="1" fill="#ff0000">
<circle cx="460.846" cy="140.673" r="2.84175"/>
</g>
<path d="M469.917,168.931v -32.1337" fill="none" stroke="#000099"/>
<path d="M469.917,131.113v -18.1327" fill="none" stroke="#000099"/>
<path d="M465.382,133.955h 1.69368" fill="none" stroke="#000099"/>
<path d="M472.759,133.955h 1.69368" fill="none" stroke="#000099"/>
<g stroke="#ff0000" stroke-width="1" fill="#ff0000">
<circle cx="469.917" cy="133.955" r="2.84175"/>
</g>
<path d="M478.988,308.747v -20.4542" fill="none" stroke="#000099"/>
<path d="M478.988,282.609v -13.3354" fill="none" stroke="#000099"/>
<path d="M474.453,285.451h 1.69368" fill="none" stroke="#000099"/>
<path d="M481.83,285.451h 1.69368" fill="none" stroke="#000099"/>
<g stroke="#ff0000" stroke-width="1" fill="#ff0000">
<circle cx="478.988" cy="285.451" r="2.84175"/>
</g>
<path d="M488.059,202.423v -40.2216" fill="none" stroke="#000099"/>
<path d="M488.059,156.518v -20.7087" fill="none" stroke="#000099"/>
<path d="M483.524,159.36h 1.69368" fill="none" stroke="#000099"/>
<path d="M490.901,159.36h 1.69368" fill="none" stroke="#000099"/>
<g stroke="#ff0000" stroke-width="1" fill="#ff0000">
<circle cx="488.059" cy="159.36" r="2.84175"/>
</g>
<path d="M497.13,312.189v -108.746" fill="none" stroke="#000099"/>
<path d="M497.13,197.76v -30.8221" fill="none" stroke="#000099"/>
<path d="M492.594,200.602h 1.69368" fill="none" stroke="#000099"/>
<path d="M499.972,200.602h 1.69368" fill="none" stroke="#000099"/>
<g stroke="#ff0000" stroke-width="1" fill="#ff0000">
<circle cx="497.13" cy="200.602" r="2.84175"/>
</g>
<path d="M506.201,328.806v -16.8877" fill="none" stroke="#000099"/>
<path d="M506.201,306.234v -11.5417" fill="none" stroke="#000099"/>
<path d="M501.665,309.076h 1.69368" fill="none" stroke="#000099"/>
<path d="M509.043,309.076h 1.69368" fill="none" stroke="#000099"/>
<g stroke="#ff0000" stroke-width="1" fill="#ff0000">
<circle cx="506.201" cy="309.076" r="2.84175"/>
</g>
<path d="M57.1929,367.651h 453.543" fill="none" stroke="black"/>
<path d="M81.0636,357.847v 9.80404" fill="none" stroke="black"/>
<path d="M92.999,362.749v 4.90202" fill="none" stroke="black"/>
<path d="M104.934,362.749v 4.90202" fill="none" stroke="black"/>
<path d="M116.87,362.749v 4.90202" fill="none" stroke="black"/>
<path d="M128.805,357.847v 9.80404" fill="none" stroke="black"/>
<path d="M140.74,362.749v 4.90202" fill="none" stroke="black"/>
<path d="M152.676,362.749v 4.90202" fill="none" stroke="black"/>
<path d="M164.611,362.749v 4.90202" fill="none" stroke="black"/>
<path d="M176.546,357.847v 9.80404" fill="none" stroke="black"/>
<path d="M188.482,362.749v 4.90202" fill="none" stroke="black"/>
<path d="M200.417,362.749v 4.90202" fill="none" stroke="black"/>
<path d="M212.352,362.749v 4.90202" fill="none" stroke="black"/>
<path d="M224.288,357.847v 9.80404" fill="none" stroke="black"/>
<path d="M236.223,362.749v 4.90202" fill="none" stroke="black"/>
<path d="M248.159,362.749v 4.90202" fill="none" stroke="black"/>
<path d="M260.094,362.749v 4.90202" fill="none" stroke="black"/>
<path d="M272.029,357.847v 9.80404" fill="none" stroke="black"/>
<path d="M283.965,362.749v 4.90202" fill="none" stroke="black"/>
<path d="M295.9,362.749v 4.90202" fill="none" stroke="black"/>
<path d="M307.835,362.749v 4.90202" fill="none" stroke="black"/>
<path d="M319.771,357.847v 9.80404" fill="none" stroke="black"/>
<path d="M331.706,362.749v 4.90202" fill="none" stroke="black"/>
<path d="M343.641,362.749v 4.90202" fill="none" stroke="black"/>
<path d="M355.577,362.749v 4.90202" fill="none" stroke="black"/>
<path d="M367.512,357.847v 9.80404" fill="none" stroke="black"/>
<path d="M379.447,362.749v 4.90202" fill="none" stroke="black"/>
<path d="M391.383,362.749v 4.90202" fill="none" stroke="black"/>
<path d="M403.318,362.749v 4.90202" fill="none" stroke="black"/>
<path d="M415.253,357.847v 9.80404" fill="none" stroke="black"/>
<path d="M427.189,362.749v 4.90202" fill="none" stroke="black"/>
<path d="M439.124,362.749v 4.90202" fill="none" stroke="black"/>
<path d="M451.059,362.749v 4.90202" fill="none" stroke="black"/>
<path d="M462.995,357.847v 9.80404" fill="none" stroke="black"/>
<path d="M474.93,362.749v 4.90202" fill="none" stroke="black"/>
<path d="M486.866,362.749v 4.90202" fill="none" stroke="black"/>
<path d="M498.801,362.749v 4.90202" fill="none" stroke="black"/>
<path d="M510.736,357.847v 9.80404" fill="none" stroke="black"/>
<path d="M81.0636,357.847v 9.80404" fill="none" stroke="black"/>
<path d="M69.1283,362.749v 4.90202" fill="none" stroke="black"/>
<path d="M57.1929,362.749v 4.90202" fill="none" stroke="black"/>
<text xml:space="preserve" x="72.9646" y="380.795" fill="black" font-size="13.617" font-family="Helvetica">20</text>
<text xml:space="preserve" x="120.564" y="380.795" fill="black" font-size="13.617" font-family="Helvetica">40</text>
<text xml:space="preserve" x="168.163" y="380.795" fill="black" font-size="13.617" font-family="Helvetica">60</text>
<text xml:space="preserve" x="216.473" y="380.795" fill="black" font-size="13.617" font-family="Helvetica">80</text>
<text xml:space="preserve" x="260.52" y="380.795" fill="black" font-size="13.617" font-family="Helvetica">100</text>
<text xml:space="preserve" x="308.119" y="380.795" fill="black" font-size="13.617" font-family="Helvetica">120</text>
<text xml:space="preserve" x="355.719" y="380.795" fill="black" font-size="13.617" font-family="Helvetica">140</text>
<text xml:space="preserve" x="403.318" y="380.795" fill="black" font-size="13.617" font-family="Helvetica">160</text>
<text xml:space="preserve" x="451.628" y="380.795" fill="black" font-size="13.617" font-family="Helvetica">180</text>
<text xml:space="preserve" x="499.227" y="380.795" fill="black" font-size="13.617" font-family="Helvetica">200</text>
<text xml:space="preserve" x="459.443" y="394.293" fill="black" font-size="13.617" font-family="Helvetica">pT(GeV)</text>
<path d="M57.1929,367.651v -326.801" fill="none" stroke="black"/>
<path d="M63.9961,365.052h -6.80315" fill="none" stroke="black"/>
<path d="M70.7992,359.413h -13.6063" fill="none" stroke="black"/>
<text xml:space="preserve" x="47.3889" y="358.771" fill="black" font-size="9.24468" font-family="Helvetica">6</text>
<text xml:space="preserve" x="32.4697" y="365.165" fill="black" font-size="13.617" font-family="Helvetica">10</text>
<path d="M63.9961,322.314h -6.80315" fill="none" stroke="black"/>
<path d="M63.9961,300.613h -6.80315" fill="none" stroke="black"/>
<path d="M63.9961,285.216h -6.80315" fill="none" stroke="black"/>
<path d="M63.9961,273.273h -6.80315" fill="none" stroke="black"/>
<path d="M63.9961,263.514h -6.80315" fill="none" stroke="black"/>
<path d="M63.9961,255.264h -6.80315" fill="none" stroke="black"/>
<path d="M63.9961,248.117h -6.80315" fill="none" stroke="black"/>
<path d="M63.9961,241.813h -6.80315" fill="none" stroke="black"/>
<path d="M70.7992,236.174h -13.6063" fill="none" stroke="black"/>
<text xml:space="preserve" x="47.3889" y="236.576" fill="black" font-size="9.24468" font-family="Helvetica">7</text>
<text xml:space="preserve" x="32.4697" y="242.259" fill="black" font-size="13.617" font-family="Helvetica">10</text>
<path d="M63.9961,199.075h -6.80315" fill="none" stroke="black"/>
<path d="M63.9961,177.374h -6.80315" fill="none" stroke="black"/>
<path d="M63.9961,161.976h -6.80315" fill="none" stroke="black"/>
<path d="M63.9961,150.033h -6.80315" fill="none" stroke="black"/>
<path d="M63.9961,140.275h -6.80315" fill="none" stroke="black"/>
<path d="M63.9961,132.025h -6.80315" fill="none" stroke="black"/>
<path d="M63.9961,124.878h -6.80315" fill="none" stroke="black"/>
<path d="M63.9961,118.574h -6.80315" fill="none" stroke="black"/>
<path d="M70.7992,112.934h -13.6063" fill="none" stroke="black"/>
<text xml:space="preserve" x="47.3889" y="112.249" fill="black" font-size="9.24468" font-family="Helvetica">8</text>
<text xml:space="preserve" x="32.4697" y="118.643" fill="black" font-size="13.617" font-family="Helvetica">10</text>
<path d="M63.9961,75.8357h -6.80315" fill="none" stroke="black"/>
<path d="M63.9961,54.1344h -6.80315" fill="none" stroke="black"/>
<g transform="rotate(-90,21.8131,81.7003)">
<text xml:space="preserve" x="21.8131" y="81.7003" fill="black" font-size="13.617" font-family="Helvetica">Events</text>
</g>
<text xml:space="preserve" x="220.736" y="19.8923" fill="black" font-size="19.7796" font-family="Helvetica">Leading jet pT</text>
<rect x="442.705" y="26.5526" width="113.386" height="65.3603" fill="white"/>
<path d="M442.705,91.9128h 113.386" fill="none" stroke="black"/>
<path d="M556.091,91.9128v -65.3603" fill="none" stroke="black"/>
<path d="M556.091,26.5526h -113.386" fill="none" stroke="black"/>
<path d="M442.705,26.5526v 65.3603" fill="none" stroke="black"/>
<text xml:space="preserve" x="447.365" y="36.9428" fill="black" font-size="10.0889" font-family="Helvetica">Lead RecoJets_R10_pt</text>
<path d="M442.705,42.8927h 113.386" fill="none" stroke="black"/>
<text xml:space="preserve" x="448.076" y="55.4141" fill="black" font-size="12.2901" font-family="Helvetica">Entries </text>
<text xml:space="preserve" x="513.436" y="55.4141" fill="black" font-size="12.2901" font-family="Helvetica"> 84084</text>
<text xml:space="preserve" x="448.076" y="71.7542" fill="black" font-size="12.2901" font-family="Helvetica">Mean  </text>
<text xml:space="preserve" x="516.988" y="71.7542" fill="black" font-size="12.2901" font-family="Helvetica">    166</text>
<text xml:space="preserve" x="448.076" y="88.0943" fill="black" font-size="12.2901" font-family="Helvetica">Std Dev   </text>
<text xml:space="preserve" x="513.436" y="88.0943" fill="black" font-size="12.2901" font-family="Helvetica">  12.88</text>
<path d="M152.437,367.651v -23.2657" fill="none" stroke="#000099"/>
<path d="M152.437,338.702v -19.2106" fill="none" stroke="#000099"/>
<path d="M147.902,341.544h 1.69368" fill="none" stroke="#000099"/>
<path d="M155.279,341.544h 1.69368" fill="none" stroke="#000099"/>
<g stroke="black" stroke-width="1" fill="black">
<rect x="149.595" y="338.702" width="5.6835" height="5.6835"/>
</g>
<path d="M161.508,367.651v -138.225" fill="none" stroke="#000099"/>
<path d="M161.508,223.743v -32.4748" fill="none" stroke="#000099"/>
<path d="M156.972,226.585h 1.69368" fill="none" stroke="#000099"/>
<path d="M164.35,226.585h 1.69368" fill="none" stroke="#000099"/>
<g stroke="black" stroke-width="1" fill="black">
<rect x="158.666" y="223.743" width="5.6835" height="5.6835"/>
</g>
<path d="M170.579,182.183v -34.7021" fill="none" stroke="#000099"/>
<path d="M170.579,141.798v -19.0072" fill="none" stroke="#000099"/>
<path d="M166.043,144.639h 1.69368" fill="none" stroke="#000099"/>
<path d="M173.42,144.639h 1.69368" fill="none" stroke="#000099"/>
<g stroke="black" stroke-width="1" fill="black">
<rect x="167.737" y="141.798" width="5.6835" height="5.6835"/>
</g>
<path d="M179.65,226.754v -54.4291" fill="none" stroke="#000099"/>
<path d="M179.65,166.641v -24.1876" fill="none" stroke="#000099"/>
<path d="M175.114,169.483h 1.69368" fill="none" stroke="#000099"/>
<path d="M182.491,169.483h 1.69368" fill="none" stroke="#000099"/>
<g stroke="black" stroke-width="1" fill="black">
<rect x="176.808" y="166.641" width="5.6835" height="5.6835"/>
</g>
<path d="M188.72,305.962v -19.4315" fill="none" stroke="#000099"/>
<path d="M188.72,280.847v -12.8393" fill="none" stroke="#000099"/>
<path d="M184.185,283.689h 1.69368" fill="none" stroke="#000099"/>
<path d="M191.562,283.689h 1.69368" fill="none" stroke="#000099"/>
<g stroke="black" stroke-width="1" fill="black">
<rect x="185.879" y="280.847" width="5.6835" height="5.6835"/>
</g>
<path d="M197.791,190.587v -33.8673" fill="none" stroke="#000099"/>
<path d="M197.791,151.036v -18.7291" fill="none" stroke="#000099"/>
<path d="M193.256,153.878h 1.69368" fill="none" stroke="#000099"/>
<path d="M200.633,153.878h 1.69368" fill="none" stroke="#000099"/>
<g stroke="black" stroke-width="1" fill="black">
<rect x="194.95" y="151.036" width="5.6835" height="5.6835"/>
</g>
<path d="M206.862,197.423v -33.8763" fill="none" stroke="#000099"/>
<path d="M206.862,157.863v -18.7321" fill="none" stroke="#000099"/>
<path d="M202.327,160.705h 1.69368" fill="none" stroke="#000099"/>
<path d="M209.704,160.705h 1.69368" fill="none" stroke="#000099"/>
<g stroke="black" stroke-width="1" fill="black">
<rect x="204.02" y="157.863" width="5.6835" height="5.6835"/>
</g>
<path d="M215.933,182.564v -32.6456" fill="none" stroke="#000099"/>
<path d="M215.933,144.235v -18.3115" fill="none" stroke="#000099"/>
<path d="M211.398,147.076h 1.69368" fill="none" stroke="#000099"/>
<path d="M218.775,147.076h 1.69368" fill="none" stroke="#000099"/>
<g stroke="black" stroke-width="1" fill="black">
<rect x="213.091" y="144.235" width="5.6835" height="5.6835"/>
</g>
<path d="M225.004,118.753v -20.0639" fill="none" stroke="#000099"/>
<path d="M225.004,93.0053v -13.1477" fill="none" stroke="#000099"/>
<path d="M220.469,95.8471h 1.69368" fill="none" stroke="#000099"/>
<path d="M227.846,95.8471h 1.69368" fill="none" stroke="#000099"/>
<g stroke="black" stroke-width="1" fill="black">
<rect x="222.162" y="93.0053" width="5.6835" height="5.6835"/>
</g>
<path d="M234.075,121.686v -19.4863" fill="none" stroke="#000099"/>
<path d="M234.075,96.516v -12.8662" fill="none" stroke="#000099"/>
<path d="M229.539,99.3578h 1.69368" fill="none" stroke="#000099"/>
<path d="M236.917,99.3578h 1.69368" fill="none" stroke="#000099"/>
<g stroke="black" stroke-width="1" fill="black">
<rect x="231.233" y="96.516" width="5.6835" height="5.6835"/>
</g>
<path d="M243.146,136.253v -21.494" fill="none" stroke="#000099"/>
<path d="M243.146,109.076v -13.8257" fill="none" stroke="#000099"/>
<path d="M238.61,111.917h 1.69368" fill="none" stroke="#000099"/>
<path d="M245.987,111.917h 1.69368" fill="none" stroke="#000099"/>
<g stroke="black" stroke-width="1" fill="black">
<rect x="240.304" y="109.076" width="5.6835" height="5.6835"/>
</g>
<path d="M252.217,173.003v -26.9187" fill="none" stroke="#000099"/>
<path d="M252.217,140.401v -16.1715" fill="none" stroke="#000099"/>
<path d="M247.681,143.243h 1.69368" fill="none" stroke="#000099"/>
<path d="M255.058,143.243h 1.69368" fill="none" stroke="#000099"/>
<g stroke="black" stroke-width="1" fill="black">
<rect x="249.375" y="140.401" width="5.6835" height="5.6835"/>
</g>
<path d="M261.287,172.341v -28.8365" fill="none" stroke="#000099"/>
<path d="M261.287,137.821v -16.9235" fill="none" stroke="#000099"/>
<path d="M256.752,140.662h 1.69368" fill="none" stroke="#000099"/>
<path d="M264.129,140.662h 1.69368" fill="none" stroke="#000099"/>
<g stroke="black" stroke-width="1" fill="black">
<rect x="258.446" y="137.821" width="5.6835" height="5.6835"/>
</g>
<path d="M270.358,282.275v -15.2977" fill="none" stroke="#000099"/>
<path d="M270.358,261.293v -10.6817" fill="none" stroke="#000099"/>
<path d="M265.823,264.135h 1.69368" fill="none" stroke="#000099"/>
<path d="M273.2,264.135h 1.69368" fill="none" stroke="#000099"/>
<g stroke="black" stroke-width="1" fill="black">
<rect x="267.517" y="261.293" width="5.6835" height="5.6835"/>
</g>
<path d="M279.429,261.484v -73.9686" fill="none" stroke="#000099"/>
<path d="M279.429,181.832v -27.4732" fill="none" stroke="#000099"/>
<path d="M274.894,184.674h 1.69368" fill="none" stroke="#000099"/>
<path d="M282.271,184.674h 1.69368" fill="none" stroke="#000099"/>
<g stroke="black" stroke-width="1" fill="black">
<rect x="276.587" y="181.832" width="5.6835" height="5.6835"/>
</g>
<path d="M288.5,228.1v -50.9849" fill="none" stroke="#000099"/>
<path d="M288.5,171.432v -23.4461" fill="none" stroke="#000099"/>
<path d="M283.965,174.274h 1.69368" fill="none" stroke="#000099"/>
<path d="M291.342,174.274h 1.69368" fill="none" stroke="#000099"/>
<g stroke="black" stroke-width="1" fill="black">
<rect x="285.658" y="171.432" width="5.6835" height="5.6835"/>
</g>
<path d="M297.571,288.16v -88.3716" fill="none" stroke="#000099"/>
<path d="M297.571,194.105v -29.1529" fill="none" stroke="#000099"/>
<path d="M293.035,196.947h 1.69368" fill="none" stroke="#000099"/>
<path d="M300.413,196.947h 1.69368" fill="none" stroke="#000099"/>
<g stroke="black" stroke-width="1" fill="black">
<rect x="294.729" y="194.105" width="5.6835" height="5.6835"/>
</g>
<path d="M306.642,313.033v -90.4103" fill="none" stroke="#000099"/>
<path d="M306.642,216.939v -29.3527" fill="none" stroke="#000099"/>
<path d="M302.106,219.781h 1.69368" fill="none" stroke="#000099"/>
<path d="M309.483,219.781h 1.69368" fill="none" stroke="#000099"/>
<g stroke="black" stroke-width="1" fill="black">
<rect x="303.8" y="216.939" width="5.6835" height="5.6835"/>
</g>
<path d="M315.713,322.448v -98.2234" fill="none" stroke="#000099"/>
<path d="M315.713,218.541v -30.0458" fill="none" stroke="#000099"/>
<path d="M311.177,221.382h 1.69368" fill="none" stroke="#000099"/>
<path d="M318.554,221.382h 1.69368" fill="none" stroke="#000099"/>
<g stroke="black" stroke-width="1" fill="black">
<rect x="312.871" y="218.541" width="5.6835" height="5.6835"/>
</g>
<path d="M324.783,321.705v -23.6477" fill="none" stroke="#000099"/>
<path d="M324.783,292.373v -14.7981" fill="none" stroke="#000099"/>
<path d="M320.248,295.215h 1.69368" fill="none" stroke="#000099"/>
<path d="M327.625,295.215h 1.69368" fill="none" stroke="#000099"/>
<g stroke="black" stroke-width="1" fill="black">
<rect x="321.942" y="292.373" width="5.6835" height="5.6835"/>
</g>
<path d="M333.854,367.651v -13.5211" fill="none" stroke="#000099"/>
<path d="M333.854,348.447v -19.7378" fill="none" stroke="#000099"/>
<path d="M329.319,351.289h 1.69368" fill="none" stroke="#000099"/>
<path d="M336.696,351.289h 1.69368" fill="none" stroke="#000099"/>
<g stroke="black" stroke-width="1" fill="black">
<rect x="331.013" y="348.447" width="5.6835" height="5.6835"/>
</g>
<text xml:space="preserve" x="220.736" y="19.8923" fill="black" font-size="19.7796" font-family="Helvetica">Leading jet pT</text></svg>
