<?xml version="1.0" standalone="no"?>
<svg width="567.429" height="409.002" viewBox="0 0 567.429 409.002" xmlns="http://www.w3.org/2000/svg" shape-rendering="crispEdges">
<title>
Leadreco_R10_AndTrimmed_m.svg
</title>
<desc>
Creator: ROOT Version 6.18/04
CreationDate: Fri Oct  9 01:19:59 2020</desc>
<defs>
</defs>
<rect x="0.5" y="0" width="566.929" height="408.502" fill="white"/>
<rect x="57.1929" y="40.8502" width="453.543" height="326.801" fill="white"/>
<rect x="57.1929" y="40.8502" width="453.543" height="326.801" fill="none" stroke="black"/>
<path d="M57.1929,114.846h 8.49683" fill="none" stroke="#000099"/>
<path d="M71.3733,114.846h 8.49683" fill="none" stroke="#000099"/>
<g stroke="#ff0000" stroke-width="1" fill="#ff0000">
<circle cx="68.5315" cy="114.846" r="2.84175"/>
</g>
<path d="M79.8701,48.2182h 8.49683" fill="none" stroke="#000099"/>
<path d="M94.0504,48.2182h 8.49683" fill="none" stroke="#000099"/>
<g stroke="#ff0000" stroke-width="1" fill="#ff0000">
<circle cx="91.2087" cy="48.2182" r="2.84175"/>
</g>
<path d="M113.886,72.6751v -1.43174" fill="none" stroke="#000099"/>
<path d="M113.886,65.5598v -0.109072" fill="none" stroke="#000099"/>
<path d="M102.547,68.4016h 8.49683" fill="none" stroke="#000099"/>
<path d="M116.728,68.4016h 8.49683" fill="none" stroke="#000099"/>
<g stroke="#ff0000" stroke-width="1" fill="#ff0000">
<circle cx="113.886" cy="68.4016" r="2.84175"/>
</g>
<path d="M136.563,160.485v -14.4052" fill="none" stroke="#000099"/>
<path d="M136.563,140.396v -3.00005" fill="none" stroke="#000099"/>
<path d="M125.224,143.238h 8.49683" fill="none" stroke="#000099"/>
<path d="M139.405,143.238h 8.49683" fill="none" stroke="#000099"/>
<g stroke="#ff0000" stroke-width="1" fill="#ff0000">
<circle cx="136.563" cy="143.238" r="2.84175"/>
</g>
<path d="M147.902,199.413h 8.49683" fill="none" stroke="#000099"/>
<path d="M162.082,199.413h 8.49683" fill="none" stroke="#000099"/>
<g stroke="#ff0000" stroke-width="1" fill="#ff0000">
<circle cx="159.24" cy="199.413" r="2.84175"/>
</g>
<path d="M170.579,219.13h 8.49683" fill="none" stroke="#000099"/>
<path d="M184.759,219.13h 8.49683" fill="none" stroke="#000099"/>
<g stroke="#ff0000" stroke-width="1" fill="#ff0000">
<circle cx="181.917" cy="219.13" r="2.84175"/>
</g>
<path d="M193.256,233.903h 8.49683" fill="none" stroke="#000099"/>
<path d="M207.436,233.903h 8.49683" fill="none" stroke="#000099"/>
<g stroke="#ff0000" stroke-width="1" fill="#ff0000">
<circle cx="204.594" cy="233.903" r="2.84175"/>
</g>
<path d="M215.933,245.756h 8.49683" fill="none" stroke="#000099"/>
<path d="M230.113,245.756h 8.49683" fill="none" stroke="#000099"/>
<g stroke="#ff0000" stroke-width="1" fill="#ff0000">
<circle cx="227.272" cy="245.756" r="2.84175"/>
</g>
<path d="M238.61,255.187h 8.49683" fill="none" stroke="#000099"/>
<path d="M252.791,255.187h 8.49683" fill="none" stroke="#000099"/>
<g stroke="#ff0000" stroke-width="1" fill="#ff0000">
<circle cx="249.949" cy="255.187" r="2.84175"/>
</g>
<path d="M261.287,260.366h 8.49683" fill="none" stroke="#000099"/>
<path d="M275.468,260.366h 8.49683" fill="none" stroke="#000099"/>
<g stroke="#ff0000" stroke-width="1" fill="#ff0000">
<circle cx="272.626" cy="260.366" r="2.84175"/>
</g>
<path d="M283.965,278.472h 8.49683" fill="none" stroke="#000099"/>
<path d="M298.145,278.472h 8.49683" fill="none" stroke="#000099"/>
<g stroke="#ff0000" stroke-width="1" fill="#ff0000">
<circle cx="295.303" cy="278.472" r="2.84175"/>
</g>
<path d="M306.642,284.223h 8.49683" fill="none" stroke="#000099"/>
<path d="M320.822,284.223h 8.49683" fill="none" stroke="#000099"/>
<g stroke="#ff0000" stroke-width="1" fill="#ff0000">
<circle cx="317.98" cy="284.223" r="2.84175"/>
</g>
<path d="M340.657,300.492v -0.427773" fill="none" stroke="#000099"/>
<path d="M329.319,297.222h 8.49683" fill="none" stroke="#000099"/>
<path d="M343.499,297.222h 8.49683" fill="none" stroke="#000099"/>
<g stroke="#ff0000" stroke-width="1" fill="#ff0000">
<circle cx="340.657" cy="297.222" r="2.84175"/>
</g>
<path d="M363.335,299.993v -0.214681" fill="none" stroke="#000099"/>
<path d="M351.996,296.937h 8.49683" fill="none" stroke="#000099"/>
<path d="M366.176,296.937h 8.49683" fill="none" stroke="#000099"/>
<g stroke="#ff0000" stroke-width="1" fill="#ff0000">
<circle cx="363.335" cy="296.937" r="2.84175"/>
</g>
<path d="M386.012,315.393v -0.844937" fill="none" stroke="#000099"/>
<path d="M374.673,311.706h 8.49683" fill="none" stroke="#000099"/>
<path d="M388.854,311.706h 8.49683" fill="none" stroke="#000099"/>
<g stroke="#ff0000" stroke-width="1" fill="#ff0000">
<circle cx="386.012" cy="311.706" r="2.84175"/>
</g>
<path d="M408.689,329.647v -2.03783" fill="none" stroke="#000099"/>
<path d="M408.689,321.925v -0.382845" fill="none" stroke="#000099"/>
<path d="M397.35,324.767h 8.49683" fill="none" stroke="#000099"/>
<path d="M411.531,324.767h 8.49683" fill="none" stroke="#000099"/>
<g stroke="#ff0000" stroke-width="1" fill="#ff0000">
<circle cx="408.689" cy="324.767" r="2.84175"/>
</g>
<path d="M431.366,323.809v -2.50783" fill="none" stroke="#000099"/>
<path d="M431.366,315.618v -0.578781" fill="none" stroke="#000099"/>
<path d="M420.028,318.46h 8.49683" fill="none" stroke="#000099"/>
<path d="M434.208,318.46h 8.49683" fill="none" stroke="#000099"/>
<g stroke="#ff0000" stroke-width="1" fill="#ff0000">
<circle cx="431.366" cy="318.46" r="2.84175"/>
</g>
<path d="M454.043,346.762v -6.00181" fill="none" stroke="#000099"/>
<path d="M454.043,335.077v -1.69225" fill="none" stroke="#000099"/>
<path d="M442.705,337.918h 8.49683" fill="none" stroke="#000099"/>
<path d="M456.885,337.918h 8.49683" fill="none" stroke="#000099"/>
<g stroke="#ff0000" stroke-width="1" fill="#ff0000">
<circle cx="454.043" cy="337.918" r="2.84175"/>
</g>
<path d="M476.72,360.968v -33.9521" fill="none" stroke="#000099"/>
<path d="M476.72,321.332v -3.73498" fill="none" stroke="#000099"/>
<path d="M465.382,324.174h 8.49683" fill="none" stroke="#000099"/>
<path d="M479.562,324.174h 8.49683" fill="none" stroke="#000099"/>
<g stroke="#ff0000" stroke-width="1" fill="#ff0000">
<circle cx="476.72" cy="324.174" r="2.84175"/>
</g>
<path d="M57.1929,367.651h 453.543" fill="none" stroke="black"/>
<path d="M119.188,357.847v 9.80404" fill="none" stroke="black"/>
<path d="M135.503,362.749v 4.90202" fill="none" stroke="black"/>
<path d="M151.817,362.749v 4.90202" fill="none" stroke="black"/>
<path d="M168.132,362.749v 4.90202" fill="none" stroke="black"/>
<path d="M184.446,357.847v 9.80404" fill="none" stroke="black"/>
<path d="M200.761,362.749v 4.90202" fill="none" stroke="black"/>
<path d="M217.075,362.749v 4.90202" fill="none" stroke="black"/>
<path d="M233.39,362.749v 4.90202" fill="none" stroke="black"/>
<path d="M249.704,357.847v 9.80404" fill="none" stroke="black"/>
<path d="M266.019,362.749v 4.90202" fill="none" stroke="black"/>
<path d="M282.333,362.749v 4.90202" fill="none" stroke="black"/>
<path d="M298.648,362.749v 4.90202" fill="none" stroke="black"/>
<path d="M314.962,357.847v 9.80404" fill="none" stroke="black"/>
<path d="M331.277,362.749v 4.90202" fill="none" stroke="black"/>
<path d="M347.591,362.749v 4.90202" fill="none" stroke="black"/>
<path d="M363.906,362.749v 4.90202" fill="none" stroke="black"/>
<path d="M380.22,357.847v 9.80404" fill="none" stroke="black"/>
<path d="M396.535,362.749v 4.90202" fill="none" stroke="black"/>
<path d="M412.849,362.749v 4.90202" fill="none" stroke="black"/>
<path d="M429.164,362.749v 4.90202" fill="none" stroke="black"/>
<path d="M445.478,357.847v 9.80404" fill="none" stroke="black"/>
<path d="M461.793,362.749v 4.90202" fill="none" stroke="black"/>
<path d="M478.107,362.749v 4.90202" fill="none" stroke="black"/>
<path d="M494.422,362.749v 4.90202" fill="none" stroke="black"/>
<path d="M510.736,357.847v 9.80404" fill="none" stroke="black"/>
<path d="M119.188,357.847v 9.80404" fill="none" stroke="black"/>
<path d="M102.874,362.749v 4.90202" fill="none" stroke="black"/>
<path d="M86.559,362.749v 4.90202" fill="none" stroke="black"/>
<path d="M70.2445,362.749v 4.90202" fill="none" stroke="black"/>
<text xml:space="preserve" x="107.776" y="380.795" fill="black" font-size="13.617" font-family="Helvetica">200</text>
<text xml:space="preserve" x="172.426" y="380.795" fill="black" font-size="13.617" font-family="Helvetica">400</text>
<text xml:space="preserve" x="237.786" y="380.795" fill="black" font-size="13.617" font-family="Helvetica">600</text>
<text xml:space="preserve" x="303.146" y="380.795" fill="black" font-size="13.617" font-family="Helvetica">800</text>
<text xml:space="preserve" x="364.954" y="380.795" fill="black" font-size="13.617" font-family="Helvetica">1000</text>
<text xml:space="preserve" x="430.315" y="380.795" fill="black" font-size="13.617" font-family="Helvetica">1200</text>
<text xml:space="preserve" x="495.675" y="380.795" fill="black" font-size="13.617" font-family="Helvetica">1400</text>
<text xml:space="preserve" x="463.705" y="394.293" fill="black" font-size="13.617" font-family="Helvetica">m(GeV)</text>
<path d="M57.1929,367.651v -326.801" fill="none" stroke="black"/>
<path d="M63.9961,365.198h -6.80315" fill="none" stroke="black"/>
<path d="M63.9961,363.046h -6.80315" fill="none" stroke="black"/>
<path d="M63.9961,361.288h -6.80315" fill="none" stroke="black"/>
<path d="M63.9961,359.802h -6.80315" fill="none" stroke="black"/>
<path d="M63.9961,358.514h -6.80315" fill="none" stroke="black"/>
<path d="M63.9961,357.378h -6.80315" fill="none" stroke="black"/>
<path d="M70.7992,356.363h -13.6063" fill="none" stroke="black"/>
<text xml:space="preserve" x="47.3889" y="355.929" fill="black" font-size="9.24468" font-family="Helvetica">5</text>
<text xml:space="preserve" x="42.4158" y="355.929" fill="black" font-size="9.24468" font-family="Times">&#8722;</text>
<text xml:space="preserve" x="27.4966" y="362.323" fill="black" font-size="13.617" font-family="Helvetica">10</text>
<path d="M63.9961,349.679h -6.80315" fill="none" stroke="black"/>
<path d="M63.9961,345.77h -6.80315" fill="none" stroke="black"/>
<path d="M63.9961,342.996h -6.80315" fill="none" stroke="black"/>
<path d="M63.9961,340.844h -6.80315" fill="none" stroke="black"/>
<path d="M63.9961,339.086h -6.80315" fill="none" stroke="black"/>
<path d="M63.9961,337.6h -6.80315" fill="none" stroke="black"/>
<path d="M63.9961,336.312h -6.80315" fill="none" stroke="black"/>
<path d="M63.9961,335.176h -6.80315" fill="none" stroke="black"/>
<path d="M70.7992,334.161h -13.6063" fill="none" stroke="black"/>
<text xml:space="preserve" x="47.3889" y="334.616" fill="black" font-size="9.24468" font-family="Helvetica">4</text>
<text xml:space="preserve" x="42.4158" y="334.616" fill="black" font-size="9.24468" font-family="Times">&#8722;</text>
<text xml:space="preserve" x="27.4966" y="340.3" fill="black" font-size="13.617" font-family="Helvetica">10</text>
<path d="M63.9961,327.477h -6.80315" fill="none" stroke="black"/>
<path d="M63.9961,323.568h -6.80315" fill="none" stroke="black"/>
<path d="M63.9961,320.794h -6.80315" fill="none" stroke="black"/>
<path d="M63.9961,318.642h -6.80315" fill="none" stroke="black"/>
<path d="M63.9961,316.884h -6.80315" fill="none" stroke="black"/>
<path d="M63.9961,315.398h -6.80315" fill="none" stroke="black"/>
<path d="M63.9961,314.11h -6.80315" fill="none" stroke="black"/>
<path d="M63.9961,312.974h -6.80315" fill="none" stroke="black"/>
<path d="M70.7992,311.959h -13.6063" fill="none" stroke="black"/>
<text xml:space="preserve" x="47.3889" y="311.882" fill="black" font-size="9.24468" font-family="Helvetica">3</text>
<text xml:space="preserve" x="42.4158" y="311.882" fill="black" font-size="9.24468" font-family="Times">&#8722;</text>
<text xml:space="preserve" x="27.4966" y="318.276" fill="black" font-size="13.617" font-family="Helvetica">10</text>
<path d="M63.9961,305.275h -6.80315" fill="none" stroke="black"/>
<path d="M63.9961,301.365h -6.80315" fill="none" stroke="black"/>
<path d="M63.9961,298.592h -6.80315" fill="none" stroke="black"/>
<path d="M63.9961,296.44h -6.80315" fill="none" stroke="black"/>
<path d="M63.9961,294.682h -6.80315" fill="none" stroke="black"/>
<path d="M63.9961,293.196h -6.80315" fill="none" stroke="black"/>
<path d="M63.9961,291.908h -6.80315" fill="none" stroke="black"/>
<path d="M63.9961,290.772h -6.80315" fill="none" stroke="black"/>
<path d="M70.7992,289.757h -13.6063" fill="none" stroke="black"/>
<text xml:space="preserve" x="47.3889" y="289.859" fill="black" font-size="9.24468" font-family="Helvetica">2</text>
<text xml:space="preserve" x="42.4158" y="289.859" fill="black" font-size="9.24468" font-family="Times">&#8722;</text>
<text xml:space="preserve" x="27.4966" y="295.542" fill="black" font-size="13.617" font-family="Helvetica">10</text>
<path d="M63.9961,283.073h -6.80315" fill="none" stroke="black"/>
<path d="M63.9961,279.163h -6.80315" fill="none" stroke="black"/>
<path d="M63.9961,276.39h -6.80315" fill="none" stroke="black"/>
<path d="M63.9961,274.238h -6.80315" fill="none" stroke="black"/>
<path d="M63.9961,272.48h -6.80315" fill="none" stroke="black"/>
<path d="M63.9961,270.994h -6.80315" fill="none" stroke="black"/>
<path d="M63.9961,269.706h -6.80315" fill="none" stroke="black"/>
<path d="M63.9961,268.57h -6.80315" fill="none" stroke="black"/>
<path d="M70.7992,267.555h -13.6063" fill="none" stroke="black"/>
<text xml:space="preserve" x="48.8097" y="267.835" fill="black" font-size="9.24468" font-family="Helvetica">1</text>
<text xml:space="preserve" x="43.8367" y="267.835" fill="black" font-size="9.24468" font-family="Times">&#8722;</text>
<text xml:space="preserve" x="28.9175" y="273.518" fill="black" font-size="13.617" font-family="Helvetica">10</text>
<path d="M63.9961,260.871h -6.80315" fill="none" stroke="black"/>
<path d="M63.9961,256.961h -6.80315" fill="none" stroke="black"/>
<path d="M63.9961,254.188h -6.80315" fill="none" stroke="black"/>
<path d="M63.9961,252.036h -6.80315" fill="none" stroke="black"/>
<path d="M63.9961,250.278h -6.80315" fill="none" stroke="black"/>
<path d="M63.9961,248.792h -6.80315" fill="none" stroke="black"/>
<path d="M63.9961,247.504h -6.80315" fill="none" stroke="black"/>
<path d="M63.9961,246.368h -6.80315" fill="none" stroke="black"/>
<path d="M70.7992,245.353h -13.6063" fill="none" stroke="black"/>
<text xml:space="preserve" x="47.3889" y="250.784" fill="black" font-size="13.617" font-family="Helvetica">1</text>
<path d="M63.9961,238.669h -6.80315" fill="none" stroke="black"/>
<path d="M63.9961,234.759h -6.80315" fill="none" stroke="black"/>
<path d="M63.9961,231.986h -6.80315" fill="none" stroke="black"/>
<path d="M63.9961,229.834h -6.80315" fill="none" stroke="black"/>
<path d="M63.9961,228.076h -6.80315" fill="none" stroke="black"/>
<path d="M63.9961,226.59h -6.80315" fill="none" stroke="black"/>
<path d="M63.9961,225.302h -6.80315" fill="none" stroke="black"/>
<path d="M63.9961,224.166h -6.80315" fill="none" stroke="black"/>
<path d="M70.7992,223.15h -13.6063" fill="none" stroke="black"/>
<text xml:space="preserve" x="37.4427" y="228.05" fill="black" font-size="13.617" font-family="Helvetica">10</text>
<path d="M63.9961,216.467h -6.80315" fill="none" stroke="black"/>
<path d="M63.9961,212.557h -6.80315" fill="none" stroke="black"/>
<path d="M63.9961,209.784h -6.80315" fill="none" stroke="black"/>
<path d="M63.9961,207.632h -6.80315" fill="none" stroke="black"/>
<path d="M63.9961,205.874h -6.80315" fill="none" stroke="black"/>
<path d="M63.9961,204.388h -6.80315" fill="none" stroke="black"/>
<path d="M63.9961,203.1h -6.80315" fill="none" stroke="black"/>
<path d="M63.9961,201.964h -6.80315" fill="none" stroke="black"/>
<path d="M70.7992,200.948h -13.6063" fill="none" stroke="black"/>
<text xml:space="preserve" x="47.3889" y="201.054" fill="black" font-size="9.24468" font-family="Helvetica">2</text>
<text xml:space="preserve" x="32.4697" y="206.737" fill="black" font-size="13.617" font-family="Helvetica">10</text>
<path d="M63.9961,194.265h -6.80315" fill="none" stroke="black"/>
<path d="M63.9961,190.355h -6.80315" fill="none" stroke="black"/>
<path d="M63.9961,187.582h -6.80315" fill="none" stroke="black"/>
<path d="M63.9961,185.43h -6.80315" fill="none" stroke="black"/>
<path d="M63.9961,183.672h -6.80315" fill="none" stroke="black"/>
<path d="M63.9961,182.186h -6.80315" fill="none" stroke="black"/>
<path d="M63.9961,180.898h -6.80315" fill="none" stroke="black"/>
<path d="M63.9961,179.762h -6.80315" fill="none" stroke="black"/>
<path d="M70.7992,178.746h -13.6063" fill="none" stroke="black"/>
<text xml:space="preserve" x="47.3889" y="178.32" fill="black" font-size="9.24468" font-family="Helvetica">3</text>
<text xml:space="preserve" x="32.4697" y="184.714" fill="black" font-size="13.617" font-family="Helvetica">10</text>
<path d="M63.9961,172.063h -6.80315" fill="none" stroke="black"/>
<path d="M63.9961,168.153h -6.80315" fill="none" stroke="black"/>
<path d="M63.9961,165.38h -6.80315" fill="none" stroke="black"/>
<path d="M63.9961,163.228h -6.80315" fill="none" stroke="black"/>
<path d="M63.9961,161.47h -6.80315" fill="none" stroke="black"/>
<path d="M63.9961,159.984h -6.80315" fill="none" stroke="black"/>
<path d="M63.9961,158.696h -6.80315" fill="none" stroke="black"/>
<path d="M63.9961,157.56h -6.80315" fill="none" stroke="black"/>
<path d="M70.7992,156.544h -13.6063" fill="none" stroke="black"/>
<text xml:space="preserve" x="47.3889" y="157.007" fill="black" font-size="9.24468" font-family="Helvetica">4</text>
<text xml:space="preserve" x="32.4697" y="162.69" fill="black" font-size="13.617" font-family="Helvetica">10</text>
<path d="M63.9961,149.861h -6.80315" fill="none" stroke="black"/>
<path d="M63.9961,145.951h -6.80315" fill="none" stroke="black"/>
<path d="M63.9961,143.178h -6.80315" fill="none" stroke="black"/>
<path d="M63.9961,141.026h -6.80315" fill="none" stroke="black"/>
<path d="M63.9961,139.268h -6.80315" fill="none" stroke="black"/>
<path d="M63.9961,137.782h -6.80315" fill="none" stroke="black"/>
<path d="M63.9961,136.494h -6.80315" fill="none" stroke="black"/>
<path d="M63.9961,135.358h -6.80315" fill="none" stroke="black"/>
<path d="M70.7992,134.342h -13.6063" fill="none" stroke="black"/>
<text xml:space="preserve" x="47.3889" y="134.273" fill="black" font-size="9.24468" font-family="Helvetica">5</text>
<text xml:space="preserve" x="32.4697" y="140.667" fill="black" font-size="13.617" font-family="Helvetica">10</text>
<path d="M63.9961,127.659h -6.80315" fill="none" stroke="black"/>
<path d="M63.9961,123.749h -6.80315" fill="none" stroke="black"/>
<path d="M63.9961,120.975h -6.80315" fill="none" stroke="black"/>
<path d="M63.9961,118.824h -6.80315" fill="none" stroke="black"/>
<path d="M63.9961,117.066h -6.80315" fill="none" stroke="black"/>
<path d="M63.9961,115.58h -6.80315" fill="none" stroke="black"/>
<path d="M63.9961,114.292h -6.80315" fill="none" stroke="black"/>
<path d="M63.9961,113.156h -6.80315" fill="none" stroke="black"/>
<path d="M70.7992,112.14h -13.6063" fill="none" stroke="black"/>
<text xml:space="preserve" x="47.3889" y="111.539" fill="black" font-size="9.24468" font-family="Helvetica">6</text>
<text xml:space="preserve" x="32.4697" y="117.933" fill="black" font-size="13.617" font-family="Helvetica">10</text>
<path d="M63.9961,105.457h -6.80315" fill="none" stroke="black"/>
<path d="M63.9961,101.547h -6.80315" fill="none" stroke="black"/>
<path d="M63.9961,98.7735h -6.80315" fill="none" stroke="black"/>
<path d="M63.9961,96.6219h -6.80315" fill="none" stroke="black"/>
<path d="M63.9961,94.8639h -6.80315" fill="none" stroke="black"/>
<path d="M63.9961,93.3775h -6.80315" fill="none" stroke="black"/>
<path d="M63.9961,92.09h -6.80315" fill="none" stroke="black"/>
<path d="M63.9961,90.9543h -6.80315" fill="none" stroke="black"/>
<path d="M70.7992,89.9384h -13.6063" fill="none" stroke="black"/>
<text xml:space="preserve" x="47.3889" y="90.2256" fill="black" font-size="9.24468" font-family="Helvetica">7</text>
<text xml:space="preserve" x="32.4697" y="95.9091" fill="black" font-size="13.617" font-family="Helvetica">10</text>
<path d="M63.9961,83.2549h -6.80315" fill="none" stroke="black"/>
<path d="M63.9961,79.3454h -6.80315" fill="none" stroke="black"/>
<path d="M63.9961,76.5715h -6.80315" fill="none" stroke="black"/>
<path d="M63.9961,74.4199h -6.80315" fill="none" stroke="black"/>
<path d="M63.9961,72.6619h -6.80315" fill="none" stroke="black"/>
<path d="M63.9961,71.1755h -6.80315" fill="none" stroke="black"/>
<path d="M63.9961,69.888h -6.80315" fill="none" stroke="black"/>
<path d="M63.9961,68.7523h -6.80315" fill="none" stroke="black"/>
<path d="M70.7992,67.7364h -13.6063" fill="none" stroke="black"/>
<text xml:space="preserve" x="47.3889" y="67.4916" fill="black" font-size="9.24468" font-family="Helvetica">8</text>
<text xml:space="preserve" x="32.4697" y="73.8855" fill="black" font-size="13.617" font-family="Helvetica">10</text>
<path d="M63.9961,61.0529h -6.80315" fill="none" stroke="black"/>
<path d="M63.9961,57.1433h -6.80315" fill="none" stroke="black"/>
<path d="M63.9961,54.3694h -6.80315" fill="none" stroke="black"/>
<path d="M63.9961,52.2178h -6.80315" fill="none" stroke="black"/>
<path d="M63.9961,50.4599h -6.80315" fill="none" stroke="black"/>
<path d="M63.9961,48.9735h -6.80315" fill="none" stroke="black"/>
<path d="M63.9961,47.686h -6.80315" fill="none" stroke="black"/>
<path d="M63.9961,46.5503h -6.80315" fill="none" stroke="black"/>
<path d="M70.7992,45.5344h -13.6063" fill="none" stroke="black"/>
<text xml:space="preserve" x="47.3889" y="45.468" fill="black" font-size="9.24468" font-family="Helvetica">9</text>
<text xml:space="preserve" x="32.4697" y="51.8619" fill="black" font-size="13.617" font-family="Helvetica">10</text>
<g transform="rotate(-90,17.5505,81.7003)">
<text xml:space="preserve" x="17.5505" y="81.7003" fill="black" font-size="13.617" font-family="Helvetica">Events</text>
</g>
<text xml:space="preserve" x="224.288" y="19.8923" fill="black" font-size="19.7796" font-family="Helvetica">Leading jet m</text>
<rect x="442.705" y="26.5526" width="113.386" height="65.3603" fill="white"/>
<path d="M442.705,91.9128h 113.386" fill="none" stroke="black"/>
<path d="M556.091,91.9128v -65.3603" fill="none" stroke="black"/>
<path d="M556.091,26.5526h -113.386" fill="none" stroke="black"/>
<path d="M442.705,26.5526v 65.3603" fill="none" stroke="black"/>
<text xml:space="preserve" x="447.365" y="37.6532" fill="black" font-size="10.1317" font-family="Helvetica">Lead RecoJets_R10_m</text>
<path d="M442.705,42.8927h 113.386" fill="none" stroke="black"/>
<text xml:space="preserve" x="448.076" y="55.4141" fill="black" font-size="12.2901" font-family="Helvetica">Entries </text>
<text xml:space="preserve" x="513.436" y="55.4141" fill="black" font-size="12.2901" font-family="Helvetica"> 84084</text>
<text xml:space="preserve" x="448.076" y="71.7542" fill="black" font-size="12.2901" font-family="Helvetica">Mean  </text>
<text xml:space="preserve" x="513.436" y="71.7542" fill="black" font-size="12.2901" font-family="Helvetica">  125.5</text>
<text xml:space="preserve" x="448.076" y="88.0943" fill="black" font-size="12.2901" font-family="Helvetica">Std Dev   </text>
<text xml:space="preserve" x="519.119" y="88.0943" fill="black" font-size="12.2901" font-family="Helvetica">   15.1</text>
<path d="M57.1929,47.4573h 8.49683" fill="none" stroke="#000099"/>
<path d="M71.3733,47.4573h 8.49683" fill="none" stroke="#000099"/>
<g stroke="black" stroke-width="1" fill="black">
<rect x="65.6898" y="44.6156" width="5.6835" height="5.6835"/>
</g>
<path d="M91.2087,88.7103v -7.06542" fill="none" stroke="#000099"/>
<path d="M91.2087,75.9613v -1.94051" fill="none" stroke="#000099"/>
<path d="M79.8701,78.8031h 8.49683" fill="none" stroke="#000099"/>
<path d="M94.0504,78.8031h 8.49683" fill="none" stroke="#000099"/>
<g stroke="black" stroke-width="1" fill="black">
<rect x="88.3669" y="75.9613" width="5.6835" height="5.6835"/>
</g>
<path d="M102.547,185.351h 8.49683" fill="none" stroke="#000099"/>
<path d="M116.728,185.351h 8.49683" fill="none" stroke="#000099"/>
<g stroke="black" stroke-width="1" fill="black">
<rect x="111.044" y="182.509" width="5.6835" height="5.6835"/>
</g>
<path d="M125.224,207.089h 8.49683" fill="none" stroke="#000099"/>
<path d="M139.405,207.089h 8.49683" fill="none" stroke="#000099"/>
<g stroke="black" stroke-width="1" fill="black">
<rect x="133.721" y="204.247" width="5.6835" height="5.6835"/>
</g>
<path d="M147.902,223.953h 8.49683" fill="none" stroke="#000099"/>
<path d="M162.082,223.953h 8.49683" fill="none" stroke="#000099"/>
<g stroke="black" stroke-width="1" fill="black">
<rect x="156.398" y="221.111" width="5.6835" height="5.6835"/>
</g>
<path d="M170.579,239.012h 8.49683" fill="none" stroke="#000099"/>
<path d="M184.759,239.012h 8.49683" fill="none" stroke="#000099"/>
<g stroke="black" stroke-width="1" fill="black">
<rect x="179.076" y="236.17" width="5.6835" height="5.6835"/>
</g>
<path d="M193.256,250.922h 8.49683" fill="none" stroke="#000099"/>
<path d="M207.436,250.922h 8.49683" fill="none" stroke="#000099"/>
<g stroke="black" stroke-width="1" fill="black">
<rect x="201.753" y="248.081" width="5.6835" height="5.6835"/>
</g>
<path d="M215.933,260.002h 8.49683" fill="none" stroke="#000099"/>
<path d="M230.113,260.002h 8.49683" fill="none" stroke="#000099"/>
<g stroke="black" stroke-width="1" fill="black">
<rect x="224.43" y="257.161" width="5.6835" height="5.6835"/>
</g>
<path d="M238.61,269.531h 8.49683" fill="none" stroke="#000099"/>
<path d="M252.791,269.531h 8.49683" fill="none" stroke="#000099"/>
<g stroke="black" stroke-width="1" fill="black">
<rect x="247.107" y="266.69" width="5.6835" height="5.6835"/>
</g>
<path d="M261.287,280.32h 8.49683" fill="none" stroke="#000099"/>
<path d="M275.468,280.32h 8.49683" fill="none" stroke="#000099"/>
<g stroke="black" stroke-width="1" fill="black">
<rect x="269.784" y="277.478" width="5.6835" height="5.6835"/>
</g>
<path d="M283.965,292.584h 8.49683" fill="none" stroke="#000099"/>
<path d="M298.145,292.584h 8.49683" fill="none" stroke="#000099"/>
<g stroke="black" stroke-width="1" fill="black">
<rect x="292.461" y="289.742" width="5.6835" height="5.6835"/>
</g>
<path d="M317.98,300.73v -0.137508" fill="none" stroke="#000099"/>
<path d="M306.642,297.751h 8.49683" fill="none" stroke="#000099"/>
<path d="M320.822,297.751h 8.49683" fill="none" stroke="#000099"/>
<g stroke="black" stroke-width="1" fill="black">
<rect x="315.139" y="294.91" width="5.6835" height="5.6835"/>
</g>
<path d="M340.657,309.645v -0.477628" fill="none" stroke="#000099"/>
<path d="M329.319,306.325h 8.49683" fill="none" stroke="#000099"/>
<path d="M343.499,306.325h 8.49683" fill="none" stroke="#000099"/>
<g stroke="black" stroke-width="1" fill="black">
<rect x="337.816" y="303.484" width="5.6835" height="5.6835"/>
</g>
<path d="M363.335,317.014v -1.52671" fill="none" stroke="#000099"/>
<path d="M363.335,309.803v -0.153644" fill="none" stroke="#000099"/>
<path d="M351.996,312.645h 8.49683" fill="none" stroke="#000099"/>
<path d="M366.176,312.645h 8.49683" fill="none" stroke="#000099"/>
<g stroke="black" stroke-width="1" fill="black">
<rect x="360.493" y="309.803" width="5.6835" height="5.6835"/>
</g>
<path d="M386.012,367.651v -3.95217" fill="none" stroke="#000099"/>
<path d="M386.012,358.016v -3.84172" fill="none" stroke="#000099"/>
<path d="M374.673,360.857h 8.49683" fill="none" stroke="#000099"/>
<path d="M388.854,360.857h 8.49683" fill="none" stroke="#000099"/>
<g stroke="black" stroke-width="1" fill="black">
<rect x="383.17" y="358.016" width="5.6835" height="5.6835"/>
</g>
<path d="M408.689,336.42v -3.66936" fill="none" stroke="#000099"/>
<path d="M408.689,327.067v -1.00969" fill="none" stroke="#000099"/>
<path d="M397.35,329.909h 8.49683" fill="none" stroke="#000099"/>
<path d="M411.531,329.909h 8.49683" fill="none" stroke="#000099"/>
<g stroke="black" stroke-width="1" fill="black">
<rect x="405.847" y="327.067" width="5.6835" height="5.6835"/>
</g>
<path d="M431.366,353.305v -26.5528" fill="none" stroke="#000099"/>
<path d="M431.366,321.068v -3.61031" fill="none" stroke="#000099"/>
<path d="M420.028,323.91h 8.49683" fill="none" stroke="#000099"/>
<path d="M434.208,323.91h 8.49683" fill="none" stroke="#000099"/>
<g stroke="black" stroke-width="1" fill="black">
<rect x="428.524" y="321.068" width="5.6835" height="5.6835"/>
</g>
<text xml:space="preserve" x="224.288" y="19.8923" fill="black" font-size="19.7796" font-family="Helvetica">Leading jet m</text></svg>
