<?xml version="1.0" standalone="no"?>
<svg width="567.429" height="409.002" viewBox="0 0 567.429 409.002" xmlns="http://www.w3.org/2000/svg" shape-rendering="crispEdges">
<title>
Leadtruth_R10_AndTrimmed_m.svg
</title>
<desc>
Creator: ROOT Version 6.18/04
CreationDate: Fri Oct  9 01:19:59 2020</desc>
<defs>
</defs>
<rect x="0.5" y="0" width="566.929" height="408.502" fill="white"/>
<rect x="57.1929" y="40.8502" width="453.543" height="326.801" fill="white"/>
<rect x="57.1929" y="40.8502" width="453.543" height="326.801" fill="none" stroke="black"/>
<path d="M57.1929,48.4798h 8.49683" fill="none" stroke="#000099"/>
<path d="M71.3733,48.4798h 8.49683" fill="none" stroke="#000099"/>
<g stroke="#ff0000" stroke-width="1" fill="#ff0000">
<circle cx="68.5315" cy="48.4798" r="2.84175"/>
</g>
<path d="M79.8701,92.2015h 8.49683" fill="none" stroke="#000099"/>
<path d="M94.0504,92.2015h 8.49683" fill="none" stroke="#000099"/>
<g stroke="#ff0000" stroke-width="1" fill="#ff0000">
<circle cx="91.2087" cy="92.2015" r="2.84175"/>
</g>
<path d="M102.547,138.167h 8.49683" fill="none" stroke="#000099"/>
<path d="M116.728,138.167h 8.49683" fill="none" stroke="#000099"/>
<g stroke="#ff0000" stroke-width="1" fill="#ff0000">
<circle cx="113.886" cy="138.167" r="2.84175"/>
</g>
<path d="M125.224,167.338h 8.49683" fill="none" stroke="#000099"/>
<path d="M139.405,167.338h 8.49683" fill="none" stroke="#000099"/>
<g stroke="#ff0000" stroke-width="1" fill="#ff0000">
<circle cx="136.563" cy="167.338" r="2.84175"/>
</g>
<path d="M147.902,185.956h 8.49683" fill="none" stroke="#000099"/>
<path d="M162.082,185.956h 8.49683" fill="none" stroke="#000099"/>
<g stroke="#ff0000" stroke-width="1" fill="#ff0000">
<circle cx="159.24" cy="185.956" r="2.84175"/>
</g>
<path d="M170.579,207.253h 8.49683" fill="none" stroke="#000099"/>
<path d="M184.759,207.253h 8.49683" fill="none" stroke="#000099"/>
<g stroke="#ff0000" stroke-width="1" fill="#ff0000">
<circle cx="181.917" cy="207.253" r="2.84175"/>
</g>
<path d="M193.256,220.845h 8.49683" fill="none" stroke="#000099"/>
<path d="M207.436,220.845h 8.49683" fill="none" stroke="#000099"/>
<g stroke="#ff0000" stroke-width="1" fill="#ff0000">
<circle cx="204.594" cy="220.845" r="2.84175"/>
</g>
<path d="M215.933,233.702h 8.49683" fill="none" stroke="#000099"/>
<path d="M230.113,233.702h 8.49683" fill="none" stroke="#000099"/>
<g stroke="#ff0000" stroke-width="1" fill="#ff0000">
<circle cx="227.272" cy="233.702" r="2.84175"/>
</g>
<path d="M238.61,245.302h 8.49683" fill="none" stroke="#000099"/>
<path d="M252.791,245.302h 8.49683" fill="none" stroke="#000099"/>
<g stroke="#ff0000" stroke-width="1" fill="#ff0000">
<circle cx="249.949" cy="245.302" r="2.84175"/>
</g>
<path d="M261.287,257.162h 8.49683" fill="none" stroke="#000099"/>
<path d="M275.468,257.162h 8.49683" fill="none" stroke="#000099"/>
<g stroke="#ff0000" stroke-width="1" fill="#ff0000">
<circle cx="272.626" cy="257.162" r="2.84175"/>
</g>
<path d="M283.965,265.811h 8.49683" fill="none" stroke="#000099"/>
<path d="M298.145,265.811h 8.49683" fill="none" stroke="#000099"/>
<g stroke="#ff0000" stroke-width="1" fill="#ff0000">
<circle cx="295.303" cy="265.811" r="2.84175"/>
</g>
<path d="M317.98,279.856v -0.700593" fill="none" stroke="#000099"/>
<path d="M306.642,276.314h 8.49683" fill="none" stroke="#000099"/>
<path d="M320.822,276.314h 8.49683" fill="none" stroke="#000099"/>
<g stroke="#ff0000" stroke-width="1" fill="#ff0000">
<circle cx="317.98" cy="276.314" r="2.84175"/>
</g>
<path d="M329.319,291.559h 8.49683" fill="none" stroke="#000099"/>
<path d="M343.499,291.559h 8.49683" fill="none" stroke="#000099"/>
<g stroke="#ff0000" stroke-width="1" fill="#ff0000">
<circle cx="340.657" cy="291.559" r="2.84175"/>
</g>
<path d="M363.335,307.474v -0.515814" fill="none" stroke="#000099"/>
<path d="M351.996,304.117h 8.49683" fill="none" stroke="#000099"/>
<path d="M366.176,304.117h 8.49683" fill="none" stroke="#000099"/>
<g stroke="#ff0000" stroke-width="1" fill="#ff0000">
<circle cx="363.335" cy="304.117" r="2.84175"/>
</g>
<path d="M386.012,312.66v -2.68692" fill="none" stroke="#000099"/>
<path d="M386.012,304.29v -0.888073" fill="none" stroke="#000099"/>
<path d="M374.673,307.131h 8.49683" fill="none" stroke="#000099"/>
<path d="M388.854,307.131h 8.49683" fill="none" stroke="#000099"/>
<g stroke="#ff0000" stroke-width="1" fill="#ff0000">
<circle cx="386.012" cy="307.131" r="2.84175"/>
</g>
<path d="M408.689,329.552v -2.86218" fill="none" stroke="#000099"/>
<path d="M408.689,321.006v -0.966168" fill="none" stroke="#000099"/>
<path d="M397.35,323.848h 8.49683" fill="none" stroke="#000099"/>
<path d="M411.531,323.848h 8.49683" fill="none" stroke="#000099"/>
<g stroke="#ff0000" stroke-width="1" fill="#ff0000">
<circle cx="408.689" cy="323.848" r="2.84175"/>
</g>
<path d="M431.366,367.651v -5.20587" fill="none" stroke="#000099"/>
<path d="M431.366,356.762v -5.20587" fill="none" stroke="#000099"/>
<path d="M420.028,359.604h 8.49683" fill="none" stroke="#000099"/>
<path d="M434.208,359.604h 8.49683" fill="none" stroke="#000099"/>
<g stroke="#ff0000" stroke-width="1" fill="#ff0000">
<circle cx="431.366" cy="359.604" r="2.84175"/>
</g>
<path d="M454.043,347.52v -24.4539" fill="none" stroke="#000099"/>
<path d="M454.043,317.383v -4.63918" fill="none" stroke="#000099"/>
<path d="M442.705,320.224h 8.49683" fill="none" stroke="#000099"/>
<path d="M456.885,320.224h 8.49683" fill="none" stroke="#000099"/>
<g stroke="#ff0000" stroke-width="1" fill="#ff0000">
<circle cx="454.043" cy="320.224" r="2.84175"/>
</g>
<path d="M57.1929,367.651h 453.543" fill="none" stroke="black"/>
<path d="M119.188,357.847v 9.80404" fill="none" stroke="black"/>
<path d="M135.503,362.749v 4.90202" fill="none" stroke="black"/>
<path d="M151.817,362.749v 4.90202" fill="none" stroke="black"/>
<path d="M168.132,362.749v 4.90202" fill="none" stroke="black"/>
<path d="M184.446,357.847v 9.80404" fill="none" stroke="black"/>
<path d="M200.761,362.749v 4.90202" fill="none" stroke="black"/>
<path d="M217.075,362.749v 4.90202" fill="none" stroke="black"/>
<path d="M233.39,362.749v 4.90202" fill="none" stroke="black"/>
<path d="M249.704,357.847v 9.80404" fill="none" stroke="black"/>
<path d="M266.019,362.749v 4.90202" fill="none" stroke="black"/>
<path d="M282.333,362.749v 4.90202" fill="none" stroke="black"/>
<path d="M298.648,362.749v 4.90202" fill="none" stroke="black"/>
<path d="M314.962,357.847v 9.80404" fill="none" stroke="black"/>
<path d="M331.277,362.749v 4.90202" fill="none" stroke="black"/>
<path d="M347.591,362.749v 4.90202" fill="none" stroke="black"/>
<path d="M363.906,362.749v 4.90202" fill="none" stroke="black"/>
<path d="M380.22,357.847v 9.80404" fill="none" stroke="black"/>
<path d="M396.535,362.749v 4.90202" fill="none" stroke="black"/>
<path d="M412.849,362.749v 4.90202" fill="none" stroke="black"/>
<path d="M429.164,362.749v 4.90202" fill="none" stroke="black"/>
<path d="M445.478,357.847v 9.80404" fill="none" stroke="black"/>
<path d="M461.793,362.749v 4.90202" fill="none" stroke="black"/>
<path d="M478.107,362.749v 4.90202" fill="none" stroke="black"/>
<path d="M494.422,362.749v 4.90202" fill="none" stroke="black"/>
<path d="M510.736,357.847v 9.80404" fill="none" stroke="black"/>
<path d="M119.188,357.847v 9.80404" fill="none" stroke="black"/>
<path d="M102.874,362.749v 4.90202" fill="none" stroke="black"/>
<path d="M86.559,362.749v 4.90202" fill="none" stroke="black"/>
<path d="M70.2445,362.749v 4.90202" fill="none" stroke="black"/>
<text xml:space="preserve" x="107.776" y="380.795" fill="black" font-size="13.617" font-family="Helvetica">200</text>
<text xml:space="preserve" x="172.426" y="380.795" fill="black" font-size="13.617" font-family="Helvetica">400</text>
<text xml:space="preserve" x="237.786" y="380.795" fill="black" font-size="13.617" font-family="Helvetica">600</text>
<text xml:space="preserve" x="303.146" y="380.795" fill="black" font-size="13.617" font-family="Helvetica">800</text>
<text xml:space="preserve" x="364.954" y="380.795" fill="black" font-size="13.617" font-family="Helvetica">1000</text>
<text xml:space="preserve" x="430.315" y="380.795" fill="black" font-size="13.617" font-family="Helvetica">1200</text>
<text xml:space="preserve" x="495.675" y="380.795" fill="black" font-size="13.617" font-family="Helvetica">1400</text>
<text xml:space="preserve" x="463.705" y="394.293" fill="black" font-size="13.617" font-family="Helvetica">m(GeV)</text>
<path d="M57.1929,367.651v -326.801" fill="none" stroke="black"/>
<path d="M63.9961,365.861h -6.80315" fill="none" stroke="black"/>
<path d="M63.9961,364.072h -6.80315" fill="none" stroke="black"/>
<path d="M63.9961,362.521h -6.80315" fill="none" stroke="black"/>
<path d="M63.9961,361.154h -6.80315" fill="none" stroke="black"/>
<path d="M70.7992,359.931h -13.6063" fill="none" stroke="black"/>
<text xml:space="preserve" x="47.3889" y="359.481" fill="black" font-size="9.24468" font-family="Helvetica">5</text>
<text xml:space="preserve" x="42.4158" y="359.481" fill="black" font-size="9.24468" font-family="Times">&#8722;</text>
<text xml:space="preserve" x="27.4966" y="365.875" fill="black" font-size="13.617" font-family="Helvetica">10</text>
<path d="M63.9961,351.883h -6.80315" fill="none" stroke="black"/>
<path d="M63.9961,347.175h -6.80315" fill="none" stroke="black"/>
<path d="M63.9961,343.835h -6.80315" fill="none" stroke="black"/>
<path d="M63.9961,341.245h -6.80315" fill="none" stroke="black"/>
<path d="M63.9961,339.128h -6.80315" fill="none" stroke="black"/>
<path d="M63.9961,337.338h -6.80315" fill="none" stroke="black"/>
<path d="M63.9961,335.788h -6.80315" fill="none" stroke="black"/>
<path d="M63.9961,334.42h -6.80315" fill="none" stroke="black"/>
<path d="M70.7992,333.197h -13.6063" fill="none" stroke="black"/>
<text xml:space="preserve" x="47.3889" y="333.906" fill="black" font-size="9.24468" font-family="Helvetica">4</text>
<text xml:space="preserve" x="42.4158" y="333.906" fill="black" font-size="9.24468" font-family="Times">&#8722;</text>
<text xml:space="preserve" x="27.4966" y="339.589" fill="black" font-size="13.617" font-family="Helvetica">10</text>
<path d="M63.9961,325.149h -6.80315" fill="none" stroke="black"/>
<path d="M63.9961,320.442h -6.80315" fill="none" stroke="black"/>
<path d="M63.9961,317.102h -6.80315" fill="none" stroke="black"/>
<path d="M63.9961,314.511h -6.80315" fill="none" stroke="black"/>
<path d="M63.9961,312.394h -6.80315" fill="none" stroke="black"/>
<path d="M63.9961,310.604h -6.80315" fill="none" stroke="black"/>
<path d="M63.9961,309.054h -6.80315" fill="none" stroke="black"/>
<path d="M63.9961,307.687h -6.80315" fill="none" stroke="black"/>
<path d="M70.7992,306.463h -13.6063" fill="none" stroke="black"/>
<text xml:space="preserve" x="47.3889" y="306.199" fill="black" font-size="9.24468" font-family="Helvetica">3</text>
<text xml:space="preserve" x="42.4158" y="306.199" fill="black" font-size="9.24468" font-family="Times">&#8722;</text>
<text xml:space="preserve" x="27.4966" y="312.592" fill="black" font-size="13.617" font-family="Helvetica">10</text>
<path d="M63.9961,298.416h -6.80315" fill="none" stroke="black"/>
<path d="M63.9961,293.708h -6.80315" fill="none" stroke="black"/>
<path d="M63.9961,290.368h -6.80315" fill="none" stroke="black"/>
<path d="M63.9961,287.777h -6.80315" fill="none" stroke="black"/>
<path d="M63.9961,285.661h -6.80315" fill="none" stroke="black"/>
<path d="M63.9961,283.871h -6.80315" fill="none" stroke="black"/>
<path d="M63.9961,282.32h -6.80315" fill="none" stroke="black"/>
<path d="M63.9961,280.953h -6.80315" fill="none" stroke="black"/>
<path d="M70.7992,279.73h -13.6063" fill="none" stroke="black"/>
<text xml:space="preserve" x="47.3889" y="279.912" fill="black" font-size="9.24468" font-family="Helvetica">2</text>
<text xml:space="preserve" x="42.4158" y="279.912" fill="black" font-size="9.24468" font-family="Times">&#8722;</text>
<text xml:space="preserve" x="27.4966" y="285.596" fill="black" font-size="13.617" font-family="Helvetica">10</text>
<path d="M63.9961,271.682h -6.80315" fill="none" stroke="black"/>
<path d="M63.9961,266.975h -6.80315" fill="none" stroke="black"/>
<path d="M63.9961,263.634h -6.80315" fill="none" stroke="black"/>
<path d="M63.9961,261.044h -6.80315" fill="none" stroke="black"/>
<path d="M63.9961,258.927h -6.80315" fill="none" stroke="black"/>
<path d="M63.9961,257.137h -6.80315" fill="none" stroke="black"/>
<path d="M63.9961,255.587h -6.80315" fill="none" stroke="black"/>
<path d="M63.9961,254.219h -6.80315" fill="none" stroke="black"/>
<path d="M70.7992,252.996h -13.6063" fill="none" stroke="black"/>
<text xml:space="preserve" x="48.8097" y="253.626" fill="black" font-size="9.24468" font-family="Helvetica">1</text>
<text xml:space="preserve" x="43.8367" y="253.626" fill="black" font-size="9.24468" font-family="Times">&#8722;</text>
<text xml:space="preserve" x="28.9175" y="259.31" fill="black" font-size="13.617" font-family="Helvetica">10</text>
<path d="M63.9961,244.948h -6.80315" fill="none" stroke="black"/>
<path d="M63.9961,240.241h -6.80315" fill="none" stroke="black"/>
<path d="M63.9961,236.901h -6.80315" fill="none" stroke="black"/>
<path d="M63.9961,234.31h -6.80315" fill="none" stroke="black"/>
<path d="M63.9961,232.193h -6.80315" fill="none" stroke="black"/>
<path d="M63.9961,230.404h -6.80315" fill="none" stroke="black"/>
<path d="M63.9961,228.853h -6.80315" fill="none" stroke="black"/>
<path d="M63.9961,227.486h -6.80315" fill="none" stroke="black"/>
<path d="M70.7992,226.262h -13.6063" fill="none" stroke="black"/>
<text xml:space="preserve" x="47.3889" y="231.603" fill="black" font-size="13.617" font-family="Helvetica">1</text>
<path d="M63.9961,218.215h -6.80315" fill="none" stroke="black"/>
<path d="M63.9961,213.507h -6.80315" fill="none" stroke="black"/>
<path d="M63.9961,210.167h -6.80315" fill="none" stroke="black"/>
<path d="M63.9961,207.577h -6.80315" fill="none" stroke="black"/>
<path d="M63.9961,205.46h -6.80315" fill="none" stroke="black"/>
<path d="M63.9961,203.67h -6.80315" fill="none" stroke="black"/>
<path d="M63.9961,202.12h -6.80315" fill="none" stroke="black"/>
<path d="M63.9961,200.752h -6.80315" fill="none" stroke="black"/>
<path d="M70.7992,199.529h -13.6063" fill="none" stroke="black"/>
<text xml:space="preserve" x="37.4427" y="203.896" fill="black" font-size="13.617" font-family="Helvetica">10</text>
<path d="M63.9961,191.481h -6.80315" fill="none" stroke="black"/>
<path d="M63.9961,186.774h -6.80315" fill="none" stroke="black"/>
<path d="M63.9961,183.434h -6.80315" fill="none" stroke="black"/>
<path d="M63.9961,180.843h -6.80315" fill="none" stroke="black"/>
<path d="M63.9961,178.726h -6.80315" fill="none" stroke="black"/>
<path d="M63.9961,176.936h -6.80315" fill="none" stroke="black"/>
<path d="M63.9961,175.386h -6.80315" fill="none" stroke="black"/>
<path d="M63.9961,174.019h -6.80315" fill="none" stroke="black"/>
<path d="M70.7992,172.795h -13.6063" fill="none" stroke="black"/>
<text xml:space="preserve" x="47.3889" y="173.347" fill="black" font-size="9.24468" font-family="Helvetica">2</text>
<text xml:space="preserve" x="32.4697" y="179.03" fill="black" font-size="13.617" font-family="Helvetica">10</text>
<path d="M63.9961,164.748h -6.80315" fill="none" stroke="black"/>
<path d="M63.9961,160.04h -6.80315" fill="none" stroke="black"/>
<path d="M63.9961,156.7h -6.80315" fill="none" stroke="black"/>
<path d="M63.9961,154.109h -6.80315" fill="none" stroke="black"/>
<path d="M63.9961,151.992h -6.80315" fill="none" stroke="black"/>
<path d="M63.9961,150.203h -6.80315" fill="none" stroke="black"/>
<path d="M63.9961,148.652h -6.80315" fill="none" stroke="black"/>
<path d="M63.9961,147.285h -6.80315" fill="none" stroke="black"/>
<path d="M70.7992,146.062h -13.6063" fill="none" stroke="black"/>
<text xml:space="preserve" x="47.3889" y="145.64" fill="black" font-size="9.24468" font-family="Helvetica">3</text>
<text xml:space="preserve" x="32.4697" y="152.034" fill="black" font-size="13.617" font-family="Helvetica">10</text>
<path d="M63.9961,138.014h -6.80315" fill="none" stroke="black"/>
<path d="M63.9961,133.306h -6.80315" fill="none" stroke="black"/>
<path d="M63.9961,129.966h -6.80315" fill="none" stroke="black"/>
<path d="M63.9961,127.376h -6.80315" fill="none" stroke="black"/>
<path d="M63.9961,125.259h -6.80315" fill="none" stroke="black"/>
<path d="M63.9961,123.469h -6.80315" fill="none" stroke="black"/>
<path d="M63.9961,121.919h -6.80315" fill="none" stroke="black"/>
<path d="M63.9961,120.551h -6.80315" fill="none" stroke="black"/>
<path d="M70.7992,119.328h -13.6063" fill="none" stroke="black"/>
<text xml:space="preserve" x="47.3889" y="119.354" fill="black" font-size="9.24468" font-family="Helvetica">4</text>
<text xml:space="preserve" x="32.4697" y="125.037" fill="black" font-size="13.617" font-family="Helvetica">10</text>
<path d="M63.9961,111.28h -6.80315" fill="none" stroke="black"/>
<path d="M63.9961,106.573h -6.80315" fill="none" stroke="black"/>
<path d="M63.9961,103.233h -6.80315" fill="none" stroke="black"/>
<path d="M63.9961,100.642h -6.80315" fill="none" stroke="black"/>
<path d="M63.9961,98.5253h -6.80315" fill="none" stroke="black"/>
<path d="M63.9961,96.7355h -6.80315" fill="none" stroke="black"/>
<path d="M63.9961,95.1852h -6.80315" fill="none" stroke="black"/>
<path d="M63.9961,93.8177h -6.80315" fill="none" stroke="black"/>
<path d="M70.7992,92.5944h -13.6063" fill="none" stroke="black"/>
<text xml:space="preserve" x="47.3889" y="92.3569" fill="black" font-size="9.24468" font-family="Helvetica">5</text>
<text xml:space="preserve" x="32.4697" y="98.7508" fill="black" font-size="13.617" font-family="Helvetica">10</text>
<path d="M63.9961,84.5468h -6.80315" fill="none" stroke="black"/>
<path d="M63.9961,79.8393h -6.80315" fill="none" stroke="black"/>
<path d="M63.9961,76.4992h -6.80315" fill="none" stroke="black"/>
<path d="M63.9961,73.9084h -6.80315" fill="none" stroke="black"/>
<path d="M63.9961,71.7916h -6.80315" fill="none" stroke="black"/>
<path d="M63.9961,70.0019h -6.80315" fill="none" stroke="black"/>
<path d="M63.9961,68.4516h -6.80315" fill="none" stroke="black"/>
<path d="M63.9961,67.0841h -6.80315" fill="none" stroke="black"/>
<path d="M70.7992,65.8608h -13.6063" fill="none" stroke="black"/>
<text xml:space="preserve" x="47.3889" y="65.3603" fill="black" font-size="9.24468" font-family="Helvetica">6</text>
<text xml:space="preserve" x="32.4697" y="71.7542" fill="black" font-size="13.617" font-family="Helvetica">10</text>
<path d="M63.9961,57.8132h -6.80315" fill="none" stroke="black"/>
<path d="M63.9961,53.1056h -6.80315" fill="none" stroke="black"/>
<path d="M63.9961,49.7656h -6.80315" fill="none" stroke="black"/>
<path d="M63.9961,47.1748h -6.80315" fill="none" stroke="black"/>
<path d="M63.9961,45.058h -6.80315" fill="none" stroke="black"/>
<path d="M63.9961,43.2683h -6.80315" fill="none" stroke="black"/>
<path d="M63.9961,41.718h -6.80315" fill="none" stroke="black"/>
<g transform="rotate(-90,17.5505,81.7003)">
<text xml:space="preserve" x="17.5505" y="81.7003" fill="black" font-size="13.617" font-family="Helvetica">Events</text>
</g>
<text xml:space="preserve" x="224.288" y="19.8923" fill="black" font-size="19.7796" font-family="Helvetica">Leading jet m</text>
<rect x="442.705" y="26.5526" width="113.386" height="65.3603" fill="white"/>
<path d="M442.705,91.9128h 113.386" fill="none" stroke="black"/>
<path d="M556.091,91.9128v -65.3603" fill="none" stroke="black"/>
<path d="M556.091,26.5526h -113.386" fill="none" stroke="black"/>
<path d="M442.705,26.5526v 65.3603" fill="none" stroke="black"/>
<text xml:space="preserve" x="449.497" y="37.6532" fill="black" font-size="10.5819" font-family="Helvetica">Lead Truthets_R10_m</text>
<path d="M442.705,42.8927h 113.386" fill="none" stroke="black"/>
<text xml:space="preserve" x="448.076" y="55.4141" fill="black" font-size="12.2901" font-family="Helvetica">Entries </text>
<text xml:space="preserve" x="513.436" y="55.4141" fill="black" font-size="12.2901" font-family="Helvetica"> 84746</text>
<text xml:space="preserve" x="448.076" y="71.7542" fill="black" font-size="12.2901" font-family="Helvetica">Mean  </text>
<text xml:space="preserve" x="513.436" y="71.7542" fill="black" font-size="12.2901" font-family="Helvetica">  44.15</text>
<text xml:space="preserve" x="448.076" y="88.0943" fill="black" font-size="12.2901" font-family="Helvetica">Std Dev   </text>
<text xml:space="preserve" x="513.436" y="88.0943" fill="black" font-size="12.2901" font-family="Helvetica">  15.45</text>
<path d="M57.1929,50.8773h 8.49683" fill="none" stroke="#000099"/>
<path d="M71.3733,50.8773h 8.49683" fill="none" stroke="#000099"/>
<g stroke="black" stroke-width="1" fill="black">
<rect x="65.6898" y="48.0355" width="5.6835" height="5.6835"/>
</g>
<path d="M79.8701,111.899h 8.49683" fill="none" stroke="#000099"/>
<path d="M94.0504,111.899h 8.49683" fill="none" stroke="#000099"/>
<g stroke="black" stroke-width="1" fill="black">
<rect x="88.3669" y="109.058" width="5.6835" height="5.6835"/>
</g>
<path d="M102.547,150.337h 8.49683" fill="none" stroke="#000099"/>
<path d="M116.728,150.337h 8.49683" fill="none" stroke="#000099"/>
<g stroke="black" stroke-width="1" fill="black">
<rect x="111.044" y="147.495" width="5.6835" height="5.6835"/>
</g>
<path d="M125.224,177.364h 8.49683" fill="none" stroke="#000099"/>
<path d="M139.405,177.364h 8.49683" fill="none" stroke="#000099"/>
<g stroke="black" stroke-width="1" fill="black">
<rect x="133.721" y="174.523" width="5.6835" height="5.6835"/>
</g>
<path d="M147.902,197.018h 8.49683" fill="none" stroke="#000099"/>
<path d="M162.082,197.018h 8.49683" fill="none" stroke="#000099"/>
<g stroke="black" stroke-width="1" fill="black">
<rect x="156.398" y="194.176" width="5.6835" height="5.6835"/>
</g>
<path d="M170.579,214.809h 8.49683" fill="none" stroke="#000099"/>
<path d="M184.759,214.809h 8.49683" fill="none" stroke="#000099"/>
<g stroke="black" stroke-width="1" fill="black">
<rect x="179.076" y="211.967" width="5.6835" height="5.6835"/>
</g>
<path d="M193.256,231.113h 8.49683" fill="none" stroke="#000099"/>
<path d="M207.436,231.113h 8.49683" fill="none" stroke="#000099"/>
<g stroke="black" stroke-width="1" fill="black">
<rect x="201.753" y="228.271" width="5.6835" height="5.6835"/>
</g>
<path d="M215.933,238.979h 8.49683" fill="none" stroke="#000099"/>
<path d="M230.113,238.979h 8.49683" fill="none" stroke="#000099"/>
<g stroke="black" stroke-width="1" fill="black">
<rect x="224.43" y="236.138" width="5.6835" height="5.6835"/>
</g>
<path d="M238.61,250.545h 8.49683" fill="none" stroke="#000099"/>
<path d="M252.791,250.545h 8.49683" fill="none" stroke="#000099"/>
<g stroke="black" stroke-width="1" fill="black">
<rect x="247.107" y="247.703" width="5.6835" height="5.6835"/>
</g>
<path d="M261.287,263.233h 8.49683" fill="none" stroke="#000099"/>
<path d="M275.468,263.233h 8.49683" fill="none" stroke="#000099"/>
<g stroke="black" stroke-width="1" fill="black">
<rect x="269.784" y="260.391" width="5.6835" height="5.6835"/>
</g>
<path d="M295.303,277.324v -0.0912111" fill="none" stroke="#000099"/>
<path d="M283.965,274.391h 8.49683" fill="none" stroke="#000099"/>
<path d="M298.145,274.391h 8.49683" fill="none" stroke="#000099"/>
<g stroke="black" stroke-width="1" fill="black">
<rect x="292.461" y="271.55" width="5.6835" height="5.6835"/>
</g>
<path d="M317.98,291.214v -0.332189" fill="none" stroke="#000099"/>
<path d="M306.642,288.041h 8.49683" fill="none" stroke="#000099"/>
<path d="M320.822,288.041h 8.49683" fill="none" stroke="#000099"/>
<g stroke="black" stroke-width="1" fill="black">
<rect x="315.139" y="285.199" width="5.6835" height="5.6835"/>
</g>
<path d="M340.657,301.99v -1.04107" fill="none" stroke="#000099"/>
<path d="M340.657,295.265v -0.06288" fill="none" stroke="#000099"/>
<path d="M329.319,298.107h 8.49683" fill="none" stroke="#000099"/>
<path d="M343.499,298.107h 8.49683" fill="none" stroke="#000099"/>
<g stroke="black" stroke-width="1" fill="black">
<rect x="337.816" y="295.265" width="5.6835" height="5.6835"/>
</g>
<path d="M363.335,315.397v -2.67947" fill="none" stroke="#000099"/>
<path d="M363.335,307.034v -0.884715" fill="none" stroke="#000099"/>
<path d="M351.996,309.876h 8.49683" fill="none" stroke="#000099"/>
<path d="M366.176,309.876h 8.49683" fill="none" stroke="#000099"/>
<g stroke="black" stroke-width="1" fill="black">
<rect x="360.493" y="307.034" width="5.6835" height="5.6835"/>
</g>
<path d="M386.012,324.944v -6.56696" fill="none" stroke="#000099"/>
<path d="M386.012,312.693v -2.28621" fill="none" stroke="#000099"/>
<path d="M374.673,315.535h 8.49683" fill="none" stroke="#000099"/>
<path d="M388.854,315.535h 8.49683" fill="none" stroke="#000099"/>
<g stroke="black" stroke-width="1" fill="black">
<rect x="383.17" y="312.693" width="5.6835" height="5.6835"/>
</g>
<path d="M408.689,345.784v -7.34722" fill="none" stroke="#000099"/>
<path d="M408.689,332.754v -2.49999" fill="none" stroke="#000099"/>
<path d="M397.35,335.595h 8.49683" fill="none" stroke="#000099"/>
<path d="M411.531,335.595h 8.49683" fill="none" stroke="#000099"/>
<g stroke="black" stroke-width="1" fill="black">
<rect x="405.847" y="332.754" width="5.6835" height="5.6835"/>
</g>
<path d="M431.366,367.651v -15.024" fill="none" stroke="#000099"/>
<path d="M431.366,346.944v -5.20587" fill="none" stroke="#000099"/>
<path d="M420.028,349.786h 8.49683" fill="none" stroke="#000099"/>
<path d="M434.208,349.786h 8.49683" fill="none" stroke="#000099"/>
<g stroke="black" stroke-width="1" fill="black">
<rect x="428.524" y="346.944" width="5.6835" height="5.6835"/>
</g>
<path d="M454.043,367.651v -43.376" fill="none" stroke="#000099"/>
<path d="M454.043,318.592v -5.20587" fill="none" stroke="#000099"/>
<path d="M442.705,321.434h 8.49683" fill="none" stroke="#000099"/>
<path d="M456.885,321.434h 8.49683" fill="none" stroke="#000099"/>
<g stroke="black" stroke-width="1" fill="black">
<rect x="451.202" y="318.592" width="5.6835" height="5.6835"/>
</g>
<text xml:space="preserve" x="224.288" y="19.8923" fill="black" font-size="19.7796" font-family="Helvetica">Leading jet m</text></svg>
