<?xml version="1.0" standalone="no"?>
<svg width="567.429" height="409.002" viewBox="0 0 567.429 409.002" xmlns="http://www.w3.org/2000/svg" shape-rendering="crispEdges">
<title>
prof_Tjetpt_npv.svg
</title>
<desc>
Creator: ROOT Version 6.18/04
CreationDate: Fri Oct  9 01:18:15 2020</desc>
<defs>
</defs>
<rect x="0.5" y="0" width="566.929" height="408.502" fill="white"/>
<rect x="57.1929" y="40.8502" width="453.543" height="326.801" fill="white"/>
<rect x="57.1929" y="40.8502" width="453.543" height="326.801" fill="none" stroke="black"/>
<path d="M98.0118,69.1859v -0.94243" fill="none" stroke="#000099"/>
<path d="M98.0118,68.2435v -0.94243" fill="none" stroke="#000099"/>
<path d="M93.4764,68.2435h 4.53543" fill="none" stroke="#000099"/>
<path d="M98.0118,68.2435h 4.53543" fill="none" stroke="#000099"/>
<g stroke="black" stroke-width="1" fill="none">
<line x1="97.0118" y1="68.2435" x2="98.0118" y2="68.2435"/>
</g>
<path d="M107.083,68.7761v -1.15095" fill="none" stroke="#000099"/>
<path d="M107.083,67.6251v -1.15095" fill="none" stroke="#000099"/>
<path d="M102.547,67.6251h 4.53543" fill="none" stroke="#000099"/>
<path d="M107.083,67.6251h 4.53543" fill="none" stroke="#000099"/>
<g stroke="black" stroke-width="1" fill="none">
<line x1="106.083" y1="67.6251" x2="107.083" y2="67.6251"/>
</g>
<path d="M116.154,69.1392v -1.32569" fill="none" stroke="#000099"/>
<path d="M116.154,67.8135v -1.32569" fill="none" stroke="#000099"/>
<path d="M111.618,67.8135h 4.53543" fill="none" stroke="#000099"/>
<path d="M116.154,67.8135h 4.53543" fill="none" stroke="#000099"/>
<g stroke="black" stroke-width="1" fill="none">
<line x1="115.154" y1="67.8135" x2="116.154" y2="67.8135"/>
</g>
<path d="M125.224,65.8963v -1.70118" fill="none" stroke="#000099"/>
<path d="M125.224,64.1951v -1.70118" fill="none" stroke="#000099"/>
<path d="M120.689,64.1951h 4.53543" fill="none" stroke="#000099"/>
<path d="M125.224,64.1951h 4.53543" fill="none" stroke="#000099"/>
<g stroke="black" stroke-width="1" fill="none">
<line x1="124.224" y1="64.1951" x2="125.224" y2="64.1951"/>
</g>
<path d="M134.295,68.3935v -1.89398" fill="none" stroke="#000099"/>
<path d="M134.295,66.4995v -1.89398" fill="none" stroke="#000099"/>
<path d="M129.76,66.4995h 4.53543" fill="none" stroke="#000099"/>
<path d="M134.295,66.4995h 4.53543" fill="none" stroke="#000099"/>
<g stroke="black" stroke-width="1" fill="none">
<line x1="133.295" y1="66.4995" x2="134.295" y2="66.4995"/>
</g>
<path d="M143.366,68.1213v -2.251" fill="none" stroke="#000099"/>
<path d="M143.366,65.8703v -2.251" fill="none" stroke="#000099"/>
<path d="M138.831,65.8703h 4.53543" fill="none" stroke="#000099"/>
<path d="M143.366,65.8703h 4.53543" fill="none" stroke="#000099"/>
<g stroke="black" stroke-width="1" fill="none">
<line x1="142.366" y1="65.8703" x2="143.366" y2="65.8703"/>
</g>
<path d="M152.437,74.2049v -2.30573" fill="none" stroke="#000099"/>
<path d="M152.437,71.8992v -2.30573" fill="none" stroke="#000099"/>
<path d="M147.902,71.8992h 4.53543" fill="none" stroke="#000099"/>
<path d="M152.437,71.8992h 4.53543" fill="none" stroke="#000099"/>
<g stroke="black" stroke-width="1" fill="none">
<line x1="151.437" y1="71.8992" x2="152.437" y2="71.8992"/>
</g>
<path d="M161.508,71.3771v -2.97221" fill="none" stroke="#000099"/>
<path d="M161.508,68.4049v -2.97221" fill="none" stroke="#000099"/>
<path d="M156.972,68.4049h 4.53543" fill="none" stroke="#000099"/>
<path d="M161.508,68.4049h 4.53543" fill="none" stroke="#000099"/>
<g stroke="black" stroke-width="1" fill="none">
<line x1="160.508" y1="68.4049" x2="161.508" y2="68.4049"/>
</g>
<path d="M170.579,68.1632v -3.07469" fill="none" stroke="#000099"/>
<path d="M170.579,65.0885v -3.07469" fill="none" stroke="#000099"/>
<path d="M166.043,65.0885h 4.53543" fill="none" stroke="#000099"/>
<path d="M170.579,65.0885h 4.53543" fill="none" stroke="#000099"/>
<g stroke="black" stroke-width="1" fill="none">
<line x1="169.579" y1="65.0885" x2="170.579" y2="65.0885"/>
</g>
<path d="M179.65,73.5843v -3.30116" fill="none" stroke="#000099"/>
<path d="M179.65,70.2832v -3.30116" fill="none" stroke="#000099"/>
<path d="M175.114,70.2832h 4.53543" fill="none" stroke="#000099"/>
<path d="M179.65,70.2832h 4.53543" fill="none" stroke="#000099"/>
<g stroke="black" stroke-width="1" fill="none">
<line x1="178.65" y1="70.2832" x2="179.65" y2="70.2832"/>
</g>
<path d="M188.72,71.1641v -4.02752" fill="none" stroke="#000099"/>
<path d="M188.72,67.1366v -4.02752" fill="none" stroke="#000099"/>
<path d="M184.185,67.1366h 4.53543" fill="none" stroke="#000099"/>
<path d="M188.72,67.1366h 4.53543" fill="none" stroke="#000099"/>
<g stroke="black" stroke-width="1" fill="none">
<line x1="187.72" y1="67.1366" x2="188.72" y2="67.1366"/>
</g>
<path d="M197.791,75.8736v -4.24117" fill="none" stroke="#000099"/>
<path d="M197.791,71.6324v -4.24117" fill="none" stroke="#000099"/>
<path d="M193.256,71.6324h 4.53543" fill="none" stroke="#000099"/>
<path d="M197.791,71.6324h 4.53543" fill="none" stroke="#000099"/>
<g stroke="black" stroke-width="1" fill="none">
<line x1="196.791" y1="71.6324" x2="197.791" y2="71.6324"/>
</g>
<path d="M206.862,81.5125v -4.24265" fill="none" stroke="#000099"/>
<path d="M206.862,77.2698v -4.24265" fill="none" stroke="#000099"/>
<path d="M202.327,77.2698h 4.53543" fill="none" stroke="#000099"/>
<path d="M206.862,77.2698h 4.53543" fill="none" stroke="#000099"/>
<g stroke="black" stroke-width="1" fill="none">
<line x1="205.862" y1="77.2698" x2="206.862" y2="77.2698"/>
</g>
<path d="M215.933,73.744v -4.38129" fill="none" stroke="#000099"/>
<path d="M215.933,69.3627v -4.38129" fill="none" stroke="#000099"/>
<path d="M211.398,69.3627h 4.53543" fill="none" stroke="#000099"/>
<path d="M215.933,69.3627h 4.53543" fill="none" stroke="#000099"/>
<g stroke="black" stroke-width="1" fill="none">
<line x1="214.933" y1="69.3627" x2="215.933" y2="69.3627"/>
</g>
<path d="M225.004,69.5906v -4.08946" fill="none" stroke="#000099"/>
<path d="M225.004,65.5012v -4.08946" fill="none" stroke="#000099"/>
<path d="M220.469,65.5012h 4.53543" fill="none" stroke="#000099"/>
<path d="M225.004,65.5012h 4.53543" fill="none" stroke="#000099"/>
<g stroke="black" stroke-width="1" fill="none">
<line x1="224.004" y1="65.5012" x2="225.004" y2="65.5012"/>
</g>
<path d="M234.075,68.3229v -4.11567" fill="none" stroke="#000099"/>
<path d="M234.075,64.2072v -4.11567" fill="none" stroke="#000099"/>
<path d="M229.539,64.2072h 4.53543" fill="none" stroke="#000099"/>
<path d="M234.075,64.2072h 4.53543" fill="none" stroke="#000099"/>
<g stroke="black" stroke-width="1" fill="none">
<line x1="233.075" y1="64.2072" x2="234.075" y2="64.2072"/>
</g>
<path d="M243.146,79.1162v -3.41328" fill="none" stroke="#000099"/>
<path d="M243.146,75.7029v -3.41328" fill="none" stroke="#000099"/>
<path d="M238.61,75.7029h 4.53543" fill="none" stroke="#000099"/>
<path d="M243.146,75.7029h 4.53543" fill="none" stroke="#000099"/>
<g stroke="black" stroke-width="1" fill="none">
<line x1="242.146" y1="75.7029" x2="243.146" y2="75.7029"/>
</g>
<path d="M252.217,68.9027v -3.78103" fill="none" stroke="#000099"/>
<path d="M252.217,65.1217v -3.78103" fill="none" stroke="#000099"/>
<path d="M247.681,65.1217h 4.53543" fill="none" stroke="#000099"/>
<path d="M252.217,65.1217h 4.53543" fill="none" stroke="#000099"/>
<g stroke="black" stroke-width="1" fill="none">
<line x1="251.217" y1="65.1217" x2="252.217" y2="65.1217"/>
</g>
<path d="M261.287,76.1056v -3.24573" fill="none" stroke="#000099"/>
<path d="M261.287,72.8598v -3.24573" fill="none" stroke="#000099"/>
<path d="M256.752,72.8598h 4.53543" fill="none" stroke="#000099"/>
<path d="M261.287,72.8598h 4.53543" fill="none" stroke="#000099"/>
<g stroke="black" stroke-width="1" fill="none">
<line x1="260.287" y1="72.8598" x2="261.287" y2="72.8598"/>
</g>
<path d="M270.358,66.0029v -3.70847" fill="none" stroke="#000099"/>
<path d="M270.358,62.2945v -3.70847" fill="none" stroke="#000099"/>
<path d="M265.823,62.2945h 4.53543" fill="none" stroke="#000099"/>
<path d="M270.358,62.2945h 4.53543" fill="none" stroke="#000099"/>
<g stroke="black" stroke-width="1" fill="none">
<line x1="269.358" y1="62.2945" x2="270.358" y2="62.2945"/>
</g>
<path d="M279.429,73.3125v -3.71007" fill="none" stroke="#000099"/>
<path d="M279.429,69.6024v -3.71007" fill="none" stroke="#000099"/>
<path d="M274.894,69.6024h 4.53543" fill="none" stroke="#000099"/>
<path d="M279.429,69.6024h 4.53543" fill="none" stroke="#000099"/>
<g stroke="black" stroke-width="1" fill="none">
<line x1="278.429" y1="69.6024" x2="279.429" y2="69.6024"/>
</g>
<path d="M288.5,79.1455v -3.46559" fill="none" stroke="#000099"/>
<path d="M288.5,75.6799v -3.46559" fill="none" stroke="#000099"/>
<path d="M283.965,75.6799h 4.53543" fill="none" stroke="#000099"/>
<path d="M288.5,75.6799h 4.53543" fill="none" stroke="#000099"/>
<g stroke="black" stroke-width="1" fill="none">
<line x1="287.5" y1="75.6799" x2="288.5" y2="75.6799"/>
</g>
<path d="M297.571,68.5163v -3.95714" fill="none" stroke="#000099"/>
<path d="M297.571,64.5591v -3.95714" fill="none" stroke="#000099"/>
<path d="M293.035,64.5591h 4.53543" fill="none" stroke="#000099"/>
<path d="M297.571,64.5591h 4.53543" fill="none" stroke="#000099"/>
<g stroke="black" stroke-width="1" fill="none">
<line x1="296.571" y1="64.5591" x2="297.571" y2="64.5591"/>
</g>
<path d="M306.642,64.2942v -3.94104" fill="none" stroke="#000099"/>
<path d="M306.642,60.3532v -3.94104" fill="none" stroke="#000099"/>
<path d="M302.106,60.3532h 4.53543" fill="none" stroke="#000099"/>
<path d="M306.642,60.3532h 4.53543" fill="none" stroke="#000099"/>
<g stroke="black" stroke-width="1" fill="none">
<line x1="305.642" y1="60.3532" x2="306.642" y2="60.3532"/>
</g>
<path d="M315.713,70.1292v -4.00904" fill="none" stroke="#000099"/>
<path d="M315.713,66.1202v -4.00904" fill="none" stroke="#000099"/>
<path d="M311.177,66.1202h 4.53543" fill="none" stroke="#000099"/>
<path d="M315.713,66.1202h 4.53543" fill="none" stroke="#000099"/>
<g stroke="black" stroke-width="1" fill="none">
<line x1="314.713" y1="66.1202" x2="315.713" y2="66.1202"/>
</g>
<path d="M324.783,79.2215v -3.7445" fill="none" stroke="#000099"/>
<path d="M324.783,75.4769v -3.7445" fill="none" stroke="#000099"/>
<path d="M320.248,75.4769h 4.53543" fill="none" stroke="#000099"/>
<path d="M324.783,75.4769h 4.53543" fill="none" stroke="#000099"/>
<g stroke="black" stroke-width="1" fill="none">
<line x1="323.783" y1="75.4769" x2="324.783" y2="75.4769"/>
</g>
<path d="M333.854,78.121v -3.77458" fill="none" stroke="#000099"/>
<path d="M333.854,74.3464v -3.77458" fill="none" stroke="#000099"/>
<path d="M329.319,74.3464h 4.53543" fill="none" stroke="#000099"/>
<path d="M333.854,74.3464h 4.53543" fill="none" stroke="#000099"/>
<g stroke="black" stroke-width="1" fill="none">
<line x1="332.854" y1="74.3464" x2="333.854" y2="74.3464"/>
</g>
<path d="M342.925,70.2214v -3.57455" fill="none" stroke="#000099"/>
<path d="M342.925,66.6468v -3.57455" fill="none" stroke="#000099"/>
<path d="M338.39,66.6468h 4.53543" fill="none" stroke="#000099"/>
<path d="M342.925,66.6468h 4.53543" fill="none" stroke="#000099"/>
<g stroke="black" stroke-width="1" fill="none">
<line x1="341.925" y1="66.6468" x2="342.925" y2="66.6468"/>
</g>
<path d="M351.996,68.2693v -3.94439" fill="none" stroke="#000099"/>
<path d="M351.996,64.3249v -3.94439" fill="none" stroke="#000099"/>
<path d="M347.461,64.3249h 4.53543" fill="none" stroke="#000099"/>
<path d="M351.996,64.3249h 4.53543" fill="none" stroke="#000099"/>
<g stroke="black" stroke-width="1" fill="none">
<line x1="350.996" y1="64.3249" x2="351.996" y2="64.3249"/>
</g>
<path d="M361.067,71.8631v -3.83402" fill="none" stroke="#000099"/>
<path d="M361.067,68.0291v -3.83402" fill="none" stroke="#000099"/>
<path d="M356.531,68.0291h 4.53543" fill="none" stroke="#000099"/>
<path d="M361.067,68.0291h 4.53543" fill="none" stroke="#000099"/>
<g stroke="black" stroke-width="1" fill="none">
<line x1="360.067" y1="68.0291" x2="361.067" y2="68.0291"/>
</g>
<path d="M370.138,67.1102v -3.61581" fill="none" stroke="#000099"/>
<path d="M370.138,63.4944v -3.61581" fill="none" stroke="#000099"/>
<path d="M365.602,63.4944h 4.53543" fill="none" stroke="#000099"/>
<path d="M370.138,63.4944h 4.53543" fill="none" stroke="#000099"/>
<g stroke="black" stroke-width="1" fill="none">
<line x1="369.138" y1="63.4944" x2="370.138" y2="63.4944"/>
</g>
<path d="M379.209,71.0029v -3.60757" fill="none" stroke="#000099"/>
<path d="M379.209,67.3953v -3.60757" fill="none" stroke="#000099"/>
<path d="M374.673,67.3953h 4.53543" fill="none" stroke="#000099"/>
<path d="M379.209,67.3953h 4.53543" fill="none" stroke="#000099"/>
<g stroke="black" stroke-width="1" fill="none">
<line x1="378.209" y1="67.3953" x2="379.209" y2="67.3953"/>
</g>
<path d="M388.28,74.0329v -3.51391" fill="none" stroke="#000099"/>
<path d="M388.28,70.519v -3.51391" fill="none" stroke="#000099"/>
<path d="M383.744,70.519h 4.53543" fill="none" stroke="#000099"/>
<path d="M388.28,70.519h 4.53543" fill="none" stroke="#000099"/>
<g stroke="black" stroke-width="1" fill="none">
<line x1="387.28" y1="70.519" x2="388.28" y2="70.519"/>
</g>
<path d="M397.35,78.1567v -3.44894" fill="none" stroke="#000099"/>
<path d="M397.35,74.7078v -3.44894" fill="none" stroke="#000099"/>
<path d="M392.815,74.7078h 4.53543" fill="none" stroke="#000099"/>
<path d="M397.35,74.7078h 4.53543" fill="none" stroke="#000099"/>
<g stroke="black" stroke-width="1" fill="none">
<line x1="396.35" y1="74.7078" x2="397.35" y2="74.7078"/>
</g>
<path d="M406.421,77.1947v -3.28548" fill="none" stroke="#000099"/>
<path d="M406.421,73.9092v -3.28548" fill="none" stroke="#000099"/>
<path d="M401.886,73.9092h 4.53543" fill="none" stroke="#000099"/>
<path d="M406.421,73.9092h 4.53543" fill="none" stroke="#000099"/>
<g stroke="black" stroke-width="1" fill="none">
<line x1="405.421" y1="73.9092" x2="406.421" y2="73.9092"/>
</g>
<path d="M415.492,81.2801v -3.30066" fill="none" stroke="#000099"/>
<path d="M415.492,77.9794v -3.30066" fill="none" stroke="#000099"/>
<path d="M410.957,77.9794h 4.53543" fill="none" stroke="#000099"/>
<path d="M415.492,77.9794h 4.53543" fill="none" stroke="#000099"/>
<g stroke="black" stroke-width="1" fill="none">
<line x1="414.492" y1="77.9794" x2="415.492" y2="77.9794"/>
</g>
<path d="M424.563,69.9182v -3.89961" fill="none" stroke="#000099"/>
<path d="M424.563,66.0186v -3.89961" fill="none" stroke="#000099"/>
<path d="M420.028,66.0186h 4.53543" fill="none" stroke="#000099"/>
<path d="M424.563,66.0186h 4.53543" fill="none" stroke="#000099"/>
<g stroke="black" stroke-width="1" fill="none">
<line x1="423.563" y1="66.0186" x2="424.563" y2="66.0186"/>
</g>
<path d="M433.634,67.853v -3.84629" fill="none" stroke="#000099"/>
<path d="M433.634,64.0067v -3.84629" fill="none" stroke="#000099"/>
<path d="M429.098,64.0067h 4.53543" fill="none" stroke="#000099"/>
<path d="M433.634,64.0067h 4.53543" fill="none" stroke="#000099"/>
<g stroke="black" stroke-width="1" fill="none">
<line x1="432.634" y1="64.0067" x2="433.634" y2="64.0067"/>
</g>
<path d="M442.705,73.7184v -3.63054" fill="none" stroke="#000099"/>
<path d="M442.705,70.0878v -3.63054" fill="none" stroke="#000099"/>
<path d="M438.169,70.0878h 4.53543" fill="none" stroke="#000099"/>
<path d="M442.705,70.0878h 4.53543" fill="none" stroke="#000099"/>
<g stroke="black" stroke-width="1" fill="none">
<line x1="441.705" y1="70.0878" x2="442.705" y2="70.0878"/>
</g>
<path d="M451.776,67.2347v -4.0304" fill="none" stroke="#000099"/>
<path d="M451.776,63.2043v -4.0304" fill="none" stroke="#000099"/>
<path d="M447.24,63.2043h 4.53543" fill="none" stroke="#000099"/>
<path d="M451.776,63.2043h 4.53543" fill="none" stroke="#000099"/>
<g stroke="black" stroke-width="1" fill="none">
<line x1="450.776" y1="63.2043" x2="451.776" y2="63.2043"/>
</g>
<path d="M460.846,68.5679v -3.83826" fill="none" stroke="#000099"/>
<path d="M460.846,64.7296v -3.83826" fill="none" stroke="#000099"/>
<path d="M456.311,64.7296h 4.53543" fill="none" stroke="#000099"/>
<path d="M460.846,64.7296h 4.53543" fill="none" stroke="#000099"/>
<g stroke="black" stroke-width="1" fill="none">
<line x1="459.846" y1="64.7296" x2="460.846" y2="64.7296"/>
</g>
<path d="M469.917,73.4817v -3.56561" fill="none" stroke="#000099"/>
<path d="M469.917,69.9161v -3.56561" fill="none" stroke="#000099"/>
<path d="M465.382,69.9161h 4.53543" fill="none" stroke="#000099"/>
<path d="M469.917,69.9161h 4.53543" fill="none" stroke="#000099"/>
<g stroke="black" stroke-width="1" fill="none">
<line x1="468.917" y1="69.9161" x2="469.917" y2="69.9161"/>
</g>
<path d="M478.988,68.6822v -3.52938" fill="none" stroke="#000099"/>
<path d="M478.988,65.1528v -3.52938" fill="none" stroke="#000099"/>
<path d="M474.453,65.1528h 4.53543" fill="none" stroke="#000099"/>
<path d="M478.988,65.1528h 4.53543" fill="none" stroke="#000099"/>
<g stroke="black" stroke-width="1" fill="none">
<line x1="477.988" y1="65.1528" x2="478.988" y2="65.1528"/>
</g>
<path d="M488.059,70.0337v -3.70975" fill="none" stroke="#000099"/>
<path d="M488.059,66.324v -3.70975" fill="none" stroke="#000099"/>
<path d="M483.524,66.324h 4.53543" fill="none" stroke="#000099"/>
<path d="M488.059,66.324h 4.53543" fill="none" stroke="#000099"/>
<g stroke="black" stroke-width="1" fill="none">
<line x1="487.059" y1="66.324" x2="488.059" y2="66.324"/>
</g>
<path d="M497.13,69.5353v -3.9632" fill="none" stroke="#000099"/>
<path d="M497.13,65.5721v -3.9632" fill="none" stroke="#000099"/>
<path d="M492.594,65.5721h 4.53543" fill="none" stroke="#000099"/>
<path d="M497.13,65.5721h 4.53543" fill="none" stroke="#000099"/>
<g stroke="black" stroke-width="1" fill="none">
<line x1="496.13" y1="65.5721" x2="497.13" y2="65.5721"/>
</g>
<path d="M506.201,74.0551v -3.54549" fill="none" stroke="#000099"/>
<path d="M506.201,70.5096v -3.54549" fill="none" stroke="#000099"/>
<path d="M501.665,70.5096h 4.53543" fill="none" stroke="#000099"/>
<path d="M506.201,70.5096h 4.53543" fill="none" stroke="#000099"/>
<g stroke="black" stroke-width="1" fill="none">
<line x1="505.201" y1="70.5096" x2="506.201" y2="70.5096"/>
</g>
<path d="M57.1929,367.651h 453.543" fill="none" stroke="black"/>
<path d="M94.2169,357.847v 9.80404" fill="none" stroke="black"/>
<path d="M103.473,362.749v 4.90202" fill="none" stroke="black"/>
<path d="M112.729,362.749v 4.90202" fill="none" stroke="black"/>
<path d="M121.985,362.749v 4.90202" fill="none" stroke="black"/>
<path d="M131.241,362.749v 4.90202" fill="none" stroke="black"/>
<path d="M140.497,357.847v 9.80404" fill="none" stroke="black"/>
<path d="M149.753,362.749v 4.90202" fill="none" stroke="black"/>
<path d="M159.009,362.749v 4.90202" fill="none" stroke="black"/>
<path d="M168.265,362.749v 4.90202" fill="none" stroke="black"/>
<path d="M177.521,362.749v 4.90202" fill="none" stroke="black"/>
<path d="M186.777,357.847v 9.80404" fill="none" stroke="black"/>
<path d="M196.033,362.749v 4.90202" fill="none" stroke="black"/>
<path d="M205.289,362.749v 4.90202" fill="none" stroke="black"/>
<path d="M214.545,362.749v 4.90202" fill="none" stroke="black"/>
<path d="M223.801,362.749v 4.90202" fill="none" stroke="black"/>
<path d="M233.057,357.847v 9.80404" fill="none" stroke="black"/>
<path d="M242.313,362.749v 4.90202" fill="none" stroke="black"/>
<path d="M251.569,362.749v 4.90202" fill="none" stroke="black"/>
<path d="M260.825,362.749v 4.90202" fill="none" stroke="black"/>
<path d="M270.081,362.749v 4.90202" fill="none" stroke="black"/>
<path d="M279.337,357.847v 9.80404" fill="none" stroke="black"/>
<path d="M288.593,362.749v 4.90202" fill="none" stroke="black"/>
<path d="M297.849,362.749v 4.90202" fill="none" stroke="black"/>
<path d="M307.105,362.749v 4.90202" fill="none" stroke="black"/>
<path d="M316.361,362.749v 4.90202" fill="none" stroke="black"/>
<path d="M325.617,357.847v 9.80404" fill="none" stroke="black"/>
<path d="M334.872,362.749v 4.90202" fill="none" stroke="black"/>
<path d="M344.128,362.749v 4.90202" fill="none" stroke="black"/>
<path d="M353.384,362.749v 4.90202" fill="none" stroke="black"/>
<path d="M362.64,362.749v 4.90202" fill="none" stroke="black"/>
<path d="M371.896,357.847v 9.80404" fill="none" stroke="black"/>
<path d="M381.152,362.749v 4.90202" fill="none" stroke="black"/>
<path d="M390.408,362.749v 4.90202" fill="none" stroke="black"/>
<path d="M399.664,362.749v 4.90202" fill="none" stroke="black"/>
<path d="M408.92,362.749v 4.90202" fill="none" stroke="black"/>
<path d="M418.176,357.847v 9.80404" fill="none" stroke="black"/>
<path d="M427.432,362.749v 4.90202" fill="none" stroke="black"/>
<path d="M436.688,362.749v 4.90202" fill="none" stroke="black"/>
<path d="M445.944,362.749v 4.90202" fill="none" stroke="black"/>
<path d="M455.2,362.749v 4.90202" fill="none" stroke="black"/>
<path d="M464.456,357.847v 9.80404" fill="none" stroke="black"/>
<path d="M473.712,362.749v 4.90202" fill="none" stroke="black"/>
<path d="M482.968,362.749v 4.90202" fill="none" stroke="black"/>
<path d="M492.224,362.749v 4.90202" fill="none" stroke="black"/>
<path d="M501.48,362.749v 4.90202" fill="none" stroke="black"/>
<path d="M510.736,357.847v 9.80404" fill="none" stroke="black"/>
<path d="M94.2169,357.847v 9.80404" fill="none" stroke="black"/>
<path d="M84.9609,362.749v 4.90202" fill="none" stroke="black"/>
<path d="M75.7049,362.749v 4.90202" fill="none" stroke="black"/>
<path d="M66.4489,362.749v 4.90202" fill="none" stroke="black"/>
<path d="M510.736,357.847v 9.80404" fill="none" stroke="black"/>
<text xml:space="preserve" x="90.0151" y="380.795" fill="black" font-size="13.617" font-family="Helvetica">5</text>
<text xml:space="preserve" x="132.641" y="380.795" fill="black" font-size="13.617" font-family="Helvetica">10</text>
<text xml:space="preserve" x="178.82" y="380.795" fill="black" font-size="13.617" font-family="Helvetica">15</text>
<text xml:space="preserve" x="224.998" y="380.795" fill="black" font-size="13.617" font-family="Helvetica">20</text>
<text xml:space="preserve" x="271.177" y="380.795" fill="black" font-size="13.617" font-family="Helvetica">25</text>
<text xml:space="preserve" x="317.355" y="380.795" fill="black" font-size="13.617" font-family="Helvetica">30</text>
<text xml:space="preserve" x="363.534" y="380.795" fill="black" font-size="13.617" font-family="Helvetica">35</text>
<text xml:space="preserve" x="409.712" y="380.795" fill="black" font-size="13.617" font-family="Helvetica">40</text>
<text xml:space="preserve" x="456.601" y="380.795" fill="black" font-size="13.617" font-family="Helvetica">45</text>
<text xml:space="preserve" x="502.779" y="380.795" fill="black" font-size="13.617" font-family="Helvetica">50</text>
<text xml:space="preserve" x="482.887" y="395.714" fill="black" font-size="13.617" font-family="Helvetica">NPV</text>
<path d="M57.1929,367.651v -326.801" fill="none" stroke="black"/>
<path d="M70.7992,367.651h -13.6063" fill="none" stroke="black"/>
<path d="M63.9961,355.381h -6.80315" fill="none" stroke="black"/>
<path d="M63.9961,343.11h -6.80315" fill="none" stroke="black"/>
<path d="M63.9961,330.839h -6.80315" fill="none" stroke="black"/>
<path d="M63.9961,318.568h -6.80315" fill="none" stroke="black"/>
<path d="M70.7992,306.297h -13.6063" fill="none" stroke="black"/>
<path d="M63.9961,294.026h -6.80315" fill="none" stroke="black"/>
<path d="M63.9961,281.755h -6.80315" fill="none" stroke="black"/>
<path d="M63.9961,269.484h -6.80315" fill="none" stroke="black"/>
<path d="M63.9961,257.214h -6.80315" fill="none" stroke="black"/>
<path d="M70.7992,244.943h -13.6063" fill="none" stroke="black"/>
<path d="M63.9961,232.672h -6.80315" fill="none" stroke="black"/>
<path d="M63.9961,220.401h -6.80315" fill="none" stroke="black"/>
<path d="M63.9961,208.13h -6.80315" fill="none" stroke="black"/>
<path d="M63.9961,195.859h -6.80315" fill="none" stroke="black"/>
<path d="M70.7992,183.588h -13.6063" fill="none" stroke="black"/>
<path d="M63.9961,171.318h -6.80315" fill="none" stroke="black"/>
<path d="M63.9961,159.047h -6.80315" fill="none" stroke="black"/>
<path d="M63.9961,146.776h -6.80315" fill="none" stroke="black"/>
<path d="M63.9961,134.505h -6.80315" fill="none" stroke="black"/>
<path d="M70.7992,122.234h -13.6063" fill="none" stroke="black"/>
<path d="M63.9961,109.963h -6.80315" fill="none" stroke="black"/>
<path d="M63.9961,97.6924h -6.80315" fill="none" stroke="black"/>
<path d="M63.9961,85.4215h -6.80315" fill="none" stroke="black"/>
<path d="M63.9961,73.1507h -6.80315" fill="none" stroke="black"/>
<path d="M70.7992,60.8798h -13.6063" fill="none" stroke="black"/>
<path d="M70.7992,60.8798h -13.6063" fill="none" stroke="black"/>
<path d="M63.9961,48.6089h -6.80315" fill="none" stroke="black"/>
<text xml:space="preserve" x="46.6784" y="372.269" fill="black" font-size="13.617" font-family="Helvetica">0</text>
<text xml:space="preserve" x="46.6784" y="311.172" fill="black" font-size="13.617" font-family="Helvetica">5</text>
<text xml:space="preserve" x="38.8636" y="249.364" fill="black" font-size="13.617" font-family="Helvetica">10</text>
<text xml:space="preserve" x="38.8636" y="188.266" fill="black" font-size="13.617" font-family="Helvetica">15</text>
<text xml:space="preserve" x="38.8636" y="127.168" fill="black" font-size="13.617" font-family="Helvetica">20</text>
<text xml:space="preserve" x="38.8636" y="65.3603" fill="black" font-size="13.617" font-family="Helvetica">25</text>
<g transform="rotate(-90,25.3653,75.3064)">
<text xml:space="preserve" x="25.3653" y="75.3064" fill="black" font-size="13.617" font-family="Helvetica">jet pT</text>
</g>
<rect x="442.705" y="26.5526" width="113.386" height="98.0404" fill="white"/>
<path d="M442.705,124.593h 113.386" fill="none" stroke="black"/>
<path d="M556.091,124.593v -98.0404" fill="none" stroke="black"/>
<path d="M556.091,26.5526h -113.386" fill="none" stroke="black"/>
<path d="M442.705,26.5526v 98.0404" fill="none" stroke="black"/>
<text xml:space="preserve" x="447.365" y="36.9428" fill="black" font-size="8.82993" font-family="Helvetica">Profile Truth-jet pT vs. NPV</text>
<path d="M442.705,42.8927h 113.386" fill="none" stroke="black"/>
<text xml:space="preserve" x="448.076" y="54.7037" fill="black" font-size="11.9157" font-family="Helvetica">Entries </text>
<text xml:space="preserve" x="509.173" y="54.7037" fill="black" font-size="11.9157" font-family="Helvetica"> 674749</text>
<text xml:space="preserve" x="448.076" y="71.0438" fill="black" font-size="11.9157" font-family="Helvetica">Mean  </text>
<text xml:space="preserve" x="515.567" y="71.7542" fill="black" font-size="11.9157" font-family="Helvetica">  11.27</text>
<text xml:space="preserve" x="448.076" y="86.6734" fill="black" font-size="11.9157" font-family="Helvetica">Mean y </text>
<text xml:space="preserve" x="515.567" y="87.3838" fill="black" font-size="11.9157" font-family="Helvetica">  24.43</text>
<text xml:space="preserve" x="448.076" y="103.724" fill="black" font-size="11.9157" font-family="Helvetica">Std Dev   </text>
<text xml:space="preserve" x="519.119" y="103.724" fill="black" font-size="11.9157" font-family="Helvetica">   7.76</text>
<text xml:space="preserve" x="448.076" y="119.354" fill="black" font-size="11.9157" font-family="Helvetica">Std Dev y </text>
<text xml:space="preserve" x="515.567" y="120.064" fill="black" font-size="11.9157" font-family="Helvetica">  4.882</text></svg>
