<?xml version="1.0" standalone="no"?>
<svg width="567.429" height="409.002" viewBox="0 0 567.429 409.002" xmlns="http://www.w3.org/2000/svg" shape-rendering="crispEdges">
<title>
prof_jetpt_mu.svg
</title>
<desc>
Creator: ROOT Version 6.18/04
CreationDate: Fri Oct  9 01:18:00 2020</desc>
<defs>
</defs>
<rect x="0.5" y="0" width="566.929" height="408.502" fill="white"/>
<rect x="57.1929" y="40.8502" width="453.543" height="326.801" fill="white"/>
<rect x="57.1929" y="40.8502" width="453.543" height="326.801" fill="none" stroke="black"/>
<path d="M188.72,150.647v -1.29821" fill="none" stroke="#000099"/>
<path d="M188.72,149.348v -1.29821" fill="none" stroke="#000099"/>
<path d="M184.185,149.348h 4.53543" fill="none" stroke="#000099"/>
<path d="M188.72,149.348h 4.53543" fill="none" stroke="#000099"/>
<g stroke="black" stroke-width="1" fill="none">
<line x1="187.72" y1="149.348" x2="188.72" y2="149.348"/>
</g>
<path d="M197.791,145.797v -1.18794" fill="none" stroke="#000099"/>
<path d="M197.791,144.609v -1.18794" fill="none" stroke="#000099"/>
<path d="M193.256,144.609h 4.53543" fill="none" stroke="#000099"/>
<path d="M197.791,144.609h 4.53543" fill="none" stroke="#000099"/>
<g stroke="black" stroke-width="1" fill="none">
<line x1="196.791" y1="144.609" x2="197.791" y2="144.609"/>
</g>
<path d="M206.862,143.332v -1.30634" fill="none" stroke="#000099"/>
<path d="M206.862,142.025v -1.30634" fill="none" stroke="#000099"/>
<path d="M202.327,142.025h 4.53543" fill="none" stroke="#000099"/>
<path d="M206.862,142.025h 4.53543" fill="none" stroke="#000099"/>
<g stroke="black" stroke-width="1" fill="none">
<line x1="205.862" y1="142.025" x2="206.862" y2="142.025"/>
</g>
<path d="M215.933,143.145v -1.37129" fill="none" stroke="#000099"/>
<path d="M215.933,141.773v -1.37129" fill="none" stroke="#000099"/>
<path d="M211.398,141.773h 4.53543" fill="none" stroke="#000099"/>
<path d="M215.933,141.773h 4.53543" fill="none" stroke="#000099"/>
<g stroke="black" stroke-width="1" fill="none">
<line x1="214.933" y1="141.773" x2="215.933" y2="141.773"/>
</g>
<path d="M225.004,142.992v -1.44793" fill="none" stroke="#000099"/>
<path d="M225.004,141.544v -1.44793" fill="none" stroke="#000099"/>
<path d="M220.469,141.544h 4.53543" fill="none" stroke="#000099"/>
<path d="M225.004,141.544h 4.53543" fill="none" stroke="#000099"/>
<g stroke="black" stroke-width="1" fill="none">
<line x1="224.004" y1="141.544" x2="225.004" y2="141.544"/>
</g>
<path d="M234.075,143.739v -1.56511" fill="none" stroke="#000099"/>
<path d="M234.075,142.174v -1.56511" fill="none" stroke="#000099"/>
<path d="M229.539,142.174h 4.53543" fill="none" stroke="#000099"/>
<path d="M234.075,142.174h 4.53543" fill="none" stroke="#000099"/>
<g stroke="black" stroke-width="1" fill="none">
<line x1="233.075" y1="142.174" x2="234.075" y2="142.174"/>
</g>
<path d="M243.146,139.911v -1.68626" fill="none" stroke="#000099"/>
<path d="M243.146,138.225v -1.68626" fill="none" stroke="#000099"/>
<path d="M238.61,138.225h 4.53543" fill="none" stroke="#000099"/>
<path d="M243.146,138.225h 4.53543" fill="none" stroke="#000099"/>
<g stroke="black" stroke-width="1" fill="none">
<line x1="242.146" y1="138.225" x2="243.146" y2="138.225"/>
</g>
<path d="M252.217,137.809v -1.80739" fill="none" stroke="#000099"/>
<path d="M252.217,136.001v -1.80739" fill="none" stroke="#000099"/>
<path d="M247.681,136.001h 4.53543" fill="none" stroke="#000099"/>
<path d="M252.217,136.001h 4.53543" fill="none" stroke="#000099"/>
<g stroke="black" stroke-width="1" fill="none">
<line x1="251.217" y1="136.001" x2="252.217" y2="136.001"/>
</g>
<path d="M261.287,135.495v -1.90308" fill="none" stroke="#000099"/>
<path d="M261.287,133.592v -1.90308" fill="none" stroke="#000099"/>
<path d="M256.752,133.592h 4.53543" fill="none" stroke="#000099"/>
<path d="M261.287,133.592h 4.53543" fill="none" stroke="#000099"/>
<g stroke="black" stroke-width="1" fill="none">
<line x1="260.287" y1="133.592" x2="261.287" y2="133.592"/>
</g>
<path d="M270.358,137.427v -2.10797" fill="none" stroke="#000099"/>
<path d="M270.358,135.319v -2.10797" fill="none" stroke="#000099"/>
<path d="M265.823,135.319h 4.53543" fill="none" stroke="#000099"/>
<path d="M270.358,135.319h 4.53543" fill="none" stroke="#000099"/>
<g stroke="black" stroke-width="1" fill="none">
<line x1="269.358" y1="135.319" x2="270.358" y2="135.319"/>
</g>
<path d="M279.429,133.731v -2.4086" fill="none" stroke="#000099"/>
<path d="M279.429,131.323v -2.4086" fill="none" stroke="#000099"/>
<path d="M274.894,131.323h 4.53543" fill="none" stroke="#000099"/>
<path d="M279.429,131.323h 4.53543" fill="none" stroke="#000099"/>
<g stroke="black" stroke-width="1" fill="none">
<line x1="278.429" y1="131.323" x2="279.429" y2="131.323"/>
</g>
<path d="M288.5,128.644v -2.3306" fill="none" stroke="#000099"/>
<path d="M288.5,126.313v -2.3306" fill="none" stroke="#000099"/>
<path d="M283.965,126.313h 4.53543" fill="none" stroke="#000099"/>
<path d="M288.5,126.313h 4.53543" fill="none" stroke="#000099"/>
<g stroke="black" stroke-width="1" fill="none">
<line x1="287.5" y1="126.313" x2="288.5" y2="126.313"/>
</g>
<path d="M297.571,131.179v -2.64802" fill="none" stroke="#000099"/>
<path d="M297.571,128.531v -2.64802" fill="none" stroke="#000099"/>
<path d="M293.035,128.531h 4.53543" fill="none" stroke="#000099"/>
<path d="M297.571,128.531h 4.53543" fill="none" stroke="#000099"/>
<g stroke="black" stroke-width="1" fill="none">
<line x1="296.571" y1="128.531" x2="297.571" y2="128.531"/>
</g>
<path d="M306.642,126.346v -2.72995" fill="none" stroke="#000099"/>
<path d="M306.642,123.616v -2.72995" fill="none" stroke="#000099"/>
<path d="M302.106,123.616h 4.53543" fill="none" stroke="#000099"/>
<path d="M306.642,123.616h 4.53543" fill="none" stroke="#000099"/>
<g stroke="black" stroke-width="1" fill="none">
<line x1="305.642" y1="123.616" x2="306.642" y2="123.616"/>
</g>
<path d="M315.713,120.564v -2.91206" fill="none" stroke="#000099"/>
<path d="M315.713,117.652v -2.91206" fill="none" stroke="#000099"/>
<path d="M311.177,117.652h 4.53543" fill="none" stroke="#000099"/>
<path d="M315.713,117.652h 4.53543" fill="none" stroke="#000099"/>
<g stroke="black" stroke-width="1" fill="none">
<line x1="314.713" y1="117.652" x2="315.713" y2="117.652"/>
</g>
<path d="M324.783,128.305v -3.45187" fill="none" stroke="#000099"/>
<path d="M324.783,124.853v -3.45187" fill="none" stroke="#000099"/>
<path d="M320.248,124.853h 4.53543" fill="none" stroke="#000099"/>
<path d="M324.783,124.853h 4.53543" fill="none" stroke="#000099"/>
<g stroke="black" stroke-width="1" fill="none">
<line x1="323.783" y1="124.853" x2="324.783" y2="124.853"/>
</g>
<path d="M333.854,123.794v -3.43598" fill="none" stroke="#000099"/>
<path d="M333.854,120.358v -3.43598" fill="none" stroke="#000099"/>
<path d="M329.319,120.358h 4.53543" fill="none" stroke="#000099"/>
<path d="M333.854,120.358h 4.53543" fill="none" stroke="#000099"/>
<g stroke="black" stroke-width="1" fill="none">
<line x1="332.854" y1="120.358" x2="333.854" y2="120.358"/>
</g>
<path d="M342.925,124.652v -4.20425" fill="none" stroke="#000099"/>
<path d="M342.925,120.447v -4.20425" fill="none" stroke="#000099"/>
<path d="M338.39,120.447h 4.53543" fill="none" stroke="#000099"/>
<path d="M342.925,120.447h 4.53543" fill="none" stroke="#000099"/>
<g stroke="black" stroke-width="1" fill="none">
<line x1="341.925" y1="120.447" x2="342.925" y2="120.447"/>
</g>
<path d="M351.996,115.852v -4.27928" fill="none" stroke="#000099"/>
<path d="M351.996,111.572v -4.27928" fill="none" stroke="#000099"/>
<path d="M347.461,111.572h 4.53543" fill="none" stroke="#000099"/>
<path d="M351.996,111.572h 4.53543" fill="none" stroke="#000099"/>
<g stroke="black" stroke-width="1" fill="none">
<line x1="350.996" y1="111.572" x2="351.996" y2="111.572"/>
</g>
<path d="M361.067,119.072v -4.35951" fill="none" stroke="#000099"/>
<path d="M361.067,114.712v -4.35951" fill="none" stroke="#000099"/>
<path d="M356.531,114.712h 4.53543" fill="none" stroke="#000099"/>
<path d="M361.067,114.712h 4.53543" fill="none" stroke="#000099"/>
<g stroke="black" stroke-width="1" fill="none">
<line x1="360.067" y1="114.712" x2="361.067" y2="114.712"/>
</g>
<path d="M370.138,118.379v -5.47799" fill="none" stroke="#000099"/>
<path d="M370.138,112.901v -5.47799" fill="none" stroke="#000099"/>
<path d="M365.602,112.901h 4.53543" fill="none" stroke="#000099"/>
<path d="M370.138,112.901h 4.53543" fill="none" stroke="#000099"/>
<g stroke="black" stroke-width="1" fill="none">
<line x1="369.138" y1="112.901" x2="370.138" y2="112.901"/>
</g>
<path d="M379.209,121.425v -5.3418" fill="none" stroke="#000099"/>
<path d="M379.209,116.084v -5.3418" fill="none" stroke="#000099"/>
<path d="M374.673,116.084h 4.53543" fill="none" stroke="#000099"/>
<path d="M379.209,116.084h 4.53543" fill="none" stroke="#000099"/>
<g stroke="black" stroke-width="1" fill="none">
<line x1="378.209" y1="116.084" x2="379.209" y2="116.084"/>
</g>
<path d="M388.28,127.351v -6.66276" fill="none" stroke="#000099"/>
<path d="M388.28,120.688v -6.66276" fill="none" stroke="#000099"/>
<path d="M383.744,120.688h 4.53543" fill="none" stroke="#000099"/>
<path d="M388.28,120.688h 4.53543" fill="none" stroke="#000099"/>
<g stroke="black" stroke-width="1" fill="none">
<line x1="387.28" y1="120.688" x2="388.28" y2="120.688"/>
</g>
<path d="M397.35,112.978v -7.57149" fill="none" stroke="#000099"/>
<path d="M397.35,105.407v -7.57149" fill="none" stroke="#000099"/>
<path d="M392.815,105.407h 4.53543" fill="none" stroke="#000099"/>
<path d="M397.35,105.407h 4.53543" fill="none" stroke="#000099"/>
<g stroke="black" stroke-width="1" fill="none">
<line x1="396.35" y1="105.407" x2="397.35" y2="105.407"/>
</g>
<path d="M406.421,120.128v -6.12896" fill="none" stroke="#000099"/>
<path d="M406.421,113.999v -6.12896" fill="none" stroke="#000099"/>
<path d="M401.886,113.999h 4.53543" fill="none" stroke="#000099"/>
<path d="M406.421,113.999h 4.53543" fill="none" stroke="#000099"/>
<g stroke="black" stroke-width="1" fill="none">
<line x1="405.421" y1="113.999" x2="406.421" y2="113.999"/>
</g>
<path d="M415.492,120.868v -8.62179" fill="none" stroke="#000099"/>
<path d="M415.492,112.246v -8.62179" fill="none" stroke="#000099"/>
<path d="M410.957,112.246h 4.53543" fill="none" stroke="#000099"/>
<path d="M415.492,112.246h 4.53543" fill="none" stroke="#000099"/>
<g stroke="black" stroke-width="1" fill="none">
<line x1="414.492" y1="112.246" x2="415.492" y2="112.246"/>
</g>
<path d="M424.563,109.654v -7.55105" fill="none" stroke="#000099"/>
<path d="M424.563,102.103v -7.55105" fill="none" stroke="#000099"/>
<path d="M420.028,102.103h 4.53543" fill="none" stroke="#000099"/>
<path d="M424.563,102.103h 4.53543" fill="none" stroke="#000099"/>
<g stroke="black" stroke-width="1" fill="none">
<line x1="423.563" y1="102.103" x2="424.563" y2="102.103"/>
</g>
<path d="M433.634,121.697v -8.26801" fill="none" stroke="#000099"/>
<path d="M433.634,113.429v -8.26801" fill="none" stroke="#000099"/>
<path d="M429.098,113.429h 4.53543" fill="none" stroke="#000099"/>
<path d="M433.634,113.429h 4.53543" fill="none" stroke="#000099"/>
<g stroke="black" stroke-width="1" fill="none">
<line x1="432.634" y1="113.429" x2="433.634" y2="113.429"/>
</g>
<path d="M442.705,118.164v -8.76404" fill="none" stroke="#000099"/>
<path d="M442.705,109.4v -8.76404" fill="none" stroke="#000099"/>
<path d="M438.169,109.4h 4.53543" fill="none" stroke="#000099"/>
<path d="M442.705,109.4h 4.53543" fill="none" stroke="#000099"/>
<g stroke="black" stroke-width="1" fill="none">
<line x1="441.705" y1="109.4" x2="442.705" y2="109.4"/>
</g>
<path d="M451.776,105.304v -7.61836" fill="none" stroke="#000099"/>
<path d="M451.776,97.6854v -7.61836" fill="none" stroke="#000099"/>
<path d="M447.24,97.6854h 4.53543" fill="none" stroke="#000099"/>
<path d="M451.776,97.6854h 4.53543" fill="none" stroke="#000099"/>
<g stroke="black" stroke-width="1" fill="none">
<line x1="450.776" y1="97.6854" x2="451.776" y2="97.6854"/>
</g>
<path d="M460.846,117.502v -9.76846" fill="none" stroke="#000099"/>
<path d="M460.846,107.734v -9.76846" fill="none" stroke="#000099"/>
<path d="M456.311,107.734h 4.53543" fill="none" stroke="#000099"/>
<path d="M460.846,107.734h 4.53543" fill="none" stroke="#000099"/>
<g stroke="black" stroke-width="1" fill="none">
<line x1="459.846" y1="107.734" x2="460.846" y2="107.734"/>
</g>
<path d="M469.917,134.357v -13.7156" fill="none" stroke="#000099"/>
<path d="M469.917,120.642v -13.7156" fill="none" stroke="#000099"/>
<path d="M465.382,120.642h 4.53543" fill="none" stroke="#000099"/>
<path d="M469.917,120.642h 4.53543" fill="none" stroke="#000099"/>
<g stroke="black" stroke-width="1" fill="none">
<line x1="468.917" y1="120.642" x2="469.917" y2="120.642"/>
</g>
<path d="M478.988,113.408v -12.5797" fill="none" stroke="#000099"/>
<path d="M478.988,100.828v -12.5797" fill="none" stroke="#000099"/>
<path d="M474.453,100.828h 4.53543" fill="none" stroke="#000099"/>
<path d="M478.988,100.828h 4.53543" fill="none" stroke="#000099"/>
<g stroke="black" stroke-width="1" fill="none">
<line x1="477.988" y1="100.828" x2="478.988" y2="100.828"/>
</g>
<path d="M488.059,131.929v -12.3569" fill="none" stroke="#000099"/>
<path d="M488.059,119.572v -12.3569" fill="none" stroke="#000099"/>
<path d="M483.524,119.572h 4.53543" fill="none" stroke="#000099"/>
<path d="M488.059,119.572h 4.53543" fill="none" stroke="#000099"/>
<g stroke="black" stroke-width="1" fill="none">
<line x1="487.059" y1="119.572" x2="488.059" y2="119.572"/>
</g>
<path d="M497.13,125.458v -15.5349" fill="none" stroke="#000099"/>
<path d="M497.13,109.923v -15.5349" fill="none" stroke="#000099"/>
<path d="M492.594,109.923h 4.53543" fill="none" stroke="#000099"/>
<path d="M497.13,109.923h 4.53543" fill="none" stroke="#000099"/>
<g stroke="black" stroke-width="1" fill="none">
<line x1="496.13" y1="109.923" x2="497.13" y2="109.923"/>
</g>
<path d="M506.201,98.1249v -20.8564" fill="none" stroke="#000099"/>
<path d="M506.201,77.2685v -20.8564" fill="none" stroke="#000099"/>
<path d="M501.665,77.2685h 4.53543" fill="none" stroke="#000099"/>
<path d="M506.201,77.2685h 4.53543" fill="none" stroke="#000099"/>
<g stroke="black" stroke-width="1" fill="none">
<line x1="505.201" y1="77.2685" x2="506.201" y2="77.2685"/>
</g>
<path d="M57.1929,367.651h 453.543" fill="none" stroke="black"/>
<path d="M94.2169,357.847v 9.80404" fill="none" stroke="black"/>
<path d="M103.473,362.749v 4.90202" fill="none" stroke="black"/>
<path d="M112.729,362.749v 4.90202" fill="none" stroke="black"/>
<path d="M121.985,362.749v 4.90202" fill="none" stroke="black"/>
<path d="M131.241,362.749v 4.90202" fill="none" stroke="black"/>
<path d="M140.497,357.847v 9.80404" fill="none" stroke="black"/>
<path d="M149.753,362.749v 4.90202" fill="none" stroke="black"/>
<path d="M159.009,362.749v 4.90202" fill="none" stroke="black"/>
<path d="M168.265,362.749v 4.90202" fill="none" stroke="black"/>
<path d="M177.521,362.749v 4.90202" fill="none" stroke="black"/>
<path d="M186.777,357.847v 9.80404" fill="none" stroke="black"/>
<path d="M196.033,362.749v 4.90202" fill="none" stroke="black"/>
<path d="M205.289,362.749v 4.90202" fill="none" stroke="black"/>
<path d="M214.545,362.749v 4.90202" fill="none" stroke="black"/>
<path d="M223.801,362.749v 4.90202" fill="none" stroke="black"/>
<path d="M233.057,357.847v 9.80404" fill="none" stroke="black"/>
<path d="M242.313,362.749v 4.90202" fill="none" stroke="black"/>
<path d="M251.569,362.749v 4.90202" fill="none" stroke="black"/>
<path d="M260.825,362.749v 4.90202" fill="none" stroke="black"/>
<path d="M270.081,362.749v 4.90202" fill="none" stroke="black"/>
<path d="M279.337,357.847v 9.80404" fill="none" stroke="black"/>
<path d="M288.593,362.749v 4.90202" fill="none" stroke="black"/>
<path d="M297.849,362.749v 4.90202" fill="none" stroke="black"/>
<path d="M307.105,362.749v 4.90202" fill="none" stroke="black"/>
<path d="M316.361,362.749v 4.90202" fill="none" stroke="black"/>
<path d="M325.617,357.847v 9.80404" fill="none" stroke="black"/>
<path d="M334.872,362.749v 4.90202" fill="none" stroke="black"/>
<path d="M344.128,362.749v 4.90202" fill="none" stroke="black"/>
<path d="M353.384,362.749v 4.90202" fill="none" stroke="black"/>
<path d="M362.64,362.749v 4.90202" fill="none" stroke="black"/>
<path d="M371.896,357.847v 9.80404" fill="none" stroke="black"/>
<path d="M381.152,362.749v 4.90202" fill="none" stroke="black"/>
<path d="M390.408,362.749v 4.90202" fill="none" stroke="black"/>
<path d="M399.664,362.749v 4.90202" fill="none" stroke="black"/>
<path d="M408.92,362.749v 4.90202" fill="none" stroke="black"/>
<path d="M418.176,357.847v 9.80404" fill="none" stroke="black"/>
<path d="M427.432,362.749v 4.90202" fill="none" stroke="black"/>
<path d="M436.688,362.749v 4.90202" fill="none" stroke="black"/>
<path d="M445.944,362.749v 4.90202" fill="none" stroke="black"/>
<path d="M455.2,362.749v 4.90202" fill="none" stroke="black"/>
<path d="M464.456,357.847v 9.80404" fill="none" stroke="black"/>
<path d="M473.712,362.749v 4.90202" fill="none" stroke="black"/>
<path d="M482.968,362.749v 4.90202" fill="none" stroke="black"/>
<path d="M492.224,362.749v 4.90202" fill="none" stroke="black"/>
<path d="M501.48,362.749v 4.90202" fill="none" stroke="black"/>
<path d="M510.736,357.847v 9.80404" fill="none" stroke="black"/>
<path d="M94.2169,357.847v 9.80404" fill="none" stroke="black"/>
<path d="M84.9609,362.749v 4.90202" fill="none" stroke="black"/>
<path d="M75.7049,362.749v 4.90202" fill="none" stroke="black"/>
<path d="M66.4489,362.749v 4.90202" fill="none" stroke="black"/>
<path d="M510.736,357.847v 9.80404" fill="none" stroke="black"/>
<text xml:space="preserve" x="90.0151" y="380.795" fill="black" font-size="13.617" font-family="Helvetica">5</text>
<text xml:space="preserve" x="132.641" y="380.795" fill="black" font-size="13.617" font-family="Helvetica">10</text>
<text xml:space="preserve" x="178.82" y="380.795" fill="black" font-size="13.617" font-family="Helvetica">15</text>
<text xml:space="preserve" x="224.998" y="380.795" fill="black" font-size="13.617" font-family="Helvetica">20</text>
<text xml:space="preserve" x="271.177" y="380.795" fill="black" font-size="13.617" font-family="Helvetica">25</text>
<text xml:space="preserve" x="317.355" y="380.795" fill="black" font-size="13.617" font-family="Helvetica">30</text>
<text xml:space="preserve" x="363.534" y="380.795" fill="black" font-size="13.617" font-family="Helvetica">35</text>
<text xml:space="preserve" x="409.712" y="380.795" fill="black" font-size="13.617" font-family="Helvetica">40</text>
<text xml:space="preserve" x="456.601" y="380.795" fill="black" font-size="13.617" font-family="Helvetica">45</text>
<text xml:space="preserve" x="502.779" y="380.795" fill="black" font-size="13.617" font-family="Helvetica">50</text>
<text xml:space="preserve" x="435.998" y="392.872" fill="black" font-size="13.617" font-family="Helvetica">mu_average</text>
<path d="M57.1929,367.651v -326.801" fill="none" stroke="black"/>
<path d="M70.7992,367.651h -13.6063" fill="none" stroke="black"/>
<path d="M63.9961,357.57h -6.80315" fill="none" stroke="black"/>
<path d="M63.9961,347.488h -6.80315" fill="none" stroke="black"/>
<path d="M63.9961,337.406h -6.80315" fill="none" stroke="black"/>
<path d="M63.9961,327.325h -6.80315" fill="none" stroke="black"/>
<path d="M70.7992,317.243h -13.6063" fill="none" stroke="black"/>
<path d="M63.9961,307.162h -6.80315" fill="none" stroke="black"/>
<path d="M63.9961,297.08h -6.80315" fill="none" stroke="black"/>
<path d="M63.9961,286.998h -6.80315" fill="none" stroke="black"/>
<path d="M63.9961,276.917h -6.80315" fill="none" stroke="black"/>
<path d="M70.7992,266.835h -13.6063" fill="none" stroke="black"/>
<path d="M63.9961,256.753h -6.80315" fill="none" stroke="black"/>
<path d="M63.9961,246.672h -6.80315" fill="none" stroke="black"/>
<path d="M63.9961,236.59h -6.80315" fill="none" stroke="black"/>
<path d="M63.9961,226.508h -6.80315" fill="none" stroke="black"/>
<path d="M70.7992,216.427h -13.6063" fill="none" stroke="black"/>
<path d="M63.9961,206.345h -6.80315" fill="none" stroke="black"/>
<path d="M63.9961,196.263h -6.80315" fill="none" stroke="black"/>
<path d="M63.9961,186.182h -6.80315" fill="none" stroke="black"/>
<path d="M63.9961,176.1h -6.80315" fill="none" stroke="black"/>
<path d="M70.7992,166.019h -13.6063" fill="none" stroke="black"/>
<path d="M63.9961,155.937h -6.80315" fill="none" stroke="black"/>
<path d="M63.9961,145.855h -6.80315" fill="none" stroke="black"/>
<path d="M63.9961,135.774h -6.80315" fill="none" stroke="black"/>
<path d="M63.9961,125.692h -6.80315" fill="none" stroke="black"/>
<path d="M70.7992,115.61h -13.6063" fill="none" stroke="black"/>
<path d="M63.9961,105.529h -6.80315" fill="none" stroke="black"/>
<path d="M63.9961,95.4471h -6.80315" fill="none" stroke="black"/>
<path d="M63.9961,85.3654h -6.80315" fill="none" stroke="black"/>
<path d="M63.9961,75.2838h -6.80315" fill="none" stroke="black"/>
<path d="M70.7992,65.2021h -13.6063" fill="none" stroke="black"/>
<path d="M70.7992,65.2021h -13.6063" fill="none" stroke="black"/>
<path d="M63.9961,55.1205h -6.80315" fill="none" stroke="black"/>
<path d="M63.9961,45.0388h -6.80315" fill="none" stroke="black"/>
<text xml:space="preserve" x="46.6784" y="372.269" fill="black" font-size="13.617" font-family="Helvetica">0</text>
<text xml:space="preserve" x="38.8636" y="321.828" fill="black" font-size="13.617" font-family="Helvetica">10</text>
<text xml:space="preserve" x="38.8636" y="271.387" fill="black" font-size="13.617" font-family="Helvetica">20</text>
<text xml:space="preserve" x="38.8636" y="220.946" fill="black" font-size="13.617" font-family="Helvetica">30</text>
<text xml:space="preserve" x="38.8636" y="170.505" fill="black" font-size="13.617" font-family="Helvetica">40</text>
<text xml:space="preserve" x="38.8636" y="120.064" fill="black" font-size="13.617" font-family="Helvetica">50</text>
<text xml:space="preserve" x="38.8636" y="69.6229" fill="black" font-size="13.617" font-family="Helvetica">60</text>
<g transform="rotate(-90,25.3653,78.1481)">
<text xml:space="preserve" x="25.3653" y="78.1481" fill="black" font-size="13.617" font-family="Helvetica"> jet pT</text>
</g>
<rect x="442.705" y="26.5526" width="113.386" height="98.0404" fill="white"/>
<path d="M442.705,124.593h 113.386" fill="none" stroke="black"/>
<path d="M556.091,124.593v -98.0404" fill="none" stroke="black"/>
<path d="M556.091,26.5526h -113.386" fill="none" stroke="black"/>
<path d="M442.705,26.5526v 98.0404" fill="none" stroke="black"/>
<text xml:space="preserve" x="445.944" y="36.9428" fill="black" font-size="9.306" font-family="Helvetica">Profile Reco-jet pT vs. mu</text>
<path d="M442.705,42.8927h 113.386" fill="none" stroke="black"/>
<text xml:space="preserve" x="448.076" y="54.7037" fill="black" font-size="11.6791" font-family="Helvetica">Entries </text>
<text xml:space="preserve" x="503.49" y="54.7037" fill="black" font-size="11.6791" font-family="Helvetica"> 1736560</text>
<text xml:space="preserve" x="448.076" y="71.0438" fill="black" font-size="11.6791" font-family="Helvetica">Mean  </text>
<text xml:space="preserve" x="515.567" y="71.7542" fill="black" font-size="11.6791" font-family="Helvetica">  21.24</text>
<text xml:space="preserve" x="448.076" y="86.6734" fill="black" font-size="11.6791" font-family="Helvetica">Mean y </text>
<text xml:space="preserve" x="515.567" y="87.3838" fill="black" font-size="11.6791" font-family="Helvetica">  45.69</text>
<text xml:space="preserve" x="448.076" y="103.724" fill="black" font-size="11.6791" font-family="Helvetica">Std Dev   </text>
<text xml:space="preserve" x="515.567" y="103.724" fill="black" font-size="11.6791" font-family="Helvetica">  5.725</text>
<text xml:space="preserve" x="448.076" y="119.354" fill="black" font-size="11.6791" font-family="Helvetica">Std Dev y </text>
<text xml:space="preserve" x="515.567" y="120.774" fill="black" font-size="11.6791" font-family="Helvetica">  12.22</text></svg>
