<?xml version="1.0" standalone="no"?>
<svg width="567.429" height="409.002" viewBox="0 0 567.429 409.002" xmlns="http://www.w3.org/2000/svg" shape-rendering="crispEdges">
<title>
RecoJet p_T.svg
</title>
<desc>
Creator: ROOT Version 6.18/04
CreationDate: Wed Oct  7 00:28:18 2020</desc>
<defs>
</defs>
<rect x="0.5" y="0" width="566.929" height="408.502" fill="white"/>
<rect x="57.1929" y="40.8502" width="453.543" height="326.801" fill="white"/>
<rect x="57.1929" y="40.8502" width="453.543" height="326.801" fill="none" stroke="black"/>
<path d="M66.2638,53.0982h 1.69368" fill="none" stroke="#000099"/>
<path d="M73.641,53.0982h 1.69368" fill="none" stroke="#000099"/>
<g stroke="#ff0000" stroke-width="1" fill="#ff0000">
<circle cx="70.7992" cy="53.0982" r="2.84175"/>
</g>
<path d="M75.3346,54.3102h 1.69368" fill="none" stroke="#000099"/>
<path d="M82.7118,54.3102h 1.69368" fill="none" stroke="#000099"/>
<g stroke="#ff0000" stroke-width="1" fill="#ff0000">
<circle cx="79.8701" cy="54.3102" r="2.84175"/>
</g>
<path d="M84.4055,65.2472h 1.69368" fill="none" stroke="#000099"/>
<path d="M91.7827,65.2472h 1.69368" fill="none" stroke="#000099"/>
<g stroke="#ff0000" stroke-width="1" fill="#ff0000">
<circle cx="88.9409" cy="65.2472" r="2.84175"/>
</g>
<path d="M93.4764,76.2716h 1.69368" fill="none" stroke="#000099"/>
<path d="M100.854,76.2716h 1.69368" fill="none" stroke="#000099"/>
<g stroke="#ff0000" stroke-width="1" fill="#ff0000">
<circle cx="98.0118" cy="76.2716" r="2.84175"/>
</g>
<path d="M102.547,89.9487h 1.69368" fill="none" stroke="#000099"/>
<path d="M109.924,89.9487h 1.69368" fill="none" stroke="#000099"/>
<g stroke="#ff0000" stroke-width="1" fill="#ff0000">
<circle cx="107.083" cy="89.9487" r="2.84175"/>
</g>
<path d="M111.618,99.8046h 1.69368" fill="none" stroke="#000099"/>
<path d="M118.995,99.8046h 1.69368" fill="none" stroke="#000099"/>
<g stroke="#ff0000" stroke-width="1" fill="#ff0000">
<circle cx="116.154" cy="99.8046" r="2.84175"/>
</g>
<path d="M120.689,116.575h 1.69368" fill="none" stroke="#000099"/>
<path d="M128.066,116.575h 1.69368" fill="none" stroke="#000099"/>
<g stroke="#ff0000" stroke-width="1" fill="#ff0000">
<circle cx="125.224" cy="116.575" r="2.84175"/>
</g>
<path d="M129.76,123.473h 1.69368" fill="none" stroke="#000099"/>
<path d="M137.137,123.473h 1.69368" fill="none" stroke="#000099"/>
<g stroke="#ff0000" stroke-width="1" fill="#ff0000">
<circle cx="134.295" cy="123.473" r="2.84175"/>
</g>
<path d="M138.831,140.736h 1.69368" fill="none" stroke="#000099"/>
<path d="M146.208,140.736h 1.69368" fill="none" stroke="#000099"/>
<g stroke="#ff0000" stroke-width="1" fill="#ff0000">
<circle cx="143.366" cy="140.736" r="2.84175"/>
</g>
<path d="M152.437,154.925v -0.167012" fill="none" stroke="#000099"/>
<path d="M147.902,151.916h 1.69368" fill="none" stroke="#000099"/>
<path d="M155.279,151.916h 1.69368" fill="none" stroke="#000099"/>
<g stroke="#ff0000" stroke-width="1" fill="#ff0000">
<circle cx="152.437" cy="151.916" r="2.84175"/>
</g>
<path d="M161.508,166.996v -1.44427" fill="none" stroke="#000099"/>
<path d="M161.508,159.868v -0.646892" fill="none" stroke="#000099"/>
<path d="M156.972,162.71h 1.69368" fill="none" stroke="#000099"/>
<path d="M164.35,162.71h 1.69368" fill="none" stroke="#000099"/>
<g stroke="#ff0000" stroke-width="1" fill="#ff0000">
<circle cx="161.508" cy="162.71" r="2.84175"/>
</g>
<path d="M170.579,184.812v -3.27015" fill="none" stroke="#000099"/>
<path d="M170.579,175.859v -1.76423" fill="none" stroke="#000099"/>
<path d="M166.043,178.7h 1.69368" fill="none" stroke="#000099"/>
<path d="M173.42,178.7h 1.69368" fill="none" stroke="#000099"/>
<g stroke="#ff0000" stroke-width="1" fill="#ff0000">
<circle cx="170.579" cy="178.7" r="2.84175"/>
</g>
<path d="M175.114,215.447h 1.69368" fill="none" stroke="#000099"/>
<path d="M182.491,215.447h 1.69368" fill="none" stroke="#000099"/>
<g stroke="#ff0000" stroke-width="1" fill="#ff0000">
<circle cx="179.65" cy="215.447" r="2.84175"/>
</g>
<path d="M188.72,222.911v -9.34743" fill="none" stroke="#000099"/>
<path d="M188.72,207.88v -4.49462" fill="none" stroke="#000099"/>
<path d="M184.185,210.721h 1.69368" fill="none" stroke="#000099"/>
<path d="M191.562,210.721h 1.69368" fill="none" stroke="#000099"/>
<g stroke="#ff0000" stroke-width="1" fill="#ff0000">
<circle cx="188.72" cy="210.721" r="2.84175"/>
</g>
<path d="M197.791,230.703v -0.205174" fill="none" stroke="#000099"/>
<path d="M193.256,227.656h 1.69368" fill="none" stroke="#000099"/>
<path d="M200.633,227.656h 1.69368" fill="none" stroke="#000099"/>
<g stroke="#ff0000" stroke-width="1" fill="#ff0000">
<circle cx="197.791" cy="227.656" r="2.84175"/>
</g>
<path d="M206.862,237.914v -0.839973" fill="none" stroke="#000099"/>
<path d="M206.862,231.39v -0.236172" fill="none" stroke="#000099"/>
<path d="M202.327,234.232h 1.69368" fill="none" stroke="#000099"/>
<path d="M209.704,234.232h 1.69368" fill="none" stroke="#000099"/>
<g stroke="#ff0000" stroke-width="1" fill="#ff0000">
<circle cx="206.862" cy="234.232" r="2.84175"/>
</g>
<path d="M215.933,244.372v -30.9735" fill="none" stroke="#000099"/>
<path d="M215.933,207.715v -8.57337" fill="none" stroke="#000099"/>
<path d="M211.398,210.557h 1.69368" fill="none" stroke="#000099"/>
<path d="M218.775,210.557h 1.69368" fill="none" stroke="#000099"/>
<g stroke="#ff0000" stroke-width="1" fill="#ff0000">
<circle cx="215.933" cy="210.557" r="2.84175"/>
</g>
<path d="M225.004,249.994v -26.7412" fill="none" stroke="#000099"/>
<path d="M225.004,217.57v -8.13939" fill="none" stroke="#000099"/>
<path d="M220.469,220.412h 1.69368" fill="none" stroke="#000099"/>
<path d="M227.846,220.412h 1.69368" fill="none" stroke="#000099"/>
<g stroke="#ff0000" stroke-width="1" fill="#ff0000">
<circle cx="225.004" cy="220.412" r="2.84175"/>
</g>
<path d="M234.075,259.399v -0.322449" fill="none" stroke="#000099"/>
<path d="M229.539,256.235h 1.69368" fill="none" stroke="#000099"/>
<path d="M236.917,256.235h 1.69368" fill="none" stroke="#000099"/>
<g stroke="#ff0000" stroke-width="1" fill="#ff0000">
<circle cx="234.075" cy="256.235" r="2.84175"/>
</g>
<path d="M243.146,261.925v -0.660711" fill="none" stroke="#000099"/>
<path d="M243.146,255.581v -0.109986" fill="none" stroke="#000099"/>
<path d="M238.61,258.423h 1.69368" fill="none" stroke="#000099"/>
<path d="M245.987,258.423h 1.69368" fill="none" stroke="#000099"/>
<g stroke="#ff0000" stroke-width="1" fill="#ff0000">
<circle cx="243.146" cy="258.423" r="2.84175"/>
</g>
<path d="M252.217,271.347v -7.99415" fill="none" stroke="#000099"/>
<path d="M252.217,257.669v -3.9908" fill="none" stroke="#000099"/>
<path d="M247.681,260.511h 1.69368" fill="none" stroke="#000099"/>
<path d="M255.058,260.511h 1.69368" fill="none" stroke="#000099"/>
<g stroke="#ff0000" stroke-width="1" fill="#ff0000">
<circle cx="252.217" cy="260.511" r="2.84175"/>
</g>
<path d="M256.752,273.937h 1.69368" fill="none" stroke="#000099"/>
<path d="M264.129,273.937h 1.69368" fill="none" stroke="#000099"/>
<g stroke="#ff0000" stroke-width="1" fill="#ff0000">
<circle cx="261.287" cy="273.937" r="2.84175"/>
</g>
<path d="M265.823,278.323h 1.69368" fill="none" stroke="#000099"/>
<path d="M273.2,278.323h 1.69368" fill="none" stroke="#000099"/>
<g stroke="#ff0000" stroke-width="1" fill="#ff0000">
<circle cx="270.358" cy="278.323" r="2.84175"/>
</g>
<path d="M274.894,279.948h 1.69368" fill="none" stroke="#000099"/>
<path d="M282.271,279.948h 1.69368" fill="none" stroke="#000099"/>
<g stroke="#ff0000" stroke-width="1" fill="#ff0000">
<circle cx="279.429" cy="279.948" r="2.84175"/>
</g>
<path d="M283.965,285.368h 1.69368" fill="none" stroke="#000099"/>
<path d="M291.342,285.368h 1.69368" fill="none" stroke="#000099"/>
<g stroke="#ff0000" stroke-width="1" fill="#ff0000">
<circle cx="288.5" cy="285.368" r="2.84175"/>
</g>
<path d="M293.035,289.122h 1.69368" fill="none" stroke="#000099"/>
<path d="M300.413,289.122h 1.69368" fill="none" stroke="#000099"/>
<g stroke="#ff0000" stroke-width="1" fill="#ff0000">
<circle cx="297.571" cy="289.122" r="2.84175"/>
</g>
<path d="M306.642,295.707v -0.587241" fill="none" stroke="#000099"/>
<path d="M306.642,289.437v -0.0576735" fill="none" stroke="#000099"/>
<path d="M302.106,292.279h 1.69368" fill="none" stroke="#000099"/>
<path d="M309.483,292.279h 1.69368" fill="none" stroke="#000099"/>
<g stroke="#ff0000" stroke-width="1" fill="#ff0000">
<circle cx="306.642" cy="292.279" r="2.84175"/>
</g>
<path d="M311.177,297.12h 1.69368" fill="none" stroke="#000099"/>
<path d="M318.554,297.12h 1.69368" fill="none" stroke="#000099"/>
<g stroke="#ff0000" stroke-width="1" fill="#ff0000">
<circle cx="315.713" cy="297.12" r="2.84175"/>
</g>
<path d="M320.248,299.014h 1.69368" fill="none" stroke="#000099"/>
<path d="M327.625,299.014h 1.69368" fill="none" stroke="#000099"/>
<g stroke="#ff0000" stroke-width="1" fill="#ff0000">
<circle cx="324.783" cy="299.014" r="2.84175"/>
</g>
<path d="M329.319,302.793h 1.69368" fill="none" stroke="#000099"/>
<path d="M336.696,302.793h 1.69368" fill="none" stroke="#000099"/>
<g stroke="#ff0000" stroke-width="1" fill="#ff0000">
<circle cx="333.854" cy="302.793" r="2.84175"/>
</g>
<path d="M338.39,307.638h 1.69368" fill="none" stroke="#000099"/>
<path d="M345.767,307.638h 1.69368" fill="none" stroke="#000099"/>
<g stroke="#ff0000" stroke-width="1" fill="#ff0000">
<circle cx="342.925" cy="307.638" r="2.84175"/>
</g>
<path d="M347.461,310.283h 1.69368" fill="none" stroke="#000099"/>
<path d="M354.838,310.283h 1.69368" fill="none" stroke="#000099"/>
<g stroke="#ff0000" stroke-width="1" fill="#ff0000">
<circle cx="351.996" cy="310.283" r="2.84175"/>
</g>
<path d="M356.531,314.84h 1.69368" fill="none" stroke="#000099"/>
<path d="M363.909,314.84h 1.69368" fill="none" stroke="#000099"/>
<g stroke="#ff0000" stroke-width="1" fill="#ff0000">
<circle cx="361.067" cy="314.84" r="2.84175"/>
</g>
<path d="M365.602,313.354h 1.69368" fill="none" stroke="#000099"/>
<path d="M372.98,313.354h 1.69368" fill="none" stroke="#000099"/>
<g stroke="#ff0000" stroke-width="1" fill="#ff0000">
<circle cx="370.138" cy="313.354" r="2.84175"/>
</g>
<path d="M374.673,319.039h 1.69368" fill="none" stroke="#000099"/>
<path d="M382.05,319.039h 1.69368" fill="none" stroke="#000099"/>
<g stroke="#ff0000" stroke-width="1" fill="#ff0000">
<circle cx="379.209" cy="319.039" r="2.84175"/>
</g>
<path d="M383.744,321.593h 1.69368" fill="none" stroke="#000099"/>
<path d="M391.121,321.593h 1.69368" fill="none" stroke="#000099"/>
<g stroke="#ff0000" stroke-width="1" fill="#ff0000">
<circle cx="388.28" cy="321.593" r="2.84175"/>
</g>
<path d="M392.815,324.753h 1.69368" fill="none" stroke="#000099"/>
<path d="M400.192,324.753h 1.69368" fill="none" stroke="#000099"/>
<g stroke="#ff0000" stroke-width="1" fill="#ff0000">
<circle cx="397.35" cy="324.753" r="2.84175"/>
</g>
<path d="M401.886,328.826h 1.69368" fill="none" stroke="#000099"/>
<path d="M409.263,328.826h 1.69368" fill="none" stroke="#000099"/>
<g stroke="#ff0000" stroke-width="1" fill="#ff0000">
<circle cx="406.421" cy="328.826" r="2.84175"/>
</g>
<path d="M410.957,329.573h 1.69368" fill="none" stroke="#000099"/>
<path d="M418.334,329.573h 1.69368" fill="none" stroke="#000099"/>
<g stroke="#ff0000" stroke-width="1" fill="#ff0000">
<circle cx="415.492" cy="329.573" r="2.84175"/>
</g>
<path d="M420.028,332.656h 1.69368" fill="none" stroke="#000099"/>
<path d="M427.405,332.656h 1.69368" fill="none" stroke="#000099"/>
<g stroke="#ff0000" stroke-width="1" fill="#ff0000">
<circle cx="424.563" cy="332.656" r="2.84175"/>
</g>
<path d="M429.098,335.363h 1.69368" fill="none" stroke="#000099"/>
<path d="M436.476,335.363h 1.69368" fill="none" stroke="#000099"/>
<g stroke="#ff0000" stroke-width="1" fill="#ff0000">
<circle cx="433.634" cy="335.363" r="2.84175"/>
</g>
<path d="M438.169,338.938h 1.69368" fill="none" stroke="#000099"/>
<path d="M445.546,338.938h 1.69368" fill="none" stroke="#000099"/>
<g stroke="#ff0000" stroke-width="1" fill="#ff0000">
<circle cx="442.705" cy="338.938" r="2.84175"/>
</g>
<path d="M447.24,340.397h 1.69368" fill="none" stroke="#000099"/>
<path d="M454.617,340.397h 1.69368" fill="none" stroke="#000099"/>
<g stroke="#ff0000" stroke-width="1" fill="#ff0000">
<circle cx="451.776" cy="340.397" r="2.84175"/>
</g>
<path d="M456.311,344.824h 1.69368" fill="none" stroke="#000099"/>
<path d="M463.688,344.824h 1.69368" fill="none" stroke="#000099"/>
<g stroke="#ff0000" stroke-width="1" fill="#ff0000">
<circle cx="460.846" cy="344.824" r="2.84175"/>
</g>
<path d="M465.382,345.64h 1.69368" fill="none" stroke="#000099"/>
<path d="M472.759,345.64h 1.69368" fill="none" stroke="#000099"/>
<g stroke="#ff0000" stroke-width="1" fill="#ff0000">
<circle cx="469.917" cy="345.64" r="2.84175"/>
</g>
<path d="M474.453,349.284h 1.69368" fill="none" stroke="#000099"/>
<path d="M481.83,349.284h 1.69368" fill="none" stroke="#000099"/>
<g stroke="#ff0000" stroke-width="1" fill="#ff0000">
<circle cx="478.988" cy="349.284" r="2.84175"/>
</g>
<path d="M483.524,351.313h 1.69368" fill="none" stroke="#000099"/>
<path d="M490.901,351.313h 1.69368" fill="none" stroke="#000099"/>
<g stroke="#ff0000" stroke-width="1" fill="#ff0000">
<circle cx="488.059" cy="351.313" r="2.84175"/>
</g>
<path d="M492.594,352.315h 1.69368" fill="none" stroke="#000099"/>
<path d="M499.972,352.315h 1.69368" fill="none" stroke="#000099"/>
<g stroke="#ff0000" stroke-width="1" fill="#ff0000">
<circle cx="497.13" cy="352.315" r="2.84175"/>
</g>
<path d="M501.665,353.226h 1.69368" fill="none" stroke="#000099"/>
<path d="M509.043,353.226h 1.69368" fill="none" stroke="#000099"/>
<g stroke="#ff0000" stroke-width="1" fill="#ff0000">
<circle cx="506.201" cy="353.226" r="2.84175"/>
</g>
<path d="M57.1929,367.651h 453.543" fill="none" stroke="black"/>
<path d="M81.0636,357.847v 9.80404" fill="none" stroke="black"/>
<path d="M92.999,362.749v 4.90202" fill="none" stroke="black"/>
<path d="M104.934,362.749v 4.90202" fill="none" stroke="black"/>
<path d="M116.87,362.749v 4.90202" fill="none" stroke="black"/>
<path d="M128.805,357.847v 9.80404" fill="none" stroke="black"/>
<path d="M140.74,362.749v 4.90202" fill="none" stroke="black"/>
<path d="M152.676,362.749v 4.90202" fill="none" stroke="black"/>
<path d="M164.611,362.749v 4.90202" fill="none" stroke="black"/>
<path d="M176.546,357.847v 9.80404" fill="none" stroke="black"/>
<path d="M188.482,362.749v 4.90202" fill="none" stroke="black"/>
<path d="M200.417,362.749v 4.90202" fill="none" stroke="black"/>
<path d="M212.352,362.749v 4.90202" fill="none" stroke="black"/>
<path d="M224.288,357.847v 9.80404" fill="none" stroke="black"/>
<path d="M236.223,362.749v 4.90202" fill="none" stroke="black"/>
<path d="M248.159,362.749v 4.90202" fill="none" stroke="black"/>
<path d="M260.094,362.749v 4.90202" fill="none" stroke="black"/>
<path d="M272.029,357.847v 9.80404" fill="none" stroke="black"/>
<path d="M283.965,362.749v 4.90202" fill="none" stroke="black"/>
<path d="M295.9,362.749v 4.90202" fill="none" stroke="black"/>
<path d="M307.835,362.749v 4.90202" fill="none" stroke="black"/>
<path d="M319.771,357.847v 9.80404" fill="none" stroke="black"/>
<path d="M331.706,362.749v 4.90202" fill="none" stroke="black"/>
<path d="M343.641,362.749v 4.90202" fill="none" stroke="black"/>
<path d="M355.577,362.749v 4.90202" fill="none" stroke="black"/>
<path d="M367.512,357.847v 9.80404" fill="none" stroke="black"/>
<path d="M379.447,362.749v 4.90202" fill="none" stroke="black"/>
<path d="M391.383,362.749v 4.90202" fill="none" stroke="black"/>
<path d="M403.318,362.749v 4.90202" fill="none" stroke="black"/>
<path d="M415.253,357.847v 9.80404" fill="none" stroke="black"/>
<path d="M427.189,362.749v 4.90202" fill="none" stroke="black"/>
<path d="M439.124,362.749v 4.90202" fill="none" stroke="black"/>
<path d="M451.059,362.749v 4.90202" fill="none" stroke="black"/>
<path d="M462.995,357.847v 9.80404" fill="none" stroke="black"/>
<path d="M474.93,362.749v 4.90202" fill="none" stroke="black"/>
<path d="M486.866,362.749v 4.90202" fill="none" stroke="black"/>
<path d="M498.801,362.749v 4.90202" fill="none" stroke="black"/>
<path d="M510.736,357.847v 9.80404" fill="none" stroke="black"/>
<path d="M81.0636,357.847v 9.80404" fill="none" stroke="black"/>
<path d="M69.1283,362.749v 4.90202" fill="none" stroke="black"/>
<path d="M57.1929,362.749v 4.90202" fill="none" stroke="black"/>
<text xml:space="preserve" x="72.9646" y="380.795" fill="black" font-size="13.617" font-family="Helvetica">20</text>
<text xml:space="preserve" x="120.564" y="380.795" fill="black" font-size="13.617" font-family="Helvetica">40</text>
<text xml:space="preserve" x="168.163" y="380.795" fill="black" font-size="13.617" font-family="Helvetica">60</text>
<text xml:space="preserve" x="216.473" y="380.795" fill="black" font-size="13.617" font-family="Helvetica">80</text>
<text xml:space="preserve" x="260.52" y="380.795" fill="black" font-size="13.617" font-family="Helvetica">100</text>
<text xml:space="preserve" x="308.119" y="380.795" fill="black" font-size="13.617" font-family="Helvetica">120</text>
<text xml:space="preserve" x="355.719" y="380.795" fill="black" font-size="13.617" font-family="Helvetica">140</text>
<text xml:space="preserve" x="403.318" y="380.795" fill="black" font-size="13.617" font-family="Helvetica">160</text>
<text xml:space="preserve" x="451.628" y="380.795" fill="black" font-size="13.617" font-family="Helvetica">180</text>
<text xml:space="preserve" x="499.227" y="380.795" fill="black" font-size="13.617" font-family="Helvetica">200</text>
<text xml:space="preserve" x="455.89" y="394.293" fill="black" font-size="13.617" font-family="Helvetica"> pT(GeV)</text>
<path d="M57.1929,367.651v -326.801" fill="none" stroke="black"/>
<path d="M63.9961,366.499h -6.80315" fill="none" stroke="black"/>
<path d="M63.9961,363.598h -6.80315" fill="none" stroke="black"/>
<path d="M63.9961,361.085h -6.80315" fill="none" stroke="black"/>
<path d="M63.9961,358.869h -6.80315" fill="none" stroke="black"/>
<path d="M70.7992,356.886h -13.6063" fill="none" stroke="black"/>
<text xml:space="preserve" x="47.3889" y="357.35" fill="black" font-size="9.24468" font-family="Helvetica">4</text>
<text xml:space="preserve" x="32.4697" y="363.034" fill="black" font-size="13.617" font-family="Helvetica">10</text>
<path d="M63.9961,343.842h -6.80315" fill="none" stroke="black"/>
<path d="M63.9961,336.212h -6.80315" fill="none" stroke="black"/>
<path d="M63.9961,330.799h -6.80315" fill="none" stroke="black"/>
<path d="M63.9961,326.6h -6.80315" fill="none" stroke="black"/>
<path d="M63.9961,323.169h -6.80315" fill="none" stroke="black"/>
<path d="M63.9961,320.268h -6.80315" fill="none" stroke="black"/>
<path d="M63.9961,317.755h -6.80315" fill="none" stroke="black"/>
<path d="M63.9961,315.539h -6.80315" fill="none" stroke="black"/>
<path d="M70.7992,313.556h -13.6063" fill="none" stroke="black"/>
<text xml:space="preserve" x="47.3889" y="313.303" fill="black" font-size="9.24468" font-family="Helvetica">5</text>
<text xml:space="preserve" x="32.4697" y="319.697" fill="black" font-size="13.617" font-family="Helvetica">10</text>
<path d="M63.9961,300.513h -6.80315" fill="none" stroke="black"/>
<path d="M63.9961,292.883h -6.80315" fill="none" stroke="black"/>
<path d="M63.9961,287.469h -6.80315" fill="none" stroke="black"/>
<path d="M63.9961,283.27h -6.80315" fill="none" stroke="black"/>
<path d="M63.9961,279.839h -6.80315" fill="none" stroke="black"/>
<path d="M63.9961,276.938h -6.80315" fill="none" stroke="black"/>
<path d="M63.9961,274.425h -6.80315" fill="none" stroke="black"/>
<path d="M63.9961,272.209h -6.80315" fill="none" stroke="black"/>
<path d="M70.7992,270.226h -13.6063" fill="none" stroke="black"/>
<text xml:space="preserve" x="47.3889" y="269.966" fill="black" font-size="9.24468" font-family="Helvetica">6</text>
<text xml:space="preserve" x="32.4697" y="276.36" fill="black" font-size="13.617" font-family="Helvetica">10</text>
<path d="M63.9961,257.183h -6.80315" fill="none" stroke="black"/>
<path d="M63.9961,249.553h -6.80315" fill="none" stroke="black"/>
<path d="M63.9961,244.139h -6.80315" fill="none" stroke="black"/>
<path d="M63.9961,239.94h -6.80315" fill="none" stroke="black"/>
<path d="M63.9961,236.509h -6.80315" fill="none" stroke="black"/>
<path d="M63.9961,233.608h -6.80315" fill="none" stroke="black"/>
<path d="M63.9961,231.095h -6.80315" fill="none" stroke="black"/>
<path d="M63.9961,228.879h -6.80315" fill="none" stroke="black"/>
<path d="M70.7992,226.896h -13.6063" fill="none" stroke="black"/>
<text xml:space="preserve" x="47.3889" y="227.34" fill="black" font-size="9.24468" font-family="Helvetica">7</text>
<text xml:space="preserve" x="32.4697" y="233.024" fill="black" font-size="13.617" font-family="Helvetica">10</text>
<path d="M63.9961,213.853h -6.80315" fill="none" stroke="black"/>
<path d="M63.9961,206.223h -6.80315" fill="none" stroke="black"/>
<path d="M63.9961,200.809h -6.80315" fill="none" stroke="black"/>
<path d="M63.9961,196.61h -6.80315" fill="none" stroke="black"/>
<path d="M63.9961,193.179h -6.80315" fill="none" stroke="black"/>
<path d="M63.9961,190.278h -6.80315" fill="none" stroke="black"/>
<path d="M63.9961,187.765h -6.80315" fill="none" stroke="black"/>
<path d="M63.9961,185.549h -6.80315" fill="none" stroke="black"/>
<path d="M70.7992,183.566h -13.6063" fill="none" stroke="black"/>
<text xml:space="preserve" x="47.3889" y="183.293" fill="black" font-size="9.24468" font-family="Helvetica">8</text>
<text xml:space="preserve" x="32.4697" y="189.687" fill="black" font-size="13.617" font-family="Helvetica">10</text>
<path d="M63.9961,170.523h -6.80315" fill="none" stroke="black"/>
<path d="M63.9961,162.893h -6.80315" fill="none" stroke="black"/>
<path d="M63.9961,157.479h -6.80315" fill="none" stroke="black"/>
<path d="M63.9961,153.28h -6.80315" fill="none" stroke="black"/>
<path d="M63.9961,149.849h -6.80315" fill="none" stroke="black"/>
<path d="M63.9961,146.948h -6.80315" fill="none" stroke="black"/>
<path d="M63.9961,144.436h -6.80315" fill="none" stroke="black"/>
<path d="M63.9961,142.219h -6.80315" fill="none" stroke="black"/>
<path d="M70.7992,140.236h -13.6063" fill="none" stroke="black"/>
<text xml:space="preserve" x="47.3889" y="139.956" fill="black" font-size="9.24468" font-family="Helvetica">9</text>
<text xml:space="preserve" x="32.4697" y="146.35" fill="black" font-size="13.617" font-family="Helvetica">10</text>
<path d="M63.9961,127.193h -6.80315" fill="none" stroke="black"/>
<path d="M63.9961,119.563h -6.80315" fill="none" stroke="black"/>
<path d="M63.9961,114.149h -6.80315" fill="none" stroke="black"/>
<path d="M63.9961,109.95h -6.80315" fill="none" stroke="black"/>
<path d="M63.9961,106.519h -6.80315" fill="none" stroke="black"/>
<path d="M63.9961,103.618h -6.80315" fill="none" stroke="black"/>
<path d="M63.9961,101.106h -6.80315" fill="none" stroke="black"/>
<path d="M63.9961,98.8891h -6.80315" fill="none" stroke="black"/>
<path d="M70.7992,96.9064h -13.6063" fill="none" stroke="black"/>
<text xml:space="preserve" x="42.4158" y="96.6195" fill="black" font-size="9.24468" font-family="Helvetica">10</text>
<text xml:space="preserve" x="27.4966" y="103.013" fill="black" font-size="13.617" font-family="Helvetica">10</text>
<path d="M63.9961,83.8628h -6.80315" fill="none" stroke="black"/>
<path d="M63.9961,76.2328h -6.80315" fill="none" stroke="black"/>
<path d="M63.9961,70.8192h -6.80315" fill="none" stroke="black"/>
<path d="M63.9961,66.6201h -6.80315" fill="none" stroke="black"/>
<path d="M63.9961,63.1892h -6.80315" fill="none" stroke="black"/>
<path d="M63.9961,60.2884h -6.80315" fill="none" stroke="black"/>
<path d="M63.9961,57.7756h -6.80315" fill="none" stroke="black"/>
<path d="M63.9961,55.5592h -6.80315" fill="none" stroke="black"/>
<path d="M70.7992,53.5765h -13.6063" fill="none" stroke="black"/>
<text xml:space="preserve" x="43.8367" y="53.9933" fill="black" font-size="9.24468" font-family="Helvetica">11</text>
<text xml:space="preserve" x="28.9175" y="59.6768" fill="black" font-size="13.617" font-family="Helvetica">10</text>
<g transform="rotate(-90,16.8401,81.7003)">
<text xml:space="preserve" x="16.8401" y="81.7003" fill="black" font-size="13.617" font-family="Helvetica">Events</text>
</g>
<text xml:space="preserve" x="256.258" y="19.8923" fill="black" font-size="19.7796" font-family="Helvetica">Jet pT</text>
<rect x="442.705" y="26.5526" width="113.386" height="65.3603" fill="white"/>
<path d="M442.705,91.9128h 113.386" fill="none" stroke="black"/>
<path d="M556.091,91.9128v -65.3603" fill="none" stroke="black"/>
<path d="M556.091,26.5526h -113.386" fill="none" stroke="black"/>
<path d="M442.705,26.5526v 65.3603" fill="none" stroke="black"/>
<text xml:space="preserve" x="472.23" y="38.3636" fill="black" font-size="14.2916" font-family="Helvetica">Reco-jet</text>
<path d="M442.705,42.8927h 113.386" fill="none" stroke="black"/>
<text xml:space="preserve" x="448.076" y="54.7037" fill="black" font-size="11.7962" font-family="Helvetica">Entries </text>
<text xml:space="preserve" x="502.779" y="54.7037" fill="black" font-size="11.7962" font-family="Helvetica"> 1737849</text>
<text xml:space="preserve" x="448.076" y="71.0438" fill="black" font-size="11.7962" font-family="Helvetica">Mean  </text>
<text xml:space="preserve" x="519.119" y="71.7542" fill="black" font-size="11.7962" font-family="Helvetica">   21.2</text>
<text xml:space="preserve" x="448.076" y="87.3838" fill="black" font-size="11.7962" font-family="Helvetica">Std Dev   </text>
<text xml:space="preserve" x="515.567" y="87.3838" fill="black" font-size="11.7962" font-family="Helvetica">  5.953</text>
<path d="M66.2638,135.394h 1.69368" fill="none" stroke="#000099"/>
<path d="M73.641,135.394h 1.69368" fill="none" stroke="#000099"/>
<g stroke="black" stroke-width="1" fill="black">
<rect x="67.9575" y="132.552" width="5.6835" height="5.6835"/>
</g>
<path d="M75.3346,119.328h 1.69368" fill="none" stroke="#000099"/>
<path d="M82.7118,119.328h 1.69368" fill="none" stroke="#000099"/>
<g stroke="black" stroke-width="1" fill="black">
<rect x="77.0283" y="116.486" width="5.6835" height="5.6835"/>
</g>
<path d="M84.4055,113.836h 1.69368" fill="none" stroke="#000099"/>
<path d="M91.7827,113.836h 1.69368" fill="none" stroke="#000099"/>
<g stroke="black" stroke-width="1" fill="black">
<rect x="86.0992" y="110.994" width="5.6835" height="5.6835"/>
</g>
<path d="M93.4764,111.715h 1.69368" fill="none" stroke="#000099"/>
<path d="M100.854,111.715h 1.69368" fill="none" stroke="#000099"/>
<g stroke="black" stroke-width="1" fill="black">
<rect x="95.1701" y="108.874" width="5.6835" height="5.6835"/>
</g>
<path d="M102.547,115.654h 1.69368" fill="none" stroke="#000099"/>
<path d="M109.924,115.654h 1.69368" fill="none" stroke="#000099"/>
<g stroke="black" stroke-width="1" fill="black">
<rect x="104.241" y="112.812" width="5.6835" height="5.6835"/>
</g>
<path d="M111.618,120.08h 1.69368" fill="none" stroke="#000099"/>
<path d="M118.995,120.08h 1.69368" fill="none" stroke="#000099"/>
<g stroke="black" stroke-width="1" fill="black">
<rect x="113.312" y="117.239" width="5.6835" height="5.6835"/>
</g>
<path d="M120.689,128.75h 1.69368" fill="none" stroke="#000099"/>
<path d="M128.066,128.75h 1.69368" fill="none" stroke="#000099"/>
<g stroke="black" stroke-width="1" fill="black">
<rect x="122.383" y="125.908" width="5.6835" height="5.6835"/>
</g>
<path d="M129.76,134.95h 1.69368" fill="none" stroke="#000099"/>
<path d="M137.137,134.95h 1.69368" fill="none" stroke="#000099"/>
<g stroke="black" stroke-width="1" fill="black">
<rect x="131.454" y="132.108" width="5.6835" height="5.6835"/>
</g>
<path d="M138.831,146.049h 1.69368" fill="none" stroke="#000099"/>
<path d="M146.208,146.049h 1.69368" fill="none" stroke="#000099"/>
<g stroke="black" stroke-width="1" fill="black">
<rect x="140.524" y="143.207" width="5.6835" height="5.6835"/>
</g>
<path d="M152.437,163.373v -0.964783" fill="none" stroke="#000099"/>
<path d="M152.437,156.725v -0.322829" fill="none" stroke="#000099"/>
<path d="M147.902,159.567h 1.69368" fill="none" stroke="#000099"/>
<path d="M155.279,159.567h 1.69368" fill="none" stroke="#000099"/>
<g stroke="black" stroke-width="1" fill="black">
<rect x="149.595" y="156.725" width="5.6835" height="5.6835"/>
</g>
<path d="M161.508,169.417v -1.82607" fill="none" stroke="#000099"/>
<path d="M161.508,161.908v -0.895281" fill="none" stroke="#000099"/>
<path d="M156.972,164.749h 1.69368" fill="none" stroke="#000099"/>
<path d="M164.35,164.749h 1.69368" fill="none" stroke="#000099"/>
<g stroke="black" stroke-width="1" fill="black">
<rect x="158.666" y="161.908" width="5.6835" height="5.6835"/>
</g>
<path d="M170.579,186.457v -3.7359" fill="none" stroke="#000099"/>
<path d="M170.579,177.037v -2.02273" fill="none" stroke="#000099"/>
<path d="M166.043,179.879h 1.69368" fill="none" stroke="#000099"/>
<path d="M173.42,179.879h 1.69368" fill="none" stroke="#000099"/>
<g stroke="black" stroke-width="1" fill="black">
<rect x="167.737" y="177.037" width="5.6835" height="5.6835"/>
</g>
<path d="M179.65,223.768v -0.281387" fill="none" stroke="#000099"/>
<path d="M175.114,220.645h 1.69368" fill="none" stroke="#000099"/>
<path d="M182.491,220.645h 1.69368" fill="none" stroke="#000099"/>
<g stroke="black" stroke-width="1" fill="black">
<rect x="176.808" y="217.803" width="5.6835" height="5.6835"/>
</g>
<path d="M188.72,227.168v -11.4893" fill="none" stroke="#000099"/>
<path d="M188.72,209.995v -5.19855" fill="none" stroke="#000099"/>
<path d="M184.185,212.837h 1.69368" fill="none" stroke="#000099"/>
<path d="M191.562,212.837h 1.69368" fill="none" stroke="#000099"/>
<g stroke="black" stroke-width="1" fill="black">
<rect x="185.879" y="209.995" width="5.6835" height="5.6835"/>
</g>
<path d="M197.791,233.909v -0.712294" fill="none" stroke="#000099"/>
<path d="M197.791,227.513v -0.146506" fill="none" stroke="#000099"/>
<path d="M193.256,230.355h 1.69368" fill="none" stroke="#000099"/>
<path d="M200.633,230.355h 1.69368" fill="none" stroke="#000099"/>
<g stroke="black" stroke-width="1" fill="black">
<rect x="194.95" y="227.513" width="5.6835" height="5.6835"/>
</g>
<path d="M206.862,241.502v -1.47369" fill="none" stroke="#000099"/>
<path d="M206.862,234.344v -0.66633" fill="none" stroke="#000099"/>
<path d="M202.327,237.186h 1.69368" fill="none" stroke="#000099"/>
<path d="M209.704,237.186h 1.69368" fill="none" stroke="#000099"/>
<g stroke="black" stroke-width="1" fill="black">
<rect x="204.02" y="234.344" width="5.6835" height="5.6835"/>
</g>
<path d="M215.933,248.094v -34.1267" fill="none" stroke="#000099"/>
<path d="M215.933,208.283v -8.83399" fill="none" stroke="#000099"/>
<path d="M211.398,211.125h 1.69368" fill="none" stroke="#000099"/>
<path d="M218.775,211.125h 1.69368" fill="none" stroke="#000099"/>
<g stroke="black" stroke-width="1" fill="black">
<rect x="213.091" y="208.283" width="5.6835" height="5.6835"/>
</g>
<path d="M225.004,253.009v -29.1681" fill="none" stroke="#000099"/>
<path d="M225.004,218.157v -8.4013" fill="none" stroke="#000099"/>
<path d="M220.469,220.999h 1.69368" fill="none" stroke="#000099"/>
<path d="M227.846,220.999h 1.69368" fill="none" stroke="#000099"/>
<g stroke="black" stroke-width="1" fill="black">
<rect x="222.162" y="218.157" width="5.6835" height="5.6835"/>
</g>
<path d="M234.075,264.335v -1.11662" fill="none" stroke="#000099"/>
<path d="M234.075,257.535v -0.426948" fill="none" stroke="#000099"/>
<path d="M229.539,260.376h 1.69368" fill="none" stroke="#000099"/>
<path d="M236.917,260.376h 1.69368" fill="none" stroke="#000099"/>
<g stroke="black" stroke-width="1" fill="black">
<rect x="231.233" y="257.535" width="5.6835" height="5.6835"/>
</g>
<path d="M243.146,265.621v -1.33659" fill="none" stroke="#000099"/>
<path d="M243.146,258.601v -0.575314" fill="none" stroke="#000099"/>
<path d="M238.61,261.443h 1.69368" fill="none" stroke="#000099"/>
<path d="M245.987,261.443h 1.69368" fill="none" stroke="#000099"/>
<g stroke="black" stroke-width="1" fill="black">
<rect x="240.304" y="258.601" width="5.6835" height="5.6835"/>
</g>
<path d="M252.217,275.995v -10.1698" fill="none" stroke="#000099"/>
<path d="M252.217,260.141v -4.77758" fill="none" stroke="#000099"/>
<path d="M247.681,262.983h 1.69368" fill="none" stroke="#000099"/>
<path d="M255.058,262.983h 1.69368" fill="none" stroke="#000099"/>
<g stroke="black" stroke-width="1" fill="black">
<rect x="249.375" y="260.141" width="5.6835" height="5.6835"/>
</g>
<path d="M256.752,278.474h 1.69368" fill="none" stroke="#000099"/>
<path d="M264.129,278.474h 1.69368" fill="none" stroke="#000099"/>
<g stroke="black" stroke-width="1" fill="black">
<rect x="258.446" y="275.633" width="5.6835" height="5.6835"/>
</g>
<path d="M265.823,282.686h 1.69368" fill="none" stroke="#000099"/>
<path d="M273.2,282.686h 1.69368" fill="none" stroke="#000099"/>
<g stroke="black" stroke-width="1" fill="black">
<rect x="267.517" y="279.844" width="5.6835" height="5.6835"/>
</g>
<path d="M274.894,283.386h 1.69368" fill="none" stroke="#000099"/>
<path d="M282.271,283.386h 1.69368" fill="none" stroke="#000099"/>
<g stroke="black" stroke-width="1" fill="black">
<rect x="276.587" y="280.544" width="5.6835" height="5.6835"/>
</g>
<path d="M283.965,289.792h 1.69368" fill="none" stroke="#000099"/>
<path d="M291.342,289.792h 1.69368" fill="none" stroke="#000099"/>
<g stroke="black" stroke-width="1" fill="black">
<rect x="285.658" y="286.95" width="5.6835" height="5.6835"/>
</g>
<path d="M293.035,293.437h 1.69368" fill="none" stroke="#000099"/>
<path d="M300.413,293.437h 1.69368" fill="none" stroke="#000099"/>
<g stroke="black" stroke-width="1" fill="black">
<rect x="294.729" y="290.595" width="5.6835" height="5.6835"/>
</g>
<path d="M306.642,300.521v -1.4716" fill="none" stroke="#000099"/>
<path d="M306.642,293.366v -0.664951" fill="none" stroke="#000099"/>
<path d="M302.106,296.208h 1.69368" fill="none" stroke="#000099"/>
<path d="M309.483,296.208h 1.69368" fill="none" stroke="#000099"/>
<g stroke="black" stroke-width="1" fill="black">
<rect x="303.8" y="293.366" width="5.6835" height="5.6835"/>
</g>
<path d="M311.177,301.676h 1.69368" fill="none" stroke="#000099"/>
<path d="M318.554,301.676h 1.69368" fill="none" stroke="#000099"/>
<g stroke="black" stroke-width="1" fill="black">
<rect x="312.871" y="298.835" width="5.6835" height="5.6835"/>
</g>
<path d="M320.248,303.188h 1.69368" fill="none" stroke="#000099"/>
<path d="M327.625,303.188h 1.69368" fill="none" stroke="#000099"/>
<g stroke="black" stroke-width="1" fill="black">
<rect x="321.942" y="300.346" width="5.6835" height="5.6835"/>
</g>
<path d="M329.319,306.889h 1.69368" fill="none" stroke="#000099"/>
<path d="M336.696,306.889h 1.69368" fill="none" stroke="#000099"/>
<g stroke="black" stroke-width="1" fill="black">
<rect x="331.013" y="304.047" width="5.6835" height="5.6835"/>
</g>
<path d="M338.39,312.191h 1.69368" fill="none" stroke="#000099"/>
<path d="M345.767,312.191h 1.69368" fill="none" stroke="#000099"/>
<g stroke="black" stroke-width="1" fill="black">
<rect x="340.083" y="309.349" width="5.6835" height="5.6835"/>
</g>
<path d="M347.461,314.854h 1.69368" fill="none" stroke="#000099"/>
<path d="M354.838,314.854h 1.69368" fill="none" stroke="#000099"/>
<g stroke="black" stroke-width="1" fill="black">
<rect x="349.154" y="312.012" width="5.6835" height="5.6835"/>
</g>
<path d="M356.531,319.253h 1.69368" fill="none" stroke="#000099"/>
<path d="M363.909,319.253h 1.69368" fill="none" stroke="#000099"/>
<g stroke="black" stroke-width="1" fill="black">
<rect x="358.225" y="316.411" width="5.6835" height="5.6835"/>
</g>
<path d="M370.138,320.02v -0.0584283" fill="none" stroke="#000099"/>
<path d="M365.602,317.12h 1.69368" fill="none" stroke="#000099"/>
<path d="M372.98,317.12h 1.69368" fill="none" stroke="#000099"/>
<g stroke="black" stroke-width="1" fill="black">
<rect x="367.296" y="314.278" width="5.6835" height="5.6835"/>
</g>
<path d="M374.673,323.682h 1.69368" fill="none" stroke="#000099"/>
<path d="M382.05,323.682h 1.69368" fill="none" stroke="#000099"/>
<g stroke="black" stroke-width="1" fill="black">
<rect x="376.367" y="320.84" width="5.6835" height="5.6835"/>
</g>
<path d="M383.744,325.959h 1.69368" fill="none" stroke="#000099"/>
<path d="M391.121,325.959h 1.69368" fill="none" stroke="#000099"/>
<g stroke="black" stroke-width="1" fill="black">
<rect x="385.438" y="323.117" width="5.6835" height="5.6835"/>
</g>
<path d="M392.815,329.157h 1.69368" fill="none" stroke="#000099"/>
<path d="M400.192,329.157h 1.69368" fill="none" stroke="#000099"/>
<g stroke="black" stroke-width="1" fill="black">
<rect x="394.509" y="326.315" width="5.6835" height="5.6835"/>
</g>
<path d="M401.886,333.526h 1.69368" fill="none" stroke="#000099"/>
<path d="M409.263,333.526h 1.69368" fill="none" stroke="#000099"/>
<g stroke="black" stroke-width="1" fill="black">
<rect x="403.579" y="330.684" width="5.6835" height="5.6835"/>
</g>
<path d="M410.957,334.076h 1.69368" fill="none" stroke="#000099"/>
<path d="M418.334,334.076h 1.69368" fill="none" stroke="#000099"/>
<g stroke="black" stroke-width="1" fill="black">
<rect x="412.65" y="331.234" width="5.6835" height="5.6835"/>
</g>
<path d="M420.028,337.64h 1.69368" fill="none" stroke="#000099"/>
<path d="M427.405,337.64h 1.69368" fill="none" stroke="#000099"/>
<g stroke="black" stroke-width="1" fill="black">
<rect x="421.721" y="334.799" width="5.6835" height="5.6835"/>
</g>
<path d="M429.098,340.296h 1.69368" fill="none" stroke="#000099"/>
<path d="M436.476,340.296h 1.69368" fill="none" stroke="#000099"/>
<g stroke="black" stroke-width="1" fill="black">
<rect x="430.792" y="337.455" width="5.6835" height="5.6835"/>
</g>
<path d="M438.169,343.934h 1.69368" fill="none" stroke="#000099"/>
<path d="M445.546,343.934h 1.69368" fill="none" stroke="#000099"/>
<g stroke="black" stroke-width="1" fill="black">
<rect x="439.863" y="341.093" width="5.6835" height="5.6835"/>
</g>
<path d="M447.24,345.449h 1.69368" fill="none" stroke="#000099"/>
<path d="M454.617,345.449h 1.69368" fill="none" stroke="#000099"/>
<g stroke="black" stroke-width="1" fill="black">
<rect x="448.934" y="342.607" width="5.6835" height="5.6835"/>
</g>
<path d="M456.311,350.698h 1.69368" fill="none" stroke="#000099"/>
<path d="M463.688,350.698h 1.69368" fill="none" stroke="#000099"/>
<g stroke="black" stroke-width="1" fill="black">
<rect x="458.005" y="347.857" width="5.6835" height="5.6835"/>
</g>
<path d="M465.382,350.543h 1.69368" fill="none" stroke="#000099"/>
<path d="M472.759,350.543h 1.69368" fill="none" stroke="#000099"/>
<g stroke="black" stroke-width="1" fill="black">
<rect x="467.076" y="347.702" width="5.6835" height="5.6835"/>
</g>
<path d="M474.453,354.571h 1.69368" fill="none" stroke="#000099"/>
<path d="M481.83,354.571h 1.69368" fill="none" stroke="#000099"/>
<g stroke="black" stroke-width="1" fill="black">
<rect x="476.146" y="351.729" width="5.6835" height="5.6835"/>
</g>
<path d="M483.524,357.094h 1.69368" fill="none" stroke="#000099"/>
<path d="M490.901,357.094h 1.69368" fill="none" stroke="#000099"/>
<g stroke="black" stroke-width="1" fill="black">
<rect x="485.217" y="354.252" width="5.6835" height="5.6835"/>
</g>
<path d="M492.594,358.048h 1.69368" fill="none" stroke="#000099"/>
<path d="M499.972,358.048h 1.69368" fill="none" stroke="#000099"/>
<g stroke="black" stroke-width="1" fill="black">
<rect x="494.288" y="355.206" width="5.6835" height="5.6835"/>
</g>
<path d="M501.665,358.499h 1.69368" fill="none" stroke="#000099"/>
<path d="M509.043,358.499h 1.69368" fill="none" stroke="#000099"/>
<g stroke="black" stroke-width="1" fill="black">
<rect x="503.359" y="355.657" width="5.6835" height="5.6835"/>
</g>
<text xml:space="preserve" x="256.258" y="19.8923" fill="black" font-size="19.7796" font-family="Helvetica">Jet pT</text></svg>
