<?xml version="1.0" standalone="no"?>
<svg width="567.429" height="409.002" viewBox="0 0 567.429 409.002" xmlns="http://www.w3.org/2000/svg" shape-rendering="crispEdges">
<title>
TruthJet p_T.svg
</title>
<desc>
Creator: ROOT Version 6.18/04
CreationDate: Wed Oct  7 00:28:32 2020</desc>
<defs>
</defs>
<rect x="0.5" y="0" width="566.929" height="408.502" fill="white"/>
<rect x="57.1929" y="40.8502" width="453.543" height="326.801" fill="white"/>
<rect x="57.1929" y="40.8502" width="453.543" height="326.801" fill="none" stroke="black"/>
<path d="M57.1929,54.3776h 1.69368" fill="none" stroke="#000099"/>
<path d="M64.5701,54.3776h 1.69368" fill="none" stroke="#000099"/>
<g stroke="#ff0000" stroke-width="1" fill="#ff0000">
<circle cx="61.7284" cy="54.3776" r="2.84175"/>
</g>
<path d="M66.2638,71.6875h 1.69368" fill="none" stroke="#000099"/>
<path d="M73.641,71.6875h 1.69368" fill="none" stroke="#000099"/>
<g stroke="#ff0000" stroke-width="1" fill="#ff0000">
<circle cx="70.7992" cy="71.6875" r="2.84175"/>
</g>
<path d="M75.3346,104.057h 1.69368" fill="none" stroke="#000099"/>
<path d="M82.7118,104.057h 1.69368" fill="none" stroke="#000099"/>
<g stroke="#ff0000" stroke-width="1" fill="#ff0000">
<circle cx="79.8701" cy="104.057" r="2.84175"/>
</g>
<path d="M84.4055,135.916h 1.69368" fill="none" stroke="#000099"/>
<path d="M91.7827,135.916h 1.69368" fill="none" stroke="#000099"/>
<g stroke="#ff0000" stroke-width="1" fill="#ff0000">
<circle cx="88.9409" cy="135.916" r="2.84175"/>
</g>
<path d="M93.4764,149.306h 1.69368" fill="none" stroke="#000099"/>
<path d="M100.854,149.306h 1.69368" fill="none" stroke="#000099"/>
<g stroke="#ff0000" stroke-width="1" fill="#ff0000">
<circle cx="98.0118" cy="149.306" r="2.84175"/>
</g>
<path d="M102.547,163.777h 1.69368" fill="none" stroke="#000099"/>
<path d="M109.924,163.777h 1.69368" fill="none" stroke="#000099"/>
<g stroke="#ff0000" stroke-width="1" fill="#ff0000">
<circle cx="107.083" cy="163.777" r="2.84175"/>
</g>
<path d="M111.618,172.509h 1.69368" fill="none" stroke="#000099"/>
<path d="M118.995,172.509h 1.69368" fill="none" stroke="#000099"/>
<g stroke="#ff0000" stroke-width="1" fill="#ff0000">
<circle cx="116.154" cy="172.509" r="2.84175"/>
</g>
<path d="M120.689,182.859h 1.69368" fill="none" stroke="#000099"/>
<path d="M128.066,182.859h 1.69368" fill="none" stroke="#000099"/>
<g stroke="#ff0000" stroke-width="1" fill="#ff0000">
<circle cx="125.224" cy="182.859" r="2.84175"/>
</g>
<path d="M129.76,191.546h 1.69368" fill="none" stroke="#000099"/>
<path d="M137.137,191.546h 1.69368" fill="none" stroke="#000099"/>
<g stroke="#ff0000" stroke-width="1" fill="#ff0000">
<circle cx="134.295" cy="191.546" r="2.84175"/>
</g>
<path d="M138.831,199.329h 1.69368" fill="none" stroke="#000099"/>
<path d="M146.208,199.329h 1.69368" fill="none" stroke="#000099"/>
<g stroke="#ff0000" stroke-width="1" fill="#ff0000">
<circle cx="143.366" cy="199.329" r="2.84175"/>
</g>
<path d="M147.902,206.745h 1.69368" fill="none" stroke="#000099"/>
<path d="M155.279,206.745h 1.69368" fill="none" stroke="#000099"/>
<g stroke="#ff0000" stroke-width="1" fill="#ff0000">
<circle cx="152.437" cy="206.745" r="2.84175"/>
</g>
<path d="M156.972,213.024h 1.69368" fill="none" stroke="#000099"/>
<path d="M164.35,213.024h 1.69368" fill="none" stroke="#000099"/>
<g stroke="#ff0000" stroke-width="1" fill="#ff0000">
<circle cx="161.508" cy="213.024" r="2.84175"/>
</g>
<path d="M166.043,219.47h 1.69368" fill="none" stroke="#000099"/>
<path d="M173.42,219.47h 1.69368" fill="none" stroke="#000099"/>
<g stroke="#ff0000" stroke-width="1" fill="#ff0000">
<circle cx="170.579" cy="219.47" r="2.84175"/>
</g>
<path d="M175.114,223.033h 1.69368" fill="none" stroke="#000099"/>
<path d="M182.491,223.033h 1.69368" fill="none" stroke="#000099"/>
<g stroke="#ff0000" stroke-width="1" fill="#ff0000">
<circle cx="179.65" cy="223.033" r="2.84175"/>
</g>
<path d="M184.185,230.513h 1.69368" fill="none" stroke="#000099"/>
<path d="M191.562,230.513h 1.69368" fill="none" stroke="#000099"/>
<g stroke="#ff0000" stroke-width="1" fill="#ff0000">
<circle cx="188.72" cy="230.513" r="2.84175"/>
</g>
<path d="M193.256,235.624h 1.69368" fill="none" stroke="#000099"/>
<path d="M200.633,235.624h 1.69368" fill="none" stroke="#000099"/>
<g stroke="#ff0000" stroke-width="1" fill="#ff0000">
<circle cx="197.791" cy="235.624" r="2.84175"/>
</g>
<path d="M202.327,241.108h 1.69368" fill="none" stroke="#000099"/>
<path d="M209.704,241.108h 1.69368" fill="none" stroke="#000099"/>
<g stroke="#ff0000" stroke-width="1" fill="#ff0000">
<circle cx="206.862" cy="241.108" r="2.84175"/>
</g>
<path d="M211.398,246.308h 1.69368" fill="none" stroke="#000099"/>
<path d="M218.775,246.308h 1.69368" fill="none" stroke="#000099"/>
<g stroke="#ff0000" stroke-width="1" fill="#ff0000">
<circle cx="215.933" cy="246.308" r="2.84175"/>
</g>
<path d="M220.469,251.977h 1.69368" fill="none" stroke="#000099"/>
<path d="M227.846,251.977h 1.69368" fill="none" stroke="#000099"/>
<g stroke="#ff0000" stroke-width="1" fill="#ff0000">
<circle cx="225.004" cy="251.977" r="2.84175"/>
</g>
<path d="M229.539,254.265h 1.69368" fill="none" stroke="#000099"/>
<path d="M236.917,254.265h 1.69368" fill="none" stroke="#000099"/>
<g stroke="#ff0000" stroke-width="1" fill="#ff0000">
<circle cx="234.075" cy="254.265" r="2.84175"/>
</g>
<path d="M238.61,260.018h 1.69368" fill="none" stroke="#000099"/>
<path d="M245.987,260.018h 1.69368" fill="none" stroke="#000099"/>
<g stroke="#ff0000" stroke-width="1" fill="#ff0000">
<circle cx="243.146" cy="260.018" r="2.84175"/>
</g>
<path d="M247.681,264.458h 1.69368" fill="none" stroke="#000099"/>
<path d="M255.058,264.458h 1.69368" fill="none" stroke="#000099"/>
<g stroke="#ff0000" stroke-width="1" fill="#ff0000">
<circle cx="252.217" cy="264.458" r="2.84175"/>
</g>
<path d="M256.752,269.824h 1.69368" fill="none" stroke="#000099"/>
<path d="M264.129,269.824h 1.69368" fill="none" stroke="#000099"/>
<g stroke="#ff0000" stroke-width="1" fill="#ff0000">
<circle cx="261.287" cy="269.824" r="2.84175"/>
</g>
<path d="M265.823,270.987h 1.69368" fill="none" stroke="#000099"/>
<path d="M273.2,270.987h 1.69368" fill="none" stroke="#000099"/>
<g stroke="#ff0000" stroke-width="1" fill="#ff0000">
<circle cx="270.358" cy="270.987" r="2.84175"/>
</g>
<path d="M274.894,276.659h 1.69368" fill="none" stroke="#000099"/>
<path d="M282.271,276.659h 1.69368" fill="none" stroke="#000099"/>
<g stroke="#ff0000" stroke-width="1" fill="#ff0000">
<circle cx="279.429" cy="276.659" r="2.84175"/>
</g>
<path d="M283.965,280.753h 1.69368" fill="none" stroke="#000099"/>
<path d="M291.342,280.753h 1.69368" fill="none" stroke="#000099"/>
<g stroke="#ff0000" stroke-width="1" fill="#ff0000">
<circle cx="288.5" cy="280.753" r="2.84175"/>
</g>
<path d="M293.035,282.627h 1.69368" fill="none" stroke="#000099"/>
<path d="M300.413,282.627h 1.69368" fill="none" stroke="#000099"/>
<g stroke="#ff0000" stroke-width="1" fill="#ff0000">
<circle cx="297.571" cy="282.627" r="2.84175"/>
</g>
<path d="M302.106,287.313h 1.69368" fill="none" stroke="#000099"/>
<path d="M309.483,287.313h 1.69368" fill="none" stroke="#000099"/>
<g stroke="#ff0000" stroke-width="1" fill="#ff0000">
<circle cx="306.642" cy="287.313" r="2.84175"/>
</g>
<path d="M311.177,289.865h 1.69368" fill="none" stroke="#000099"/>
<path d="M318.554,289.865h 1.69368" fill="none" stroke="#000099"/>
<g stroke="#ff0000" stroke-width="1" fill="#ff0000">
<circle cx="315.713" cy="289.865" r="2.84175"/>
</g>
<path d="M320.248,292.878h 1.69368" fill="none" stroke="#000099"/>
<path d="M327.625,292.878h 1.69368" fill="none" stroke="#000099"/>
<g stroke="#ff0000" stroke-width="1" fill="#ff0000">
<circle cx="324.783" cy="292.878" r="2.84175"/>
</g>
<path d="M329.319,298.916h 1.69368" fill="none" stroke="#000099"/>
<path d="M336.696,298.916h 1.69368" fill="none" stroke="#000099"/>
<g stroke="#ff0000" stroke-width="1" fill="#ff0000">
<circle cx="333.854" cy="298.916" r="2.84175"/>
</g>
<path d="M338.39,300.692h 1.69368" fill="none" stroke="#000099"/>
<path d="M345.767,300.692h 1.69368" fill="none" stroke="#000099"/>
<g stroke="#ff0000" stroke-width="1" fill="#ff0000">
<circle cx="342.925" cy="300.692" r="2.84175"/>
</g>
<path d="M347.461,303.808h 1.69368" fill="none" stroke="#000099"/>
<path d="M354.838,303.808h 1.69368" fill="none" stroke="#000099"/>
<g stroke="#ff0000" stroke-width="1" fill="#ff0000">
<circle cx="351.996" cy="303.808" r="2.84175"/>
</g>
<path d="M356.531,306.79h 1.69368" fill="none" stroke="#000099"/>
<path d="M363.909,306.79h 1.69368" fill="none" stroke="#000099"/>
<g stroke="#ff0000" stroke-width="1" fill="#ff0000">
<circle cx="361.067" cy="306.79" r="2.84175"/>
</g>
<path d="M365.602,312.015h 1.69368" fill="none" stroke="#000099"/>
<path d="M372.98,312.015h 1.69368" fill="none" stroke="#000099"/>
<g stroke="#ff0000" stroke-width="1" fill="#ff0000">
<circle cx="370.138" cy="312.015" r="2.84175"/>
</g>
<path d="M374.673,311.884h 1.69368" fill="none" stroke="#000099"/>
<path d="M382.05,311.884h 1.69368" fill="none" stroke="#000099"/>
<g stroke="#ff0000" stroke-width="1" fill="#ff0000">
<circle cx="379.209" cy="311.884" r="2.84175"/>
</g>
<path d="M383.744,314.041h 1.69368" fill="none" stroke="#000099"/>
<path d="M391.121,314.041h 1.69368" fill="none" stroke="#000099"/>
<g stroke="#ff0000" stroke-width="1" fill="#ff0000">
<circle cx="388.28" cy="314.041" r="2.84175"/>
</g>
<path d="M392.815,320.059h 1.69368" fill="none" stroke="#000099"/>
<path d="M400.192,320.059h 1.69368" fill="none" stroke="#000099"/>
<g stroke="#ff0000" stroke-width="1" fill="#ff0000">
<circle cx="397.35" cy="320.059" r="2.84175"/>
</g>
<path d="M401.886,323.918h 1.69368" fill="none" stroke="#000099"/>
<path d="M409.263,323.918h 1.69368" fill="none" stroke="#000099"/>
<g stroke="#ff0000" stroke-width="1" fill="#ff0000">
<circle cx="406.421" cy="323.918" r="2.84175"/>
</g>
<path d="M410.957,327.495h 1.69368" fill="none" stroke="#000099"/>
<path d="M418.334,327.495h 1.69368" fill="none" stroke="#000099"/>
<g stroke="#ff0000" stroke-width="1" fill="#ff0000">
<circle cx="415.492" cy="327.495" r="2.84175"/>
</g>
<path d="M420.028,328.941h 1.69368" fill="none" stroke="#000099"/>
<path d="M427.405,328.941h 1.69368" fill="none" stroke="#000099"/>
<g stroke="#ff0000" stroke-width="1" fill="#ff0000">
<circle cx="424.563" cy="328.941" r="2.84175"/>
</g>
<path d="M429.098,333.454h 1.69368" fill="none" stroke="#000099"/>
<path d="M436.476,333.454h 1.69368" fill="none" stroke="#000099"/>
<g stroke="#ff0000" stroke-width="1" fill="#ff0000">
<circle cx="433.634" cy="333.454" r="2.84175"/>
</g>
<path d="M438.169,335.427h 1.69368" fill="none" stroke="#000099"/>
<path d="M445.546,335.427h 1.69368" fill="none" stroke="#000099"/>
<g stroke="#ff0000" stroke-width="1" fill="#ff0000">
<circle cx="442.705" cy="335.427" r="2.84175"/>
</g>
<path d="M447.24,335.645h 1.69368" fill="none" stroke="#000099"/>
<path d="M454.617,335.645h 1.69368" fill="none" stroke="#000099"/>
<g stroke="#ff0000" stroke-width="1" fill="#ff0000">
<circle cx="451.776" cy="335.645" r="2.84175"/>
</g>
<path d="M456.311,338.355h 1.69368" fill="none" stroke="#000099"/>
<path d="M463.688,338.355h 1.69368" fill="none" stroke="#000099"/>
<g stroke="#ff0000" stroke-width="1" fill="#ff0000">
<circle cx="460.846" cy="338.355" r="2.84175"/>
</g>
<path d="M465.382,340.566h 1.69368" fill="none" stroke="#000099"/>
<path d="M472.759,340.566h 1.69368" fill="none" stroke="#000099"/>
<g stroke="#ff0000" stroke-width="1" fill="#ff0000">
<circle cx="469.917" cy="340.566" r="2.84175"/>
</g>
<path d="M474.453,342.314h 1.69368" fill="none" stroke="#000099"/>
<path d="M481.83,342.314h 1.69368" fill="none" stroke="#000099"/>
<g stroke="#ff0000" stroke-width="1" fill="#ff0000">
<circle cx="478.988" cy="342.314" r="2.84175"/>
</g>
<path d="M483.524,344.96h 1.69368" fill="none" stroke="#000099"/>
<path d="M490.901,344.96h 1.69368" fill="none" stroke="#000099"/>
<g stroke="#ff0000" stroke-width="1" fill="#ff0000">
<circle cx="488.059" cy="344.96" r="2.84175"/>
</g>
<path d="M492.594,347.667h 1.69368" fill="none" stroke="#000099"/>
<path d="M499.972,347.667h 1.69368" fill="none" stroke="#000099"/>
<g stroke="#ff0000" stroke-width="1" fill="#ff0000">
<circle cx="497.13" cy="347.667" r="2.84175"/>
</g>
<path d="M501.665,352.055h 1.69368" fill="none" stroke="#000099"/>
<path d="M509.043,352.055h 1.69368" fill="none" stroke="#000099"/>
<g stroke="#ff0000" stroke-width="1" fill="#ff0000">
<circle cx="506.201" cy="352.055" r="2.84175"/>
</g>
<path d="M57.1929,367.651h 453.543" fill="none" stroke="black"/>
<path d="M81.0636,357.847v 9.80404" fill="none" stroke="black"/>
<path d="M92.999,362.749v 4.90202" fill="none" stroke="black"/>
<path d="M104.934,362.749v 4.90202" fill="none" stroke="black"/>
<path d="M116.87,362.749v 4.90202" fill="none" stroke="black"/>
<path d="M128.805,357.847v 9.80404" fill="none" stroke="black"/>
<path d="M140.74,362.749v 4.90202" fill="none" stroke="black"/>
<path d="M152.676,362.749v 4.90202" fill="none" stroke="black"/>
<path d="M164.611,362.749v 4.90202" fill="none" stroke="black"/>
<path d="M176.546,357.847v 9.80404" fill="none" stroke="black"/>
<path d="M188.482,362.749v 4.90202" fill="none" stroke="black"/>
<path d="M200.417,362.749v 4.90202" fill="none" stroke="black"/>
<path d="M212.352,362.749v 4.90202" fill="none" stroke="black"/>
<path d="M224.288,357.847v 9.80404" fill="none" stroke="black"/>
<path d="M236.223,362.749v 4.90202" fill="none" stroke="black"/>
<path d="M248.159,362.749v 4.90202" fill="none" stroke="black"/>
<path d="M260.094,362.749v 4.90202" fill="none" stroke="black"/>
<path d="M272.029,357.847v 9.80404" fill="none" stroke="black"/>
<path d="M283.965,362.749v 4.90202" fill="none" stroke="black"/>
<path d="M295.9,362.749v 4.90202" fill="none" stroke="black"/>
<path d="M307.835,362.749v 4.90202" fill="none" stroke="black"/>
<path d="M319.771,357.847v 9.80404" fill="none" stroke="black"/>
<path d="M331.706,362.749v 4.90202" fill="none" stroke="black"/>
<path d="M343.641,362.749v 4.90202" fill="none" stroke="black"/>
<path d="M355.577,362.749v 4.90202" fill="none" stroke="black"/>
<path d="M367.512,357.847v 9.80404" fill="none" stroke="black"/>
<path d="M379.447,362.749v 4.90202" fill="none" stroke="black"/>
<path d="M391.383,362.749v 4.90202" fill="none" stroke="black"/>
<path d="M403.318,362.749v 4.90202" fill="none" stroke="black"/>
<path d="M415.253,357.847v 9.80404" fill="none" stroke="black"/>
<path d="M427.189,362.749v 4.90202" fill="none" stroke="black"/>
<path d="M439.124,362.749v 4.90202" fill="none" stroke="black"/>
<path d="M451.059,362.749v 4.90202" fill="none" stroke="black"/>
<path d="M462.995,357.847v 9.80404" fill="none" stroke="black"/>
<path d="M474.93,362.749v 4.90202" fill="none" stroke="black"/>
<path d="M486.866,362.749v 4.90202" fill="none" stroke="black"/>
<path d="M498.801,362.749v 4.90202" fill="none" stroke="black"/>
<path d="M510.736,357.847v 9.80404" fill="none" stroke="black"/>
<path d="M81.0636,357.847v 9.80404" fill="none" stroke="black"/>
<path d="M69.1283,362.749v 4.90202" fill="none" stroke="black"/>
<path d="M57.1929,362.749v 4.90202" fill="none" stroke="black"/>
<text xml:space="preserve" x="72.9646" y="380.795" fill="black" font-size="13.617" font-family="Helvetica">20</text>
<text xml:space="preserve" x="120.564" y="380.795" fill="black" font-size="13.617" font-family="Helvetica">40</text>
<text xml:space="preserve" x="168.163" y="380.795" fill="black" font-size="13.617" font-family="Helvetica">60</text>
<text xml:space="preserve" x="216.473" y="380.795" fill="black" font-size="13.617" font-family="Helvetica">80</text>
<text xml:space="preserve" x="260.52" y="380.795" fill="black" font-size="13.617" font-family="Helvetica">100</text>
<text xml:space="preserve" x="308.119" y="380.795" fill="black" font-size="13.617" font-family="Helvetica">120</text>
<text xml:space="preserve" x="355.719" y="380.795" fill="black" font-size="13.617" font-family="Helvetica">140</text>
<text xml:space="preserve" x="403.318" y="380.795" fill="black" font-size="13.617" font-family="Helvetica">160</text>
<text xml:space="preserve" x="451.628" y="380.795" fill="black" font-size="13.617" font-family="Helvetica">180</text>
<text xml:space="preserve" x="499.227" y="380.795" fill="black" font-size="13.617" font-family="Helvetica">200</text>
<text xml:space="preserve" x="459.443" y="394.293" fill="black" font-size="13.617" font-family="Helvetica">pT(GeV)</text>
<path d="M57.1929,367.651v -326.801" fill="none" stroke="black"/>
<path d="M63.9961,367.59h -6.80315" fill="none" stroke="black"/>
<path d="M63.9961,363.873h -6.80315" fill="none" stroke="black"/>
<path d="M63.9961,360.731h -6.80315" fill="none" stroke="black"/>
<path d="M63.9961,358.008h -6.80315" fill="none" stroke="black"/>
<path d="M63.9961,355.607h -6.80315" fill="none" stroke="black"/>
<path d="M70.7992,353.459h -13.6063" fill="none" stroke="black"/>
<text xml:space="preserve" x="47.3889" y="353.798" fill="black" font-size="9.24468" font-family="Helvetica">4</text>
<text xml:space="preserve" x="32.4697" y="359.481" fill="black" font-size="13.617" font-family="Helvetica">10</text>
<path d="M63.9961,339.329h -6.80315" fill="none" stroke="black"/>
<path d="M63.9961,331.063h -6.80315" fill="none" stroke="black"/>
<path d="M63.9961,325.199h -6.80315" fill="none" stroke="black"/>
<path d="M63.9961,320.65h -6.80315" fill="none" stroke="black"/>
<path d="M63.9961,316.933h -6.80315" fill="none" stroke="black"/>
<path d="M63.9961,313.79h -6.80315" fill="none" stroke="black"/>
<path d="M63.9961,311.068h -6.80315" fill="none" stroke="black"/>
<path d="M63.9961,308.667h -6.80315" fill="none" stroke="black"/>
<path d="M70.7992,306.519h -13.6063" fill="none" stroke="black"/>
<text xml:space="preserve" x="47.3889" y="306.199" fill="black" font-size="9.24468" font-family="Helvetica">5</text>
<text xml:space="preserve" x="32.4697" y="312.592" fill="black" font-size="13.617" font-family="Helvetica">10</text>
<path d="M63.9961,292.389h -6.80315" fill="none" stroke="black"/>
<path d="M63.9961,284.123h -6.80315" fill="none" stroke="black"/>
<path d="M63.9961,278.258h -6.80315" fill="none" stroke="black"/>
<path d="M63.9961,273.709h -6.80315" fill="none" stroke="black"/>
<path d="M63.9961,269.993h -6.80315" fill="none" stroke="black"/>
<path d="M63.9961,266.85h -6.80315" fill="none" stroke="black"/>
<path d="M63.9961,264.128h -6.80315" fill="none" stroke="black"/>
<path d="M63.9961,261.727h -6.80315" fill="none" stroke="black"/>
<path d="M70.7992,259.579h -13.6063" fill="none" stroke="black"/>
<text xml:space="preserve" x="47.3889" y="259.31" fill="black" font-size="9.24468" font-family="Helvetica">6</text>
<text xml:space="preserve" x="32.4697" y="265.704" fill="black" font-size="13.617" font-family="Helvetica">10</text>
<path d="M63.9961,245.449h -6.80315" fill="none" stroke="black"/>
<path d="M63.9961,237.183h -6.80315" fill="none" stroke="black"/>
<path d="M63.9961,231.318h -6.80315" fill="none" stroke="black"/>
<path d="M63.9961,226.769h -6.80315" fill="none" stroke="black"/>
<path d="M63.9961,223.052h -6.80315" fill="none" stroke="black"/>
<path d="M63.9961,219.91h -6.80315" fill="none" stroke="black"/>
<path d="M63.9961,217.188h -6.80315" fill="none" stroke="black"/>
<path d="M63.9961,214.787h -6.80315" fill="none" stroke="black"/>
<path d="M70.7992,212.639h -13.6063" fill="none" stroke="black"/>
<text xml:space="preserve" x="47.3889" y="213.131" fill="black" font-size="9.24468" font-family="Helvetica">7</text>
<text xml:space="preserve" x="32.4697" y="218.815" fill="black" font-size="13.617" font-family="Helvetica">10</text>
<path d="M63.9961,198.508h -6.80315" fill="none" stroke="black"/>
<path d="M63.9961,190.242h -6.80315" fill="none" stroke="black"/>
<path d="M63.9961,184.378h -6.80315" fill="none" stroke="black"/>
<path d="M63.9961,179.829h -6.80315" fill="none" stroke="black"/>
<path d="M63.9961,176.112h -6.80315" fill="none" stroke="black"/>
<path d="M63.9961,172.97h -6.80315" fill="none" stroke="black"/>
<path d="M63.9961,170.247h -6.80315" fill="none" stroke="black"/>
<path d="M63.9961,167.846h -6.80315" fill="none" stroke="black"/>
<path d="M70.7992,165.698h -13.6063" fill="none" stroke="black"/>
<text xml:space="preserve" x="47.3889" y="165.532" fill="black" font-size="9.24468" font-family="Helvetica">8</text>
<text xml:space="preserve" x="32.4697" y="171.926" fill="black" font-size="13.617" font-family="Helvetica">10</text>
<path d="M63.9961,151.568h -6.80315" fill="none" stroke="black"/>
<path d="M63.9961,143.302h -6.80315" fill="none" stroke="black"/>
<path d="M63.9961,137.438h -6.80315" fill="none" stroke="black"/>
<path d="M63.9961,132.889h -6.80315" fill="none" stroke="black"/>
<path d="M63.9961,129.172h -6.80315" fill="none" stroke="black"/>
<path d="M63.9961,126.029h -6.80315" fill="none" stroke="black"/>
<path d="M63.9961,123.307h -6.80315" fill="none" stroke="black"/>
<path d="M63.9961,120.906h -6.80315" fill="none" stroke="black"/>
<path d="M70.7992,118.758h -13.6063" fill="none" stroke="black"/>
<text xml:space="preserve" x="47.3889" y="118.643" fill="black" font-size="9.24468" font-family="Helvetica">9</text>
<text xml:space="preserve" x="32.4697" y="125.037" fill="black" font-size="13.617" font-family="Helvetica">10</text>
<path d="M63.9961,104.628h -6.80315" fill="none" stroke="black"/>
<path d="M63.9961,96.362h -6.80315" fill="none" stroke="black"/>
<path d="M63.9961,90.4973h -6.80315" fill="none" stroke="black"/>
<path d="M63.9961,85.9483h -6.80315" fill="none" stroke="black"/>
<path d="M63.9961,82.2315h -6.80315" fill="none" stroke="black"/>
<path d="M63.9961,79.089h -6.80315" fill="none" stroke="black"/>
<path d="M63.9961,76.3669h -6.80315" fill="none" stroke="black"/>
<path d="M63.9961,73.9658h -6.80315" fill="none" stroke="black"/>
<path d="M70.7992,71.8179h -13.6063" fill="none" stroke="black"/>
<text xml:space="preserve" x="42.4158" y="71.7542" fill="black" font-size="9.24468" font-family="Helvetica">10</text>
<text xml:space="preserve" x="27.4966" y="78.1481" fill="black" font-size="13.617" font-family="Helvetica">10</text>
<path d="M63.9961,57.6875h -6.80315" fill="none" stroke="black"/>
<path d="M63.9961,49.4217h -6.80315" fill="none" stroke="black"/>
<path d="M63.9961,43.5571h -6.80315" fill="none" stroke="black"/>
<g transform="rotate(-90,16.8401,81.7003)">
<text xml:space="preserve" x="16.8401" y="81.7003" fill="black" font-size="13.617" font-family="Helvetica">Events</text>
</g>
<text xml:space="preserve" x="256.258" y="19.8923" fill="black" font-size="19.7796" font-family="Helvetica">Jet pT</text>
<rect x="442.705" y="26.5526" width="113.386" height="65.3603" fill="white"/>
<path d="M442.705,91.9128h 113.386" fill="none" stroke="black"/>
<path d="M556.091,91.9128v -65.3603" fill="none" stroke="black"/>
<path d="M556.091,26.5526h -113.386" fill="none" stroke="black"/>
<path d="M442.705,26.5526v 65.3603" fill="none" stroke="black"/>
<text xml:space="preserve" x="472.23" y="38.3636" fill="black" font-size="14.2916" font-family="Helvetica">Truth-jet</text>
<path d="M442.705,42.8927h 113.386" fill="none" stroke="black"/>
<text xml:space="preserve" x="448.076" y="54.7037" fill="black" font-size="11.7962" font-family="Helvetica">Entries </text>
<text xml:space="preserve" x="502.779" y="54.7037" fill="black" font-size="11.7962" font-family="Helvetica"> 1053722</text>
<text xml:space="preserve" x="448.076" y="71.0438" fill="black" font-size="11.7962" font-family="Helvetica">Mean  </text>
<text xml:space="preserve" x="515.567" y="71.0438" fill="black" font-size="11.7962" font-family="Helvetica">  13.57</text>
<text xml:space="preserve" x="448.076" y="87.3838" fill="black" font-size="11.7962" font-family="Helvetica">Std Dev   </text>
<text xml:space="preserve" x="515.567" y="87.3838" fill="black" font-size="11.7962" font-family="Helvetica">  4.022</text>
<path d="M57.1929,70.0105h 1.69368" fill="none" stroke="#000099"/>
<path d="M64.5701,70.0105h 1.69368" fill="none" stroke="#000099"/>
<g stroke="black" stroke-width="1" fill="black">
<rect x="58.8866" y="67.1687" width="5.6835" height="5.6835"/>
</g>
<path d="M66.2638,75.5192h 1.69368" fill="none" stroke="#000099"/>
<path d="M73.641,75.5192h 1.69368" fill="none" stroke="#000099"/>
<g stroke="black" stroke-width="1" fill="black">
<rect x="67.9575" y="72.6775" width="5.6835" height="5.6835"/>
</g>
<path d="M75.3346,107.521h 1.69368" fill="none" stroke="#000099"/>
<path d="M82.7118,107.521h 1.69368" fill="none" stroke="#000099"/>
<g stroke="black" stroke-width="1" fill="black">
<rect x="77.0283" y="104.679" width="5.6835" height="5.6835"/>
</g>
<path d="M84.4055,142.358h 1.69368" fill="none" stroke="#000099"/>
<path d="M91.7827,142.358h 1.69368" fill="none" stroke="#000099"/>
<g stroke="black" stroke-width="1" fill="black">
<rect x="86.0992" y="139.516" width="5.6835" height="5.6835"/>
</g>
<path d="M93.4764,155.385h 1.69368" fill="none" stroke="#000099"/>
<path d="M100.854,155.385h 1.69368" fill="none" stroke="#000099"/>
<g stroke="black" stroke-width="1" fill="black">
<rect x="95.1701" y="152.544" width="5.6835" height="5.6835"/>
</g>
<path d="M102.547,170.213h 1.69368" fill="none" stroke="#000099"/>
<path d="M109.924,170.213h 1.69368" fill="none" stroke="#000099"/>
<g stroke="black" stroke-width="1" fill="black">
<rect x="104.241" y="167.371" width="5.6835" height="5.6835"/>
</g>
<path d="M111.618,178.878h 1.69368" fill="none" stroke="#000099"/>
<path d="M118.995,178.878h 1.69368" fill="none" stroke="#000099"/>
<g stroke="black" stroke-width="1" fill="black">
<rect x="113.312" y="176.036" width="5.6835" height="5.6835"/>
</g>
<path d="M120.689,189.613h 1.69368" fill="none" stroke="#000099"/>
<path d="M128.066,189.613h 1.69368" fill="none" stroke="#000099"/>
<g stroke="black" stroke-width="1" fill="black">
<rect x="122.383" y="186.771" width="5.6835" height="5.6835"/>
</g>
<path d="M129.76,197.938h 1.69368" fill="none" stroke="#000099"/>
<path d="M137.137,197.938h 1.69368" fill="none" stroke="#000099"/>
<g stroke="black" stroke-width="1" fill="black">
<rect x="131.454" y="195.097" width="5.6835" height="5.6835"/>
</g>
<path d="M138.831,205.712h 1.69368" fill="none" stroke="#000099"/>
<path d="M146.208,205.712h 1.69368" fill="none" stroke="#000099"/>
<g stroke="black" stroke-width="1" fill="black">
<rect x="140.524" y="202.87" width="5.6835" height="5.6835"/>
</g>
<path d="M147.902,213.376h 1.69368" fill="none" stroke="#000099"/>
<path d="M155.279,213.376h 1.69368" fill="none" stroke="#000099"/>
<g stroke="black" stroke-width="1" fill="black">
<rect x="149.595" y="210.534" width="5.6835" height="5.6835"/>
</g>
<path d="M156.972,220.163h 1.69368" fill="none" stroke="#000099"/>
<path d="M164.35,220.163h 1.69368" fill="none" stroke="#000099"/>
<g stroke="black" stroke-width="1" fill="black">
<rect x="158.666" y="217.322" width="5.6835" height="5.6835"/>
</g>
<path d="M166.043,225.74h 1.69368" fill="none" stroke="#000099"/>
<path d="M173.42,225.74h 1.69368" fill="none" stroke="#000099"/>
<g stroke="black" stroke-width="1" fill="black">
<rect x="167.737" y="222.898" width="5.6835" height="5.6835"/>
</g>
<path d="M175.114,228.678h 1.69368" fill="none" stroke="#000099"/>
<path d="M182.491,228.678h 1.69368" fill="none" stroke="#000099"/>
<g stroke="black" stroke-width="1" fill="black">
<rect x="176.808" y="225.836" width="5.6835" height="5.6835"/>
</g>
<path d="M184.185,236.54h 1.69368" fill="none" stroke="#000099"/>
<path d="M191.562,236.54h 1.69368" fill="none" stroke="#000099"/>
<g stroke="black" stroke-width="1" fill="black">
<rect x="185.879" y="233.698" width="5.6835" height="5.6835"/>
</g>
<path d="M193.256,242.115h 1.69368" fill="none" stroke="#000099"/>
<path d="M200.633,242.115h 1.69368" fill="none" stroke="#000099"/>
<g stroke="black" stroke-width="1" fill="black">
<rect x="194.95" y="239.274" width="5.6835" height="5.6835"/>
</g>
<path d="M202.327,246.926h 1.69368" fill="none" stroke="#000099"/>
<path d="M209.704,246.926h 1.69368" fill="none" stroke="#000099"/>
<g stroke="black" stroke-width="1" fill="black">
<rect x="204.02" y="244.084" width="5.6835" height="5.6835"/>
</g>
<path d="M211.398,252.369h 1.69368" fill="none" stroke="#000099"/>
<path d="M218.775,252.369h 1.69368" fill="none" stroke="#000099"/>
<g stroke="black" stroke-width="1" fill="black">
<rect x="213.091" y="249.528" width="5.6835" height="5.6835"/>
</g>
<path d="M220.469,258.333h 1.69368" fill="none" stroke="#000099"/>
<path d="M227.846,258.333h 1.69368" fill="none" stroke="#000099"/>
<g stroke="black" stroke-width="1" fill="black">
<rect x="222.162" y="255.491" width="5.6835" height="5.6835"/>
</g>
<path d="M229.539,260.141h 1.69368" fill="none" stroke="#000099"/>
<path d="M236.917,260.141h 1.69368" fill="none" stroke="#000099"/>
<g stroke="black" stroke-width="1" fill="black">
<rect x="231.233" y="257.299" width="5.6835" height="5.6835"/>
</g>
<path d="M238.61,266.042h 1.69368" fill="none" stroke="#000099"/>
<path d="M245.987,266.042h 1.69368" fill="none" stroke="#000099"/>
<g stroke="black" stroke-width="1" fill="black">
<rect x="240.304" y="263.2" width="5.6835" height="5.6835"/>
</g>
<path d="M247.681,270.058h 1.69368" fill="none" stroke="#000099"/>
<path d="M255.058,270.058h 1.69368" fill="none" stroke="#000099"/>
<g stroke="black" stroke-width="1" fill="black">
<rect x="249.375" y="267.216" width="5.6835" height="5.6835"/>
</g>
<path d="M256.752,276.881h 1.69368" fill="none" stroke="#000099"/>
<path d="M264.129,276.881h 1.69368" fill="none" stroke="#000099"/>
<g stroke="black" stroke-width="1" fill="black">
<rect x="258.446" y="274.039" width="5.6835" height="5.6835"/>
</g>
<path d="M265.823,276.729h 1.69368" fill="none" stroke="#000099"/>
<path d="M273.2,276.729h 1.69368" fill="none" stroke="#000099"/>
<g stroke="black" stroke-width="1" fill="black">
<rect x="267.517" y="273.888" width="5.6835" height="5.6835"/>
</g>
<path d="M274.894,282.521h 1.69368" fill="none" stroke="#000099"/>
<path d="M282.271,282.521h 1.69368" fill="none" stroke="#000099"/>
<g stroke="black" stroke-width="1" fill="black">
<rect x="276.587" y="279.679" width="5.6835" height="5.6835"/>
</g>
<path d="M283.965,286.312h 1.69368" fill="none" stroke="#000099"/>
<path d="M291.342,286.312h 1.69368" fill="none" stroke="#000099"/>
<g stroke="black" stroke-width="1" fill="black">
<rect x="285.658" y="283.47" width="5.6835" height="5.6835"/>
</g>
<path d="M293.035,288.168h 1.69368" fill="none" stroke="#000099"/>
<path d="M300.413,288.168h 1.69368" fill="none" stroke="#000099"/>
<g stroke="black" stroke-width="1" fill="black">
<rect x="294.729" y="285.326" width="5.6835" height="5.6835"/>
</g>
<path d="M302.106,293.246h 1.69368" fill="none" stroke="#000099"/>
<path d="M309.483,293.246h 1.69368" fill="none" stroke="#000099"/>
<g stroke="black" stroke-width="1" fill="black">
<rect x="303.8" y="290.404" width="5.6835" height="5.6835"/>
</g>
<path d="M311.177,296.045h 1.69368" fill="none" stroke="#000099"/>
<path d="M318.554,296.045h 1.69368" fill="none" stroke="#000099"/>
<g stroke="black" stroke-width="1" fill="black">
<rect x="312.871" y="293.203" width="5.6835" height="5.6835"/>
</g>
<path d="M320.248,298.236h 1.69368" fill="none" stroke="#000099"/>
<path d="M327.625,298.236h 1.69368" fill="none" stroke="#000099"/>
<g stroke="black" stroke-width="1" fill="black">
<rect x="321.942" y="295.394" width="5.6835" height="5.6835"/>
</g>
<path d="M329.319,305.501h 1.69368" fill="none" stroke="#000099"/>
<path d="M336.696,305.501h 1.69368" fill="none" stroke="#000099"/>
<g stroke="black" stroke-width="1" fill="black">
<rect x="331.013" y="302.659" width="5.6835" height="5.6835"/>
</g>
<path d="M338.39,305.932h 1.69368" fill="none" stroke="#000099"/>
<path d="M345.767,305.932h 1.69368" fill="none" stroke="#000099"/>
<g stroke="black" stroke-width="1" fill="black">
<rect x="340.083" y="303.09" width="5.6835" height="5.6835"/>
</g>
<path d="M347.461,309.506h 1.69368" fill="none" stroke="#000099"/>
<path d="M354.838,309.506h 1.69368" fill="none" stroke="#000099"/>
<g stroke="black" stroke-width="1" fill="black">
<rect x="349.154" y="306.664" width="5.6835" height="5.6835"/>
</g>
<path d="M356.531,312.518h 1.69368" fill="none" stroke="#000099"/>
<path d="M363.909,312.518h 1.69368" fill="none" stroke="#000099"/>
<g stroke="black" stroke-width="1" fill="black">
<rect x="358.225" y="309.677" width="5.6835" height="5.6835"/>
</g>
<path d="M365.602,318.173h 1.69368" fill="none" stroke="#000099"/>
<path d="M372.98,318.173h 1.69368" fill="none" stroke="#000099"/>
<g stroke="black" stroke-width="1" fill="black">
<rect x="367.296" y="315.331" width="5.6835" height="5.6835"/>
</g>
<path d="M374.673,316.764h 1.69368" fill="none" stroke="#000099"/>
<path d="M382.05,316.764h 1.69368" fill="none" stroke="#000099"/>
<g stroke="black" stroke-width="1" fill="black">
<rect x="376.367" y="313.922" width="5.6835" height="5.6835"/>
</g>
<path d="M383.744,318.854h 1.69368" fill="none" stroke="#000099"/>
<path d="M391.121,318.854h 1.69368" fill="none" stroke="#000099"/>
<g stroke="black" stroke-width="1" fill="black">
<rect x="385.438" y="316.012" width="5.6835" height="5.6835"/>
</g>
<path d="M392.815,325.779h 1.69368" fill="none" stroke="#000099"/>
<path d="M400.192,325.779h 1.69368" fill="none" stroke="#000099"/>
<g stroke="black" stroke-width="1" fill="black">
<rect x="394.509" y="322.937" width="5.6835" height="5.6835"/>
</g>
<path d="M401.886,329.752h 1.69368" fill="none" stroke="#000099"/>
<path d="M409.263,329.752h 1.69368" fill="none" stroke="#000099"/>
<g stroke="black" stroke-width="1" fill="black">
<rect x="403.579" y="326.911" width="5.6835" height="5.6835"/>
</g>
<path d="M410.957,333.142h 1.69368" fill="none" stroke="#000099"/>
<path d="M418.334,333.142h 1.69368" fill="none" stroke="#000099"/>
<g stroke="black" stroke-width="1" fill="black">
<rect x="412.65" y="330.3" width="5.6835" height="5.6835"/>
</g>
<path d="M420.028,335.393h 1.69368" fill="none" stroke="#000099"/>
<path d="M427.405,335.393h 1.69368" fill="none" stroke="#000099"/>
<g stroke="black" stroke-width="1" fill="black">
<rect x="421.721" y="332.551" width="5.6835" height="5.6835"/>
</g>
<path d="M429.098,340.655h 1.69368" fill="none" stroke="#000099"/>
<path d="M436.476,340.655h 1.69368" fill="none" stroke="#000099"/>
<g stroke="black" stroke-width="1" fill="black">
<rect x="430.792" y="337.813" width="5.6835" height="5.6835"/>
</g>
<path d="M438.169,341.901h 1.69368" fill="none" stroke="#000099"/>
<path d="M445.546,341.901h 1.69368" fill="none" stroke="#000099"/>
<g stroke="black" stroke-width="1" fill="black">
<rect x="439.863" y="339.06" width="5.6835" height="5.6835"/>
</g>
<path d="M447.24,341.784h 1.69368" fill="none" stroke="#000099"/>
<path d="M454.617,341.784h 1.69368" fill="none" stroke="#000099"/>
<g stroke="black" stroke-width="1" fill="black">
<rect x="448.934" y="338.942" width="5.6835" height="5.6835"/>
</g>
<path d="M456.311,344.903h 1.69368" fill="none" stroke="#000099"/>
<path d="M463.688,344.903h 1.69368" fill="none" stroke="#000099"/>
<g stroke="black" stroke-width="1" fill="black">
<rect x="458.005" y="342.061" width="5.6835" height="5.6835"/>
</g>
<path d="M465.382,347.98h 1.69368" fill="none" stroke="#000099"/>
<path d="M472.759,347.98h 1.69368" fill="none" stroke="#000099"/>
<g stroke="black" stroke-width="1" fill="black">
<rect x="467.076" y="345.138" width="5.6835" height="5.6835"/>
</g>
<path d="M474.453,347.345h 1.69368" fill="none" stroke="#000099"/>
<path d="M481.83,347.345h 1.69368" fill="none" stroke="#000099"/>
<g stroke="black" stroke-width="1" fill="black">
<rect x="476.146" y="344.503" width="5.6835" height="5.6835"/>
</g>
<path d="M483.524,350.584h 1.69368" fill="none" stroke="#000099"/>
<path d="M490.901,350.584h 1.69368" fill="none" stroke="#000099"/>
<g stroke="black" stroke-width="1" fill="black">
<rect x="485.217" y="347.742" width="5.6835" height="5.6835"/>
</g>
<path d="M492.594,353.741h 1.69368" fill="none" stroke="#000099"/>
<path d="M499.972,353.741h 1.69368" fill="none" stroke="#000099"/>
<g stroke="black" stroke-width="1" fill="black">
<rect x="494.288" y="350.9" width="5.6835" height="5.6835"/>
</g>
<path d="M501.665,359.197h 1.69368" fill="none" stroke="#000099"/>
<path d="M509.043,359.197h 1.69368" fill="none" stroke="#000099"/>
<g stroke="black" stroke-width="1" fill="black">
<rect x="503.359" y="356.355" width="5.6835" height="5.6835"/>
</g>
<text xml:space="preserve" x="256.258" y="19.8923" fill="black" font-size="19.7796" font-family="Helvetica">Jet pT</text></svg>
